fira-sans_medium.sfdir
StartChar: quotedbl
Encoding: 34 34 2129
Width: 421
Flags: MW
HStem: 420 271<71 71 71 159 262 350 262 262>
VStem: 62 105.5 253.5 105.5
LayerCount: 2
Back
Fore
SplineSet
71 420 m 1
 53 691 l 1
 176 691 l 1
 159 420 l 1
 71 420 l 1
262 420 m 1
 245 691 l 1
 368 691 l 1
 350 420 l 1
 262 420 l 1
EndSplineSet
EndChar
StartChar: numbersign
Encoding: 35 35 2124
Width: 539
Flags: MW
HStem: 0 21G<55 161 55 55 286 393 286 286> 152 88<15 75 15 86 193 306 425 487> 443 89<52 113 52 125 232 345 463 524>
VStem: 15 509<152 443 240 443>
LayerCount: 2
Back
Fore
SplineSet
524 443 m 1
 452 443 l 1
 425 240 l 1
 487 240 l 1
 487 152 l 1
 413 152 l 1
 393 0 l 1
 286 0 l 1
 306 152 l 1
 182 152 l 1
 161 0 l 1
 55 0 l 1
 75 152 l 1
 15 152 l 1
 15 240 l 1
 86 240 l 1
 113 443 l 1
 52 443 l 1
 52 532 l 1
 125 532 l 1
 143 673 l 1
 250 673 l 1
 232 532 l 1
 356 532 l 1
 375 673 l 1
 482 673 l 1
 463 532 l 1
 524 532 l 1
 524 443 l 1
318 240 m 1
 345 443 l 1
 220 443 l 1
 193 240 l 1
 318 240 l 1
EndSplineSet
Substitution2: "'onum' Oldstyle Figures lookup 25 subtable" numbersign.osf
Substitution2: "'tnum' Tabular Numbers lookup 24 subtable" numbersign.tf
AlternateSubs2: "'aalt' Access All Alternates lookup 1 subtable" numbersign.tf numbersign.osf
EndChar

StartChar: quotesingle
Encoding: 39 39 992
Width: 230
Flags: MW
HStem: 420 271<71 159 71 71> 671 20G<53 176 176 176>
VStem: 62 105.5
LayerCount: 2
Fore
SplineSet
53 691 m 1x60
 176 691 l 1
 159 420 l 1
 71 420 l 1xa0
 53 691 l 1x60
EndSplineSet
EndChar
StartChar: parenleft
Encoding: 40 40 2154
Width: 324
Flags: MW
HStem: -152 1004<218 218>
VStem: 28 131<251 449.5 251 469>
LayerCount: 2
Back
Fore
SplineSet
218 852 m 1
 300 797 l 1
 208 665 159 549 159 350 c 0
 159 152 208 35 300 -97 c 1
 218 -152 l 1
 119 -14 28 112 28 350 c 0
 28 588 119 714 218 852 c 1
EndSplineSet
Substitution2: "'case' Case-Sensitive Forms lookup 28 subtable" parenleft.case
Substitution2: "'dnom' Denominators lookup 16 subtable" parenleft.dnom
Substitution2: "'numr' Numerators lookup 15 subtable" parenleft.numr
Substitution2: "'sups' Superscript lookup 14 subtable" uni207D
Substitution2: "'subs' Subscript lookup 13 subtable" uni208D
AlternateSubs2: "'aalt' Access All Alternates lookup 1 subtable" uni208D uni207D parenleft.numr parenleft.dnom parenleft.case
EndChar
StartChar: parenright
Encoding: 41 41 2155
Width: 324
Flags: MW
HStem: -152 1004<106 106>
VStem: 166 130<251 449.5>
LayerCount: 2
Back
Fore
SplineSet
106 852 m 1
 206 714 296 588 296 350 c 0
 296 112 206 -14 106 -152 c 1
 25 -97 l 1
 116 35 166 152 166 350 c 0
 166 549 116 665 25 797 c 1
 106 852 l 1
EndSplineSet
Substitution2: "'case' Case-Sensitive Forms lookup 28 subtable" parenright.case
Substitution2: "'dnom' Denominators lookup 16 subtable" parenright.dnom
Substitution2: "'numr' Numerators lookup 15 subtable" parenright.numr
Substitution2: "'sups' Superscript lookup 14 subtable" uni207E
Substitution2: "'subs' Subscript lookup 13 subtable" uni208E
AlternateSubs2: "'aalt' Access All Alternates lookup 1 subtable" uni208E uni207E parenright.numr parenright.dnom parenright.case
EndChar
StartChar: plus
Encoding: 43 43 2296
Width: 516
GlyphClass: 2
Flags: MW
HStem: 281 101<55 203 55 203 313 462> 515 20G<203 313 313 313>
VStem: 203 110<128 281 128 281 382 535>
LayerCount: 2
Back
Fore
SplineSet
313 535 m 1
 313 382 l 1
 462 382 l 1
 462 281 l 1
 313 281 l 1
 313 128 l 1
 203 128 l 1
 203 281 l 1
 55 281 l 1
 55 382 l 1
 203 382 l 1
 203 535 l 1
 313 535 l 1
EndSplineSet
Substitution2: "'onum' Oldstyle Figures lookup 25 subtable" plus.osf
Substitution2: "'tnum' Tabular Numbers lookup 24 subtable" plus.tf
Substitution2: "'dnom' Denominators lookup 16 subtable" plus.dnom
Substitution2: "'numr' Numerators lookup 15 subtable" plus.numr
Substitution2: "'sups' Superscript lookup 14 subtable" uni207A
Substitution2: "'subs' Subscript lookup 13 subtable" uni208A
AlternateSubs2: "'aalt' Access All Alternates lookup 1 subtable" uni208A uni207A plus.numr plus.dnom plus.tf plus.osf
EndChar
StartChar: hyphen
Encoding: 45 45 2166
Width: 405
Flags: MW
HStem: 262 102<52 354 52 354>
VStem: 52 302<262 364 262 364>
LayerCount: 2
Back
Fore
SplineSet
52 262 m 1
 52 364 l 1
 354 364 l 1
 354 262 l 1
 52 262 l 1
EndSplineSet
Substitution2: "'case' Case-Sensitive Forms lookup 28 subtable" hyphen.case
Substitution2: "'aalt' Access All Alternates lookup 0 subtable" hyphen.case
EndChar
StartChar: slash
Encoding: 47 47 2132
Width: 520
Flags: MW
HStem: -108 920<199 322>
VStem: 88 344
LayerCount: 2
Back
Fore
SplineSet
322 812 m 1
 432 787 l 1
 199 -108 l 1
 88 -82 l 1
 322 812 l 1
EndSplineSet
Substitution2: "'frac' Diagonal Fractions lookup 17 subtable" fraction
Substitution2: "'aalt' Access All Alternates lookup 0 subtable" fraction
EndChar
StartChar: zero
Encoding: 48 48 2011
Width: 573
Flags: MW
HStem: -15 97<249 323 249 365.5> 588 97<249 323>
VStem: 45 132<242 429 242 448> 395 132<241 430.5>
LayerCount: 2
Back
Fore
SplineSet
286 685 m 0
 445 685 527 560 527 336 c 0
 527 111 445 -15 286 -15 c 0
 128 -15 45 111 45 336 c 0
 45 560 128 685 286 685 c 0
286 588 m 0
 212 588 177 522 177 336 c 0
 177 148 212 82 286 82 c 0
 360 82 395 146 395 336 c 0
 395 525 360 588 286 588 c 0
EndSplineSet
Substitution2: "'zero' Slashed Zero lookup 31 subtable" zero.zero
Substitution2: "'onum' Oldstyle Figures lookup 25 subtable" zero.osf
Substitution2: "'tnum' Tabular Numbers lookup 24 subtable" zero.tf
Substitution2: "'frac' Diagonal Fractions lookup 18 subtable" zero.numr
Substitution2: "'dnom' Denominators lookup 16 subtable" zero.dnom
Substitution2: "'numr' Numerators lookup 15 subtable" zero.numr
Substitution2: "'sups' Superscript lookup 14 subtable" uni2070
Substitution2: "'subs' Subscript lookup 13 subtable" uni2080
AlternateSubs2: "'aalt' Access All Alternates lookup 1 subtable" uni2080 uni2070 zero.numr zero.dnom zero.tf zero.osf zero.zero
EndChar
StartChar: one
Encoding: 49 49 2012
Width: 450
Flags: MW
HStem: 0 21G<229 355 229 229> 519 20G<23 23>
VStem: 229 126<0 544 544 544>
LayerCount: 2
Back
Fore
SplineSet
355 673 m 1
 355 0 l 1
 229 0 l 1
 229 544 l 1
 79 453 l 1
 23 539 l 1
 242 673 l 1
 355 673 l 1
EndSplineSet
Substitution2: "'onum' Oldstyle Figures lookup 25 subtable" one.osf
Substitution2: "'tnum' Tabular Numbers lookup 24 subtable" one.tf
Substitution2: "'frac' Diagonal Fractions lookup 18 subtable" one.numr
Substitution2: "'dnom' Denominators lookup 16 subtable" one.dnom
Substitution2: "'numr' Numerators lookup 15 subtable" one.numr
Substitution2: "'sups' Superscript lookup 14 subtable" uni00B9
Substitution2: "'subs' Subscript lookup 13 subtable" uni2081
AlternateSubs2: "'aalt' Access All Alternates lookup 1 subtable" uni2081 uni00B9 one.numr one.dnom one.tf one.osf
EndChar

StartChar: two
Encoding: 50 50 879
Width: 507
Flags: MW
HStem: 0 101<179 453> 555 20G<15 15> 584 101<196.5 252>
VStem: 320 132<439 517>
LayerCount: 2
Fore
SplineSet
233 685 m 0
 372 685 452 601 452 496 c 0
 452 382 387 299 179 101 c 1
 467 101 l 1
 453 0 l 1
 34 0 l 1
 34 94 l 1
 264 328 320 391 320 486 c 0
 320 548 281 584 223 584 c 0
 170 584 135 562 94 513 c 1
 15 575 l 1
 69 645 140 685 233 685 c 0
EndSplineSet
Substitution2: "'onum' Oldstyle Figures lookup 22 subtable" two.osf
Substitution2: "'tnum' Tabular Numbers lookup 21 subtable" two.tf
Substitution2: "'frac' Diagonal Fractions lookup 16 subtable" two.numr
Substitution2: "'dnom' Denominators lookup 14 subtable" two.dnom
Substitution2: "'numr' Numerators lookup 13 subtable" two.numr
Substitution2: "'sups' Superscript lookup 12 subtable" twosuperior
Substitution2: "'subs' Subscript lookup 11 subtable" twoinferior
AlternateSubs2: "'aalt' Access All Alternates lookup 1 subtable" twoinferior twosuperior two.numr two.dnom two.tf two.osf
EndChar
StartChar: three
Encoding: 51 51 2014
Width: 510
Flags: MW
HStem: -15 100<189.5 252 189.5 300> 306 91<176 212 212 214 161 212> 587 98<195 251>
VStem: 320 125<472 526.5> 335 132<163 238>
LayerCount: 2
Back
Fore
SplineSet
232 685 m 0xf0
 371 685 445 607 445 514 c 0xf0
 445 430 393 377 314 356 c 1
 398 348 467 296 467 192 c 0
 467 77 377 -15 223 -15 c 0
 131 -15 57 19 5 82 c 1
 76 150 l 1
 121 105 163 85 216 85 c 0
 288 85 335 128 335 198 c 0xe8
 335 278 290 306 214 306 c 2
 161 306 l 1
 176 397 l 1
 212 397 l 2
 275 397 320 433 320 499 c 0
 320 554 281 587 221 587 c 0
 169 587 128 568 86 528 c 1
 21 599 l 1
 81 656 151 685 232 685 c 0xf0
EndSplineSet
Substitution2: "'onum' Oldstyle Figures lookup 25 subtable" three.osf
Substitution2: "'tnum' Tabular Numbers lookup 24 subtable" three.tf
Substitution2: "'frac' Diagonal Fractions lookup 18 subtable" three.numr
Substitution2: "'dnom' Denominators lookup 16 subtable" three.dnom
Substitution2: "'numr' Numerators lookup 15 subtable" three.numr
Substitution2: "'sups' Superscript lookup 14 subtable" uni00B3
Substitution2: "'subs' Subscript lookup 13 subtable" uni2083
AlternateSubs2: "'aalt' Access All Alternates lookup 1 subtable" uni2083 uni00B3 three.numr three.dnom three.tf three.osf
EndChar

StartChar: four
Encoding: 52 52 881
Width: 550
Flags: MW
HStem: 0 21G<319 444 319 319> 154 98<166 319 444 525>
VStem: 319 125<0 154 0 154>
LayerCount: 2
Fore
SplineSet
525 154 m 1
 444 154 l 1
 444 0 l 1
 319 0 l 1
 319 154 l 1
 33 154 l 1
 33 242 l 1
 229 686 l 1
 338 645 l 1
 166 252 l 1
 320 252 l 1
 333 421 l 1
 444 421 l 1
 444 252 l 1
 525 252 l 1
 525 154 l 1
EndSplineSet
Substitution2: "'onum' Oldstyle Figures lookup 22 subtable" four.osf
Substitution2: "'tnum' Tabular Numbers lookup 21 subtable" four.tf
Substitution2: "'frac' Diagonal Fractions lookup 16 subtable" four.numr
Substitution2: "'dnom' Denominators lookup 14 subtable" four.dnom
Substitution2: "'numr' Numerators lookup 13 subtable" four.numr
Substitution2: "'sups' Superscript lookup 12 subtable" foursuperior
Substitution2: "'subs' Subscript lookup 11 subtable" fourinferior
AlternateSubs2: "'aalt' Access All Alternates lookup 1 subtable" fourinferior foursuperior four.numr four.dnom four.tf four.osf
EndChar

StartChar: five
Encoding: 53 53 882
Width: 520
Flags: MW
HStem: -15 99<200 265.5 200 307> 344 92<272.5 273> 578 95<187 439 187 187>
VStem: 64 123<411 578 411 673 411 673> 350 132<175.5 265.5>
LayerCount: 2
Fore
SplineSet
439 578 m 1
 187 578 l 1
 187 411 l 1
 221 428 256 436 289 436 c 0
 401 436 482 356 482 219 c 0
 482 81 383 -15 231 -15 c 0
 137 -15 71 23 19 80 c 1
 93 149 l 1
 129 107 172 84 228 84 c 0
 303 84 350 132 350 219 c 0
 350 312 304 344 242 344 c 0
 211 344 186 337 155 321 c 1
 64 321 l 1
 64 673 l 1
 454 673 l 1
 439 578 l 1
EndSplineSet
Substitution2: "'onum' Oldstyle Figures lookup 22 subtable" five.osf
Substitution2: "'tnum' Tabular Numbers lookup 21 subtable" five.tf
Substitution2: "'frac' Diagonal Fractions lookup 16 subtable" five.numr
Substitution2: "'dnom' Denominators lookup 14 subtable" five.dnom
Substitution2: "'numr' Numerators lookup 13 subtable" five.numr
Substitution2: "'sups' Superscript lookup 12 subtable" fivesuperior
Substitution2: "'subs' Subscript lookup 11 subtable" fiveinferior
AlternateSubs2: "'aalt' Access All Alternates lookup 1 subtable" fiveinferior fivesuperior five.numr five.dnom five.tf five.osf
EndChar
StartChar: six
Encoding: 54 54 2017
Width: 550
Flags: MW
HStem: -15 95<249.5 322 249.5 356> 355 93<300 325.5> 590 95<280 341>
VStem: 45 133 389 129<183 275>
LayerCount: 2
Back
Fore
SplineSet
328 448 m 0
 433 448 518 372 518 229 c 0
 518 88 424 -15 288 -15 c 0
 116 -15 45 118 45 311 c 0
 45 536 150 685 321 685 c 0
 380 685 429 668 468 642 c 1
 420 563 l 1
 391 580 359 590 323 590 c 0
 237 590 184 509 177 374 c 1
 220 426 272 448 328 448 c 0
288 80 m 0
 356 80 389 139 389 227 c 0
 389 323 354 355 297 355 c 0
 250 355 209 328 178 285 c 1
 180 141 211 80 288 80 c 0
EndSplineSet
Substitution2: "'onum' Oldstyle Figures lookup 25 subtable" six.osf
Substitution2: "'tnum' Tabular Numbers lookup 24 subtable" six.tf
Substitution2: "'frac' Diagonal Fractions lookup 18 subtable" six.numr
Substitution2: "'dnom' Denominators lookup 16 subtable" six.dnom
Substitution2: "'numr' Numerators lookup 15 subtable" six.numr
Substitution2: "'sups' Superscript lookup 14 subtable" uni2076
Substitution2: "'subs' Subscript lookup 13 subtable" uni2086
AlternateSubs2: "'aalt' Access All Alternates lookup 1 subtable" uni2086 uni2076 six.numr six.dnom six.tf six.osf
EndChar
StartChar: seven
Encoding: 55 55 2018
Width: 457
Flags: MW
HStem: -13 21G<185 185> 574 99<18 302 18 434>
VStem: 18 416<583 673 583 673 583 673>
LayerCount: 2
Back
Fore
SplineSet
434 673 m 1
 434 583 l 1
 185 -13 l 1
 68 25 l 1
 302 574 l 1
 18 574 l 1
 18 673 l 1
 434 673 l 1
EndSplineSet
Substitution2: "'onum' Oldstyle Figures lookup 25 subtable" seven.osf
Substitution2: "'tnum' Tabular Numbers lookup 24 subtable" seven.tf
Substitution2: "'frac' Diagonal Fractions lookup 18 subtable" seven.numr
Substitution2: "'dnom' Denominators lookup 16 subtable" seven.dnom
Substitution2: "'numr' Numerators lookup 15 subtable" seven.numr
Substitution2: "'sups' Superscript lookup 14 subtable" uni2077
Substitution2: "'subs' Subscript lookup 13 subtable" uni2087
AlternateSubs2: "'aalt' Access All Alternates lookup 1 subtable" uni2087 uni2077 seven.numr seven.dnom seven.tf seven.osf
EndChar
StartChar: eight
Encoding: 56 56 2019
Width: 567
Flags: MW
HStem: -15 95<248 321.5 248 357.5> 595 90<255 315.5>
VStem: 37 129<151 213.5 151 220.5> 64 124<477.5 535.5 477.5 563> 380 124<483 533.5> 401 130<152 212.5>
LayerCount: 2
Back
Fore
SplineSet
393 361 m 1xe4
 485 320 531 261 531 181 c 0
 531 71 434 -15 281 -15 c 0
 130 -15 37 70 37 179 c 0xe4
 37 262 85 315 165 349 c 1
 93 389 64 443 64 508 c 0
 64 618 164 685 284 685 c 0
 403 685 504 625 504 513 c 0xd8
 504 451 469 400 393 361 c 1xe4
284 595 m 0xd8
 226 595 188 565 188 506 c 0
 188 449 224 424 289 400 c 2
 309 393 l 1
 361 426 380 459 380 507 c 0
 380 560 347 595 284 595 c 0xd8
284 80 m 0xe4
 359 80 401 123 401 181 c 0
 401 244 368 272 278 305 c 2
 248 315 l 1
 193 287 166 244 166 183 c 0
 166 119 212 80 284 80 c 0xe4
EndSplineSet
Substitution2: "'onum' Oldstyle Figures lookup 25 subtable" eight.osf
Substitution2: "'tnum' Tabular Numbers lookup 24 subtable" eight.tf
Substitution2: "'frac' Diagonal Fractions lookup 18 subtable" eight.numr
Substitution2: "'dnom' Denominators lookup 16 subtable" eight.dnom
Substitution2: "'numr' Numerators lookup 15 subtable" eight.numr
Substitution2: "'sups' Superscript lookup 14 subtable" uni2078
Substitution2: "'subs' Subscript lookup 13 subtable" uni2088
AlternateSubs2: "'aalt' Access All Alternates lookup 1 subtable" uni2088 uni2078 eight.numr eight.dnom eight.tf eight.osf
EndChar

StartChar: nine
Encoding: 57 57 886
Width: 544
Flags: MW
HStem: 238 93<232 256.5> 590 95<236.5 306.5>
VStem: 35 128<413 502 413 527.5> 374 131
LayerCount: 2
Fore
SplineSet
269 685 m 0
 425 685 505 579 505 424 c 0
 505 147 383 39 113 -25 c 1
 86 66 l 1
 254 110 350 175 368 308 c 1
 336 267 289 238 224 238 c 0
 120 238 35 321 35 457 c 0
 35 598 139 685 269 685 c 0
259 331 m 0
 305 331 344 356 374 400 c 1
 376 539 344 590 269 590 c 0
 204 590 163 545 163 459 c 0
 163 367 205 331 259 331 c 0
EndSplineSet
Substitution2: "'onum' Oldstyle Figures lookup 22 subtable" nine.osf
Substitution2: "'tnum' Tabular Numbers lookup 21 subtable" nine.tf
Substitution2: "'frac' Diagonal Fractions lookup 16 subtable" nine.numr
Substitution2: "'dnom' Denominators lookup 14 subtable" nine.dnom
Substitution2: "'numr' Numerators lookup 13 subtable" nine.numr
Substitution2: "'sups' Superscript lookup 12 subtable" ninesuperior
Substitution2: "'subs' Subscript lookup 11 subtable" nineinferior
AlternateSubs2: "'aalt' Access All Alternates lookup 1 subtable" nineinferior ninesuperior nine.numr nine.dnom nine.tf nine.osf
EndChar
StartChar: less
Encoding: 60 60 2259
Width: 510
GlyphClass: 2
Flags: MW
HStem: 101 464<427 427>
VStem: 42 427<198 392 198 392>
LayerCount: 2
Back
Fore
SplineSet
427 565 m 1
 469 470 l 1
 148 333 l 1
 469 198 l 1
 427 101 l 1
 42 273 l 1
 42 392 l 1
 427 565 l 1
EndSplineSet
Substitution2: "'onum' Oldstyle Figures lookup 25 subtable" less.osf
Substitution2: "'tnum' Tabular Numbers lookup 24 subtable" less.tf
AlternateSubs2: "'aalt' Access All Alternates lookup 1 subtable" less.tf less.osf
EndChar

StartChar: equal
Encoding: 61 61 1093
Width: 510
Flags: MW
HStem: 179 102<55 456 55 456> 382 101<55 456 55 456>
VStem: 55 401<179 281 179 281 382 483 179 483>
LayerCount: 2
Fore
SplineSet
55 483 m 1
 456 483 l 1
 456 382 l 1
 55 382 l 1
 55 483 l 1
55 281 m 1
 456 281 l 1
 456 179 l 1
 55 179 l 1
 55 281 l 1
EndSplineSet
Substitution2: "'onum' Oldstyle Figures lookup 22 subtable" equal.osf
Substitution2: "'tnum' Tabular Numbers lookup 21 subtable" equal.tf
Substitution2: "'dnom' Denominators lookup 14 subtable" equal.dnom
Substitution2: "'numr' Numerators lookup 13 subtable" equal.numr
Substitution2: "'sups' Superscript lookup 12 subtable" equalsuperior
AlternateSubs2: "'aalt' Access All Alternates lookup 1 subtable" equalsuperior equal.numr equal.dnom equal.tf equal.osf
EndChar
StartChar: greater
Encoding: 62 62 2254
Width: 510
GlyphClass: 2
Flags: MW
HStem: 101 464<84 84>
VStem: 42 427<198 392 273 470>
LayerCount: 2
Back
Fore
SplineSet
84 565 m 1
 469 392 l 1
 469 273 l 1
 84 101 l 1
 42 198 l 1
 362 333 l 1
 42 470 l 1
 84 565 l 1
EndSplineSet
Substitution2: "'onum' Oldstyle Figures lookup 25 subtable" greater.osf
Substitution2: "'tnum' Tabular Numbers lookup 24 subtable" greater.tf
AlternateSubs2: "'aalt' Access All Alternates lookup 1 subtable" greater.tf greater.osf
EndChar

StartChar: C
Encoding: 67 67 14
Width: 568
GlyphClass: 2
Flags: MW
HStem: -15 106<303.5 382.5 303.5 394> 604 102<303.5 375>
VStem: 43 139<256 440.5 256 463>
AnchorPoint: "Anchor-11" 344 0 basechar 0
AnchorPoint: "Anchor-10" 0 0 basechar 0
AnchorPoint: "Anchor-9" 351 691 basechar 0
AnchorPoint: "Anchor-8" 0 0 basechar 0
LayerCount: 2
Fore
SplineSet
343 706 m 0
 434 706 491 680 547 633 c 1
 479 554 l 1
 440 587 399 604 351 604 c 0
 256 604 182 534 182 347 c 0
 182 165 254 91 353 91 c 0
 412 91 453 119 493 149 c 1
 555 69 l 1
 513 26 441 -15 347 -15 c 0
 168 -15 43 112 43 347 c 0
 43 579 175 706 343 706 c 0
EndSplineSet
Substitution2: "'c2sc' Capitals to Small Capitals lookup 23 subtable" c.sc
Substitution2: "'aalt' Access All Alternates lookup 0 subtable" c.sc
Position2: "'cpsp' Capital Spacing lookup 0 subtable" dx=5 dy=0 dh=10 dv=0
EndChar
StartChar: D
Encoding: 68 68 52
Width: 648
GlyphClass: 2
Flags: MW
HStem: 0 99<213 269> 592 99<213 251 251 274 213 213>
VStem: 81 132<99 592 99 691 99 691> 466 139<247 453>
AnchorPoint: "Anchor-14" 325 346 basechar 0
AnchorPoint: "Anchor-13" 0 0 basechar 0
AnchorPoint: "Anchor-12" 299 691 basechar 0
AnchorPoint: "Anchor-11" 0 0 basechar 0
AnchorPoint: "Anchor-10" 303 0 basechar 0
LayerCount: 2
Back
Fore
SplineSet
251 691 m 2
 433 691 605 635 605 349 c 0
 605 69 434 0 269 0 c 2
 81 0 l 1
 81 691 l 1
 251 691 l 2
274 592 m 2
 213 592 l 1
 213 99 l 1
 278 99 l 2
 381 99 466 145 466 349 c 0
 466 557 376 592 274 592 c 2
EndSplineSet
Substitution2: "'c2sc' Capitals to Small Capitals lookup 26 subtable" d.sc
Substitution2: "'aalt' Access All Alternates lookup 0 subtable" d.sc
Position2: "'cpsp' Capital Spacing lookup 0 subtable" dx=5 dy=0 dh=10 dv=0
EndChar

StartChar: F
Encoding: 70 70 34
Width: 489
GlyphClass: 2
Flags: MW
HStem: 0 21G<81 213 81 81> 288 98<213 426 213 426> 593 98<213 458 213 213>
VStem: 81 132<0 288 386 593>
LayerCount: 2
Fore
SplineSet
458 593 m 1
 213 593 l 1
 213 386 l 1
 426 386 l 1
 426 288 l 1
 213 288 l 1
 213 0 l 1
 81 0 l 1
 81 691 l 1
 472 691 l 1
 458 593 l 1
EndSplineSet
Substitution2: "'c2sc' Capitals to Small Capitals lookup 23 subtable" f.sc
Substitution2: "'aalt' Access All Alternates lookup 0 subtable" f.sc
Position2: "'cpsp' Capital Spacing lookup 0 subtable" dx=5 dy=0 dh=10 dv=0
EndChar
StartChar: G
Encoding: 71 71 98
Width: 638
GlyphClass: 2
Flags: MW
HStem: -15 101<292 365.5 292 390> 293 98<352 456 352 352> 606 100<315 393.5>
VStem: 43 139<251.5 439 251.5 463> 456 130<113 293 293 293>
AnchorPoint: "Anchor-14" 0 0 basechar 0
AnchorPoint: "Anchor-13" 0 0 basechar 0
AnchorPoint: "Anchor-12" 353 691 basechar 0
AnchorPoint: "Anchor-11" 0 0 basechar 0
AnchorPoint: "Anchor-10" 345 0 basechar 0
LayerCount: 2
Back
Fore
SplineSet
358 706 m 0
 456 706 522 675 580 625 c 1
 508 550 l 1
 462 588 423 606 364 606 c 0
 266 606 182 532 182 346 c 0
 182 157 238 86 346 86 c 0
 385 86 423 94 456 113 c 1
 456 293 l 1
 352 293 l 1
 338 391 l 1
 586 391 l 1
 586 53 l 1
 519 11 437 -15 343 -15 c 0
 151 -15 43 109 43 346 c 0
 43 580 188 706 358 706 c 0
EndSplineSet
Substitution2: "'c2sc' Capitals to Small Capitals lookup 26 subtable" g.sc
Substitution2: "'aalt' Access All Alternates lookup 0 subtable" g.sc
Position2: "'cpsp' Capital Spacing lookup 0 subtable" dx=5 dy=0 dh=10 dv=0
EndChar
StartChar: H
Encoding: 72 72 109
Width: 672
GlyphClass: 2
Flags: MW
HStem: 0 21G<81 213 81 81 459 592 459 459> 309 105<213 459 213 459> 671 20G<81 213 213 213 459 592 592 592>
VStem: 81 132<0 309 0 414 414 691> 459 133<0 309 309 309 414 691 0 691>
AnchorPoint: "Anchor-14" 336 346 basechar 0
AnchorPoint: "Anchor-13" 0 0 basechar 0
AnchorPoint: "Anchor-12" 336 691 basechar 0
AnchorPoint: "Anchor-11" 0 0 basechar 0
AnchorPoint: "Anchor-10" 336 0 basechar 0
LayerCount: 2
Back
Fore
SplineSet
459 0 m 1
 459 309 l 1
 213 309 l 1
 213 0 l 1
 81 0 l 1
 81 691 l 1
 213 691 l 1
 213 414 l 1
 459 414 l 1
 459 691 l 1
 592 691 l 1
 592 0 l 1
 459 0 l 1
EndSplineSet
Substitution2: "'c2sc' Capitals to Small Capitals lookup 26 subtable" h.sc
Substitution2: "'aalt' Access All Alternates lookup 0 subtable" h.sc
Position2: "'cpsp' Capital Spacing lookup 0 subtable" dx=5 dy=0 dh=10 dv=0
EndChar

StartChar: I
Encoding: 73 73 43
Width: 295
GlyphClass: 2
Flags: MW
HStem: 0 21G<81 214 81 81> 671 20G<81 214 214 214>
VStem: 81 133<0 691>
AnchorPoint: "Anchor-11" 0 0 basechar 0
AnchorPoint: "Anchor-10" 74 691 basechar 0
AnchorPoint: "Anchor-9" 147 691 basechar 0
AnchorPoint: "Anchor-8" 208 0 basechar 0
LayerCount: 2
Fore
SplineSet
214 0 m 1
 81 0 l 1
 81 691 l 1
 214 691 l 1
 214 0 l 1
EndSplineSet
Substitution2: "'c2sc' Capitals to Small Capitals lookup 23 subtable" i.sc
Substitution2: "'aalt' Access All Alternates lookup 0 subtable" i.sc
Position2: "'cpsp' Capital Spacing lookup 0 subtable" dx=5 dy=0 dh=10 dv=0
EndChar

StartChar: J
Encoding: 74 74 54
Width: 312
GlyphClass: 2
Flags: MW
HStem: 671 20G<102 235 235 235>
VStem: 102 133<106 691>
AnchorPoint: "Anchor-11" 0 0 basechar 0
AnchorPoint: "Anchor-10" 0 0 basechar 0
AnchorPoint: "Anchor-9" 169 691 basechar 0
AnchorPoint: "Anchor-8" 0 0 basechar 0
LayerCount: 2
Fore
SplineSet
235 101 m 2
 235 -60 146 -118 32 -155 c 1
 -3 -60 l 1
 87 -25 102 19 102 106 c 2
 102 691 l 1
 235 691 l 1
 235 101 l 2
EndSplineSet
Substitution2: "'c2sc' Capitals to Small Capitals lookup 23 subtable" j.sc
Substitution2: "'aalt' Access All Alternates lookup 0 subtable" j.sc
Position2: "'cpsp' Capital Spacing lookup 0 subtable" dx=5 dy=0 dh=10 dv=0
EndChar

StartChar: K
Encoding: 75 75 56
Width: 613
GlyphClass: 2
Flags: MW
HStem: 0 21G<81 213 81 81 463 463 463 620> 671 20G<81 213 213 213 458 601 601 601>
VStem: 81 132<0 691>
AnchorPoint: "Anchor-11" 320 0 basechar 0
AnchorPoint: "Anchor-10" 0 0 basechar 0
AnchorPoint: "Anchor-9" 329 691 basechar 0
AnchorPoint: "Anchor-8" 0 0 basechar 0
LayerCount: 2
Fore
SplineSet
213 0 m 1
 81 0 l 1
 81 691 l 1
 213 691 l 1
 213 0 l 1
362 378 m 1
 620 0 l 1
 463 0 l 1
 219 369 l 1
 458 691 l 1
 601 691 l 1
 362 378 l 1
EndSplineSet
Substitution2: "'c2sc' Capitals to Small Capitals lookup 23 subtable" k.sc
Substitution2: "'aalt' Access All Alternates lookup 0 subtable" k.sc
Position2: "'cpsp' Capital Spacing lookup 0 subtable" dx=5 dy=0 dh=10 dv=0
EndChar

StartChar: L
Encoding: 76 76 58
Width: 506
GlyphClass: 2
Flags: MW
HStem: 0 108<213 475> 671 20G<81 213 213 213>
VStem: 81 132<108 108 108 691>
AnchorPoint: "Anchor-11" 278 0 basechar 0
AnchorPoint: "Anchor-10" 0 0 basechar 0
AnchorPoint: "Anchor-9" 147 691 basechar 0
AnchorPoint: "Anchor-8" 0 0 basechar 0
LayerCount: 2
Fore
SplineSet
213 108 m 1
 490 108 l 1
 475 0 l 1
 81 0 l 1
 81 691 l 1
 213 691 l 1
 213 108 l 1
EndSplineSet
Substitution2: "'c2sc' Capitals to Small Capitals lookup 23 subtable" l.sc
Substitution2: "'aalt' Access All Alternates lookup 0 subtable" l.sc
Position2: "'cpsp' Capital Spacing lookup 0 subtable" dx=5 dy=0 dh=10 dv=0
EndChar
StartChar: N
Encoding: 78 78 159
Width: 672
GlyphClass: 2
Flags: MW
HStem: 0 21G<81 201 81 81 420 591 420 420> 0 131<489 489 489 591 420 489> 559 132<183 183> 671 20G<81 248 248 248 471 591 591 591>
VStem: 81 120<0 282 0 691> 471 120<367 691 0 691>
AnchorPoint: "Anchor-14" 0 0 basechar 0
AnchorPoint: "Anchor-13" 0 0 basechar 0
AnchorPoint: "Anchor-12" 344 691 basechar 0
AnchorPoint: "Anchor-11" 0 0 basechar 0
AnchorPoint: "Anchor-10" 337 0 basechar 0
LayerCount: 2
Back
Fore
SplineSet
591 691 m 1x9c
 591 0 l 1
 420 0 l 1
 183 559 l 1xac
 190 498 201 410 201 282 c 2
 201 0 l 1
 81 0 l 1
 81 691 l 1
 248 691 l 1
 489 131 l 1x5c
 483 169 471 269 471 367 c 2
 471 691 l 1
 591 691 l 1x9c
EndSplineSet
Substitution2: "'c2sc' Capitals to Small Capitals lookup 26 subtable" n.sc
Substitution2: "'aalt' Access All Alternates lookup 0 subtable" n.sc
Position2: "'cpsp' Capital Spacing lookup 0 subtable" dx=5 dy=0 dh=10 dv=0
EndChar

StartChar: O
Encoding: 79 79 71
Width: 691
GlyphClass: 2
Flags: MW
HStem: -15 101<295.5 397.5 295.5 438.5> 605 101<294.5 398>
VStem: 43 139<252 438 252 458.5> 509 139<252.5 438.5>
AnchorPoint: "Anchor-11" 0 0 basechar 0
AnchorPoint: "Anchor-10" 110 691 basechar 0
AnchorPoint: "Anchor-9" 348 691 basechar 0
AnchorPoint: "Anchor-8" 0 0 basechar 0
LayerCount: 2
Fore
SplineSet
346 706 m 0
 531 706 648 577 648 346 c 0
 648 118 531 -15 346 -15 c 0
 161 -15 43 114 43 345 c 0
 43 572 161 706 346 706 c 0
346 605 m 0
 243 605 182 531 182 345 c 0
 182 159 245 86 346 86 c 0
 449 86 509 159 509 346 c 0
 509 531 450 605 346 605 c 0
EndSplineSet
Substitution2: "Single Substitution lookup 30 subtable" ordmasculine
Substitution2: "'c2sc' Capitals to Small Capitals lookup 23 subtable" o.sc
AlternateSubs2: "'aalt' Access All Alternates lookup 1 subtable" ordmasculine o.sc
Position2: "'cpsp' Capital Spacing lookup 0 subtable" dx=5 dy=0 dh=10 dv=0
EndChar
StartChar: P
Encoding: 80 80 218
Width: 591
GlyphClass: 2
Flags: MW
HStem: 0 21G<81 213 81 81> 241 99<213 284 284 294 213 284> 594 97<213 284 213 213>
VStem: 81 132<0 241 0 340 340 594> 427 138<420.5 514.5>
AnchorPoint: "Anchor-14" 0 0 basechar 0
AnchorPoint: "Anchor-13" 0 0 basechar 0
AnchorPoint: "Anchor-12" 296 691 basechar 0
AnchorPoint: "Anchor-11" 0 0 basechar 0
AnchorPoint: "Anchor-10" 296 0 basechar 0
LayerCount: 2
Back
Fore
SplineSet
285 691 m 2
 459 691 565 620 565 471 c 0
 565 312 450 241 294 241 c 2
 213 241 l 1
 213 0 l 1
 81 0 l 1
 81 691 l 1
 285 691 l 2
284 340 m 2
 372 340 427 370 427 471 c 0
 427 558 374 594 284 594 c 2
 213 594 l 1
 213 340 l 1
 284 340 l 2
EndSplineSet
Substitution2: "'c2sc' Capitals to Small Capitals lookup 26 subtable" p.sc
Substitution2: "'aalt' Access All Alternates lookup 0 subtable" p.sc
Position2: "'cpsp' Capital Spacing lookup 0 subtable" dx=5 dy=0 dh=10 dv=0
EndChar
StartChar: T
Encoding: 84 84 247
Width: 530
GlyphClass: 2
Flags: MW
HStem: 0 21G<198 331 198 198> 586 105<12 198 12 525 331 511 331 331>
VStem: 198 133<0 586 0 586>
AnchorPoint: "Anchor-14" 265 346 basechar 0
AnchorPoint: "Anchor-13" 0 0 basechar 0
AnchorPoint: "Anchor-12" 265 691 basechar 0
AnchorPoint: "Anchor-11" 0 0 basechar 0
AnchorPoint: "Anchor-10" 265 0 basechar 0
LayerCount: 2
Back
Fore
SplineSet
525 691 m 1
 511 586 l 1
 331 586 l 1
 331 0 l 1
 198 0 l 1
 198 586 l 1
 12 586 l 1
 12 691 l 1
 525 691 l 1
EndSplineSet
Substitution2: "'c2sc' Capitals to Small Capitals lookup 26 subtable" t.sc
Substitution2: "'aalt' Access All Alternates lookup 0 subtable" t.sc
Position2: "'cpsp' Capital Spacing lookup 0 subtable" dx=5 dy=0 dh=10 dv=0
EndChar

StartChar: U
Encoding: 85 85 101
Width: 656
GlyphClass: 2
Flags: MW
HStem: -15 103<284.5 370 284.5 411.5> 671 20G<71 203 203 203 452 585 585 585>
VStem: 71 132<226 233 233 691> 452 133<233 691>
AnchorPoint: "Anchor-11" 0 0 basechar 0
AnchorPoint: "Anchor-10" 0 0 basechar 0
AnchorPoint: "Anchor-9" 328 691 basechar 0
AnchorPoint: "Anchor-8" 439 0 basechar 0
LayerCount: 2
Fore
SplineSet
585 226 m 2
 585 87 496 -15 327 -15 c 0
 157 -15 71 84 71 226 c 2
 71 691 l 1
 203 691 l 1
 203 233 l 2
 203 136 242 88 327 88 c 0
 413 88 452 136 452 233 c 2
 452 691 l 1
 585 691 l 1
 585 226 l 2
EndSplineSet
Substitution2: "'c2sc' Capitals to Small Capitals lookup 23 subtable" u.sc
Substitution2: "'aalt' Access All Alternates lookup 0 subtable" u.sc
Position2: "'cpsp' Capital Spacing lookup 0 subtable" dx=5 dy=0 dh=10 dv=0
EndChar
StartChar: V
Encoding: 86 86 291
Width: 564
GlyphClass: 2
Flags: MW
HStem: 0 21G<206 363 206 206> 0 117<287 287 287 363 206 287> 671 20G<-5 137 137 137 433 568 568 568>
VStem: -5 573<691 691>
LayerCount: 2
Back
Fore
SplineSet
568 691 m 1xb0
 363 0 l 1
 206 0 l 1
 -5 691 l 1
 137 691 l 1
 287 117 l 1x70
 433 691 l 1
 568 691 l 1xb0
EndSplineSet
Substitution2: "'c2sc' Capitals to Small Capitals lookup 26 subtable" v.sc
Substitution2: "'aalt' Access All Alternates lookup 0 subtable" v.sc
Position2: "'cpsp' Capital Spacing lookup 0 subtable" dx=5 dy=0 dh=10 dv=0
EndChar
StartChar: W
Encoding: 87 87 294
Width: 837
GlyphClass: 2
Flags: MW
HStem: 0 105<236 236 236 309 142 236> 551 140<417 417> 671 20G<17 148 148 148 349 489 489 489 696 821 821 821>
VStem: 17 804<691 691>
AnchorPoint: "Anchor-14" 0 0 basechar 0
AnchorPoint: "Anchor-13" 0 0 basechar 0
AnchorPoint: "Anchor-12" 419 691 basechar 0
AnchorPoint: "Anchor-11" 0 0 basechar 0
AnchorPoint: "Anchor-10" 0 0 basechar 0
LayerCount: 2
Back
Fore
SplineSet
821 691 m 1xb0
 694 0 l 1
 522 0 l 1
 417 551 l 1xd0
 309 0 l 1
 142 0 l 1
 17 691 l 1
 148 691 l 1
 236 105 l 1
 349 691 l 1
 489 691 l 1
 600 105 l 1
 696 691 l 1
 821 691 l 1xb0
EndSplineSet
Substitution2: "'c2sc' Capitals to Small Capitals lookup 26 subtable" w.sc
Substitution2: "'aalt' Access All Alternates lookup 0 subtable" w.sc
Position2: "'cpsp' Capital Spacing lookup 0 subtable" dx=5 dy=0 dh=10 dv=0
EndChar

StartChar: Z
Encoding: 90 90 124
Width: 534
GlyphClass: 2
Flags: MW
HStem: 0 108<177 485> 586 105<56 348 56 496>
VStem: 23 476<0 108 101 108>
AnchorPoint: "Anchor-11" 0 0 basechar 0
AnchorPoint: "Anchor-10" 0 0 basechar 0
AnchorPoint: "Anchor-9" 274 691 basechar 0
AnchorPoint: "Anchor-8" 0 0 basechar 0
LayerCount: 2
Fore
SplineSet
496 589 m 1
 177 108 l 1
 499 108 l 1
 485 0 l 1
 23 0 l 1
 23 101 l 1
 348 586 l 1
 56 586 l 1
 56 691 l 1
 496 691 l 1
 496 589 l 1
EndSplineSet
Substitution2: "'c2sc' Capitals to Small Capitals lookup 23 subtable" z.sc
Substitution2: "'aalt' Access All Alternates lookup 0 subtable" z.sc
Position2: "'cpsp' Capital Spacing lookup 0 subtable" dx=5 dy=0 dh=10 dv=0
EndChar

StartChar: bracketleft
Encoding: 91 91 1005
Width: 323
Flags: MW
HStem: -120 99<169 287 169 287> 720 100<169 287 169 169>
VStem: 48 121<-21 720 -21 820 -21 820>
LayerCount: 2
Fore
SplineSet
287 720 m 1
 169 720 l 1
 169 -21 l 1
 287 -21 l 1
 287 -120 l 1
 48 -120 l 1
 48 820 l 1
 287 820 l 1
 287 720 l 1
EndSplineSet
Substitution2: "'case' Case-Sensitive Forms lookup 25 subtable" bracketleft.case
Substitution2: "'aalt' Access All Alternates lookup 0 subtable" bracketleft.case
EndChar

StartChar: backslash
Encoding: 92 92 979
Width: 520
Flags: MW
HStem: -108 920<198 321>
VStem: 88 344
LayerCount: 2
Fore
SplineSet
432 -82 m 1
 321 -108 l 1
 88 787 l 1
 198 812 l 1
 432 -82 l 1
EndSplineSet
EndChar
StartChar: bracketright
Encoding: 93 93 2143
Width: 323
Flags: MW
HStem: -120 99<36 154 36 275 36 154> 721 99<36 154 36 275>
VStem: 154 121<-21 721 721 721>
LayerCount: 2
Back
Fore
SplineSet
275 820 m 1
 275 -120 l 1
 36 -120 l 1
 36 -21 l 1
 154 -21 l 1
 154 721 l 1
 36 721 l 1
 36 820 l 1
 275 820 l 1
EndSplineSet
Substitution2: "'case' Case-Sensitive Forms lookup 28 subtable" bracketright.case
Substitution2: "'aalt' Access All Alternates lookup 0 subtable" bracketright.case
EndChar

StartChar: grave
Encoding: 96 96 1257
Width: 322
Flags: MW
HStem: 675 20G<292 292>
VStem: 30 262<695 720>
LayerCount: 2
Fore
SplineSet
292 695 m 1
 255 630 l 1
 30 720 l 1
 82 820 l 1
 292 695 l 1
EndSplineSet
Substitution2: "'case' Case-Sensitive Forms lookup 25 subtable" grave.case
Substitution2: "'smcp' Lowercase to Small Capitals lookup 24 subtable" grave.sc
Substitution2: "'c2sc' Capitals to Small Capitals lookup 23 subtable" grave.sc
AlternateSubs2: "'aalt' Access All Alternates lookup 1 subtable" grave.sc grave.case
EndChar
StartChar: b
Encoding: 98 98 371
Width: 596
GlyphClass: 2
Flags: MW
HStem: -15 96<309 336 283.5 403> 0 21G<77 190 77 77> 448 96<319.5 340.5> 721 20G<77 77> 735 20G<205 205>
VStem: 77 128<142 376 470 741 741 741> 413 134<198.5 335.5>
AnchorPoint: "Anchor-14" 0 0 basechar 0
AnchorPoint: "Anchor-13" 0 0 basechar 0
AnchorPoint: "Anchor-12" 316 741 basechar 0
AnchorPoint: "Anchor-11" 0 0 basechar 0
AnchorPoint: "Anchor-10" 308 0 basechar 0
LayerCount: 2
Back
Fore
SplineSet
349 544 m 0xae
 475 544 547 442 547 265 c 0
 547 100 468 -15 338 -15 c 0
 280 -15 232 11 198 54 c 1xae
 190 0 l 1
 77 0 l 1
 77 741 l 1x76
 205 755 l 1
 205 470 l 1
 239 516 290 544 349 544 c 0xae
304 81 m 0
 368 81 413 132 413 265 c 0
 413 406 371 448 310 448 c 0
 264 448 230 417 205 376 c 1
 205 142 l 1
 229 105 263 81 304 81 c 0
EndSplineSet
Substitution2: "'smcp' Lowercase to Small Capitals lookup 27 subtable" b.sc
Substitution2: "'aalt' Access All Alternates lookup 0 subtable" b.sc
EndChar
StartChar: d
Encoding: 100 100 391
Width: 599
GlyphClass: 2
Flags: MW
HStem: -15 97<253.5 283.5> 0 21G<409 522 409 409> 448 96<260.5 290 196 315> 721 20G<522 522> 735 20G<394 394>
VStem: 48 135<197 328.5 197 345.5> 394 128<150 392 392 392 487 741 0 755 0 755>
AnchorPoint: "Anchor-14" 302 265 basechar 0
AnchorPoint: "Anchor-13" 532 741 basechar 0
AnchorPoint: "Anchor-12" 299 741 basechar 0
AnchorPoint: "Anchor-11" 0 0 basechar 0
AnchorPoint: "Anchor-10" 308 0 basechar 0
LayerCount: 2
Back
Fore
SplineSet
394 755 m 1xae
 522 741 l 1
 522 0 l 1
 409 0 l 1x76
 400 67 l 1
 368 19 318 -15 249 -15 c 0
 117 -15 48 96 48 264 c 0
 48 427 129 544 263 544 c 0
 317 544 361 521 394 487 c 1
 394 755 l 1xae
285 82 m 0xae
 332 82 364 105 394 150 c 1
 394 392 l 1
 366 427 336 448 294 448 c 0
 227 448 183 392 183 265 c 0
 183 129 222 82 285 82 c 0xae
EndSplineSet
Substitution2: "'smcp' Lowercase to Small Capitals lookup 27 subtable" d.sc
Substitution2: "'aalt' Access All Alternates lookup 0 subtable" d.sc
EndChar

StartChar: h
Encoding: 104 104 173
Width: 581
GlyphClass: 2
Flags: MW
HStem: 0 21G<77 205 77 77 381 509 381 381> 448 96<327 335.5> 720 20G<77 77> 733 20G<205 205>
VStem: 77 128<0 369 0 466 466 740 740 740> 381 128<0 363 363 383 0 396>
AnchorPoint: "Anchor-11" 0 0 basechar 0
AnchorPoint: "Anchor-10" 0 0 basechar 0
AnchorPoint: "Anchor-9" 290 741 basechar 0
AnchorPoint: "Anchor-8" 0 0 basechar 0
LayerCount: 2
Fore
SplineSet
359 544 m 0xdc
 453 544 509 483 509 383 c 2
 509 0 l 1
 381 0 l 1
 381 363 l 2
 381 429 355 448 316 448 c 0
 271 448 236 417 205 369 c 1
 205 0 l 1
 77 0 l 1
 77 740 l 1xec
 205 753 l 1
 205 466 l 1
 246 516 295 544 359 544 c 0xdc
EndSplineSet
Substitution2: "'smcp' Lowercase to Small Capitals lookup 24 subtable" h.sc
Substitution2: "'aalt' Access All Alternates lookup 0 subtable" h.sc
EndChar

StartChar: i
Encoding: 105 105 176
Width: 282
GlyphClass: 2
Flags: MW
HStem: 0 21G<77 205 77 77> 509 20G<77 205 205 205> 642 155<116.5 164>
VStem: 60 161<697.5 741> 77 128<0 529>
AnchorPoint: "Anchor-11" 0 0 basechar 0
AnchorPoint: "Anchor-10" 0 0 basechar 0
AnchorPoint: "Anchor-9" 141 529 basechar 0
AnchorPoint: "Anchor-8" 201 0 basechar 0
LayerCount: 2
Fore
SplineSet
140 797 m 0xf0
 188 797 221 763 221 719 c 0
 221 676 188 642 140 642 c 0
 93 642 60 676 60 719 c 0
 60 763 93 797 140 797 c 0xf0
205 0 m 1xe8
 77 0 l 1
 77 529 l 1
 205 529 l 1
 205 0 l 1xe8
EndSplineSet
Substitution2: "'smcp' Lowercase to Small Capitals lookup 24 subtable" i.sc
Substitution2: "'locl' Localized Forms in Latin lookup 10 subtable" i.loclTRK
Substitution2: "'locl' Localized Forms in Latin lookup 8 subtable" i.loclTRK
Substitution2: "'locl' Localized Forms in Latin lookup 6 subtable" i.loclTRK
Substitution2: "'locl' Localized Forms in Latin lookup 3 subtable" i.loclTRK
Substitution2: "'locl' Localized Forms in Latin lookup 2 subtable" i.loclTRK
AlternateSubs2: "'aalt' Access All Alternates lookup 1 subtable" i.loclTRK i.sc
EndChar
StartChar: j
Encoding: 106 106 498
Width: 281
GlyphClass: 2
Flags: MW
HStem: -217 21G<11 11> 509 20G<76 204 204 204> 642 155<116.5 164>
VStem: 60 161<697.5 741> 76 128<39 47 47 529>
AnchorPoint: "Anchor-14" 0 0 basechar 0
AnchorPoint: "Anchor-13" 0 0 basechar 0
AnchorPoint: "Anchor-12" 143 797 basechar 0
AnchorPoint: "Anchor-11" 0 0 basechar 0
AnchorPoint: "Anchor-10" 140 -206 basechar 0
LayerCount: 2
Back
Fore
SplineSet
140 797 m 0xf0
 188 797 221 763 221 719 c 0
 221 676 188 642 140 642 c 0
 93 642 60 676 60 719 c 0
 60 763 93 797 140 797 c 0xf0
204 529 m 1xe8
 204 47 l 2
 204 -115 130 -169 11 -217 c 1
 -30 -124 l 1
 39 -92 76 -65 76 39 c 2
 76 529 l 1
 204 529 l 1xe8
EndSplineSet
Substitution2: "'smcp' Lowercase to Small Capitals lookup 27 subtable" j.sc
Substitution2: "'aalt' Access All Alternates lookup 0 subtable" j.sc
EndChar

StartChar: k
Encoding: 107 107 191
Width: 534
GlyphClass: 2
Flags: MW
HStem: 0 21G<77 205 77 77 392 392 392 539> 509 20G<387 522 522 522> 721 20G<77 77> 735 20G<205 205>
VStem: 77 128<0 741 741 741>
AnchorPoint: "Anchor-11" 266 0 basechar 0
AnchorPoint: "Anchor-10" 0 0 basechar 0
AnchorPoint: "Anchor-9" 0 0 basechar 0
AnchorPoint: "Anchor-8" 0 0 basechar 0
LayerCount: 2
Fore
SplineSet
205 0 m 1xd8
 77 0 l 1
 77 741 l 1xe8
 205 755 l 1
 205 0 l 1xd8
346 296 m 1
 539 0 l 1
 392 0 l 1
 210 289 l 1
 387 529 l 1
 522 529 l 1
 346 296 l 1
EndSplineSet
Substitution2: "'smcp' Lowercase to Small Capitals lookup 24 subtable" k.sc
Substitution2: "'aalt' Access All Alternates lookup 0 subtable" k.sc
EndChar

StartChar: l
Encoding: 108 108 194
Width: 295
GlyphClass: 2
Flags: MW
HStem: -15 21G<156.5 212.5> -15 103<156.5 235> 721 20G<72 72> 735 20G<200 200>
VStem: 72 128<120 129 129 741 741 741>
AnchorPoint: "Anchor-11" 160 0 basechar 0
AnchorPoint: "Anchor-10" 0 0 basechar 0
AnchorPoint: "Anchor-9" 136 741 basechar 0
AnchorPoint: "Anchor-8" 0 0 basechar 0
LayerCount: 2
Fore
SplineSet
200 129 m 2x58
 200 100 209 88 230 88 c 0
 240 88 251 90 260 93 c 1x58
 287 3 l 1
 261 -8 229 -15 196 -15 c 0
 117 -15 72 32 72 120 c 2
 72 741 l 1xa8
 200 755 l 1
 200 129 l 2x58
EndSplineSet
Substitution2: "'smcp' Lowercase to Small Capitals lookup 24 subtable" l.sc
Substitution2: "'aalt' Access All Alternates lookup 0 subtable" l.sc
EndChar
StartChar: m
Encoding: 109 109 530
Width: 850
GlyphClass: 2
Flags: MW
HStem: 0 21G<77 205 77 77 364 492 364 364 650 778 650 650> 448 96<317.5 321.5 603 608> 509 20G<77 188 188 188>
VStem: 77 128<0 368 0 529> 364 128<0 363 363 368 0 396> 650 128<0 363 363 383 0 396>
AnchorPoint: "Anchor-14" 0 0 basechar 0
AnchorPoint: "Anchor-13" 0 0 basechar 0
AnchorPoint: "Anchor-12" 426 529 basechar 0
AnchorPoint: "Anchor-11" 0 0 basechar 0
AnchorPoint: "Anchor-10" 426 0 basechar 0
LayerCount: 2
Back
Fore
SplineSet
638 544 m 0xdc
 722 544 778 483 778 383 c 2
 778 0 l 1
 650 0 l 1
 650 363 l 2
 650 429 624 448 592 448 c 0
 548 448 521 417 492 368 c 1
 492 0 l 1
 364 0 l 1
 364 363 l 2
 364 429 337 448 306 448 c 0
 261 448 234 417 205 368 c 1xdc
 205 0 l 1
 77 0 l 1
 77 529 l 1
 188 529 l 1xbc
 198 460 l 1
 236 513 284 544 351 544 c 0
 412 544 459 512 480 455 c 1
 520 511 568 544 638 544 c 0xdc
EndSplineSet
Substitution2: "'smcp' Lowercase to Small Capitals lookup 27 subtable" m.sc
Substitution2: "'aalt' Access All Alternates lookup 0 subtable" m.sc
EndChar

StartChar: n
Encoding: 110 110 201
Width: 581
GlyphClass: 2
Flags: MW
HStem: 0 21G<77 205 77 77 381 509 381 381> 448 96<325.5 336> 509 20G<77 188 188 188>
VStem: 77 128<0 368 0 529> 381 128<0 363 363 383 0 396>
AnchorPoint: "Anchor-11" 291 0 basechar 0
AnchorPoint: "Anchor-10" 0 0 basechar 0
AnchorPoint: "Anchor-9" 296 529 basechar 0
AnchorPoint: "Anchor-8" 0 0 basechar 0
LayerCount: 2
Fore
SplineSet
359 544 m 0xd8
 454 544 509 484 509 383 c 2
 509 0 l 1
 381 0 l 1
 381 363 l 2
 381 429 356 448 316 448 c 0
 270 448 236 417 205 368 c 1xd8
 205 0 l 1
 77 0 l 1
 77 529 l 1
 188 529 l 1xb8
 198 460 l 1
 239 513 292 544 359 544 c 0xd8
EndSplineSet
Substitution2: "'smcp' Lowercase to Small Capitals lookup 24 subtable" n.sc
Substitution2: "'aalt' Access All Alternates lookup 0 subtable" n.sc
EndChar

StartChar: q
Encoding: 113 113 222
Width: 594
GlyphClass: 2
Flags: MW
HStem: -218 21G<517 517> -204 21G<389 389> -15 97<248.5 276> 448 96<255.5 286.5 191 310.5> 509 20G<406 517 517 517>
VStem: 43 135<197 328.5 197 345.5> 389 128<-204 59 59 59 150 392 392 392>
LayerCount: 2
Fore
SplineSet
517 529 m 1x6e
 517 -218 l 1xb6
 389 -204 l 1
 389 59 l 1
 357 15 308 -15 244 -15 c 0
 112 -15 43 96 43 264 c 0
 43 427 124 544 258 544 c 0
 315 544 361 519 399 477 c 1x76
 406 529 l 1
 517 529 l 1x6e
280 82 m 0
 327 82 359 105 389 150 c 1
 389 392 l 1
 361 426 332 448 289 448 c 0
 222 448 178 392 178 265 c 0
 178 129 217 82 280 82 c 0
EndSplineSet
Substitution2: "'smcp' Lowercase to Small Capitals lookup 24 subtable" q.sc
Substitution2: "'aalt' Access All Alternates lookup 0 subtable" q.sc
EndChar

StartChar: r
Encoding: 114 114 223
Width: 394
GlyphClass: 2
Flags: MW
HStem: 0 21G<77 205 77 77> 418 125<307 331> 509 20G<77 188 188 188> 536 7
VStem: 77 128<0 282 0 529>
AnchorPoint: "Anchor-11" 141 0 basechar 0
AnchorPoint: "Anchor-10" 0 0 basechar 0
AnchorPoint: "Anchor-9" 236 529 basechar 0
AnchorPoint: "Anchor-8" 0 0 basechar 0
LayerCount: 2
Fore
SplineSet
338 543 m 0xc8
 357 543 374 541 391 536 c 1x98
 369 412 l 1
 353 416 340 418 322 418 c 0xc8
 258 418 225 371 205 282 c 1
 205 0 l 1
 77 0 l 1
 77 529 l 1
 188 529 l 1xa8
 200 425 l 1
 225 501 276 543 338 543 c 0xc8
EndSplineSet
Substitution2: "'smcp' Lowercase to Small Capitals lookup 24 subtable" r.sc
Substitution2: "'aalt' Access All Alternates lookup 0 subtable" r.sc
EndChar

StartChar: v
Encoding: 118 118 250
Width: 504
GlyphClass: 2
Flags: MW
HStem: 0 21G<177 330 177 177> 0 103<254 254 254 330 177 254> 509 20G<2 141 141 141 370 502 502 502>
VStem: 2 500<529 529>
LayerCount: 2
Fore
SplineSet
330 0 m 1xb0
 177 0 l 1
 2 529 l 1
 141 529 l 1
 254 103 l 1x70
 370 529 l 1
 502 529 l 1
 330 0 l 1xb0
EndSplineSet
Substitution2: "'smcp' Lowercase to Small Capitals lookup 24 subtable" v.sc
Substitution2: "'aalt' Access All Alternates lookup 0 subtable" v.sc
EndChar
StartChar: x
Encoding: 120 120 702
Width: 500
GlyphClass: 2
Flags: MW
HStem: 0 21G<-3 138 -3 -3 355 503 355 355> 509 20G<15 161 161 161 340 479 479 479>
VStem: -3 506<0 0>
AnchorPoint: "Anchor-14" 0 0 basechar 0
AnchorPoint: "Anchor-13" 0 0 basechar 0
AnchorPoint: "Anchor-12" 251 529 basechar 0
AnchorPoint: "Anchor-11" 0 0 basechar 0
AnchorPoint: "Anchor-10" 246 0 basechar 0
LayerCount: 2
Back
Fore
SplineSet
326 283 m 1
 503 0 l 1
 355 0 l 1
 246 210 l 1
 138 0 l 1
 -3 0 l 1
 173 279 l 1
 15 529 l 1
 161 529 l 1
 251 349 l 1
 340 529 l 1
 479 529 l 1
 326 283 l 1
EndSplineSet
Substitution2: "'smcp' Lowercase to Small Capitals lookup 27 subtable" x.sc
Substitution2: "'sups' Superscript lookup 14 subtable" uni02E3
AlternateSubs2: "'aalt' Access All Alternates lookup 1 subtable" uni02E3 x.sc
EndChar

StartChar: z
Encoding: 122 122 262
Width: 449
GlyphClass: 2
Flags: MW
HStem: 0 100<165 413> 429 100<40 275 40 421>
VStem: 18 408<0 100 92 100>
AnchorPoint: "Anchor-11" 0 0 basechar 0
AnchorPoint: "Anchor-10" 0 0 basechar 0
AnchorPoint: "Anchor-9" 226 529 basechar 0
AnchorPoint: "Anchor-8" 0 0 basechar 0
LayerCount: 2
Fore
SplineSet
421 437 m 1
 165 100 l 1
 426 100 l 1
 413 0 l 1
 18 0 l 1
 18 92 l 1
 275 429 l 1
 40 429 l 1
 40 529 l 1
 421 529 l 1
 421 437 l 1
EndSplineSet
Substitution2: "'smcp' Lowercase to Small Capitals lookup 24 subtable" z.sc
Substitution2: "'aalt' Access All Alternates lookup 0 subtable" z.sc
EndChar

StartChar: bar
Encoding: 124 124 1216
Width: 388
Flags: MW
HStem: -104 913<135 253 135 253>
VStem: 135 118<-104 809>
LayerCount: 2
Fore
SplineSet
253 -104 m 1
 135 -104 l 1
 135 809 l 1
 253 809 l 1
 253 -104 l 1
EndSplineSet
EndChar

StartChar: asciitilde
Encoding: 126 126 1087
Width: 502
Flags: MW
HStem: 240 98<313 353 313 369> 301 97<150 190>
VStem: 25 452<285 349>
LayerCount: 2
Fore
SplineSet
175 398 m 0x60
 259 398 290 338 336 338 c 0
 370 338 386 360 402 389 c 1
 477 349 l 1
 451 297 408 240 330 240 c 0xa0
 244 240 212 301 168 301 c 0
 132 301 116 275 100 246 c 1
 25 285 l 1
 51 337 95 398 175 398 c 0x60
EndSplineSet
Substitution2: "'onum' Oldstyle Figures lookup 22 subtable" asciitilde.osf
Substitution2: "'tnum' Tabular Numbers lookup 21 subtable" asciitilde.tf
AlternateSubs2: "'aalt' Access All Alternates lookup 1 subtable" asciitilde.tf asciitilde.osf
EndChar

StartChar: exclamdown
Encoding: 161 161 986
Width: 241
Flags: MW
HStem: -204 21G<52 190 52 52> 341 162<98 143.5>
VStem: 39 162<399.5 444> 60 122
LayerCount: 2
Fore
SplineSet
121 503 m 0xe0
 166 503 201 466 201 422 c 0
 201 377 166 341 121 341 c 0
 75 341 39 377 39 422 c 0
 39 466 75 503 121 503 c 0xe0
190 -204 m 1xd0
 52 -204 l 1
 68 241 l 1
 174 241 l 1
 190 -204 l 1xd0
EndSplineSet
Substitution2: "'case' Case-Sensitive Forms lookup 25 subtable" exclamdown.case
Substitution2: "'aalt' Access All Alternates lookup 0 subtable" exclamdown.case
EndChar
StartChar: cent
Encoding: 162 162 2198
Width: 478
GlyphClass: 2
Flags: MW
HStem: -158 247<262 318 262 338 239 318> -11 21G<338 338> -10 21G<239 239> 443 245<261 318> 520 20G<240 240 338 338>
VStem: 43 136<198 325.5 198 335> 240 98<540 688>
LayerCount: 2
Back
Fore
SplineSet
405 127 m 1x96
 462 46 l 1
 426 17 385 -3 338 -11 c 1x4e
 338 -158 l 1
 239 -158 l 1x8e
 239 -10 l 1
 117 11 43 111 43 260 c 0
 43 410 118 517 240 540 c 1x2e
 240 688 l 1
 338 688 l 1x36
 338 540 l 1
 385 533 425 514 462 482 c 1x2e
 405 405 l 1
 370 431 338 443 298 443 c 0
 224 443 179 389 179 262 c 0
 179 134 226 89 298 89 c 0
 338 89 366 102 405 127 c 1x96
EndSplineSet
Substitution2: "'onum' Oldstyle Figures lookup 25 subtable" cent.osf
Substitution2: "'tnum' Tabular Numbers lookup 24 subtable" cent.tf
AlternateSubs2: "'aalt' Access All Alternates lookup 1 subtable" cent.tf cent.osf
EndChar
StartChar: yen
Encoding: 165 165 2238
Width: 554
GlyphClass: 2
Flags: MW
HStem: 0 196<78 341 78 213> 124 72<78 213 78 213 341 477> 276 73<78 182 78 213 78 182 372 477>
VStem: 213 128<0 124 0 124 196 276>
LayerCount: 2
Back
Fore
SplineSet
555 673 m 1xb0
 372 349 l 1
 477 349 l 1
 477 276 l 1
 341 276 l 1
 341 196 l 1
 477 196 l 1xb0
 477 124 l 1
 341 124 l 1x70
 341 0 l 1
 213 0 l 1xb0
 213 124 l 1
 78 124 l 1x70
 78 196 l 1
 213 196 l 1
 213 276 l 1
 78 276 l 1
 78 349 l 1
 182 349 l 1
 -2 673 l 1
 136 673 l 1
 280 385 l 1
 422 673 l 1
 555 673 l 1xb0
EndSplineSet
Substitution2: "'onum' Oldstyle Figures lookup 25 subtable" yen.osf
Substitution2: "'tnum' Tabular Numbers lookup 24 subtable" yen.tf
AlternateSubs2: "'aalt' Access All Alternates lookup 1 subtable" yen.tf yen.osf
EndChar

StartChar: brokenbar
Encoding: 166 166 1217
Width: 388
Flags: MW
HStem: -104 913<135 253 135 253>
VStem: 135 118<-104 262 443 809>
LayerCount: 2
Fore
SplineSet
253 443 m 1
 135 443 l 1
 135 809 l 1
 253 809 l 1
 253 443 l 1
253 -104 m 1
 135 -104 l 1
 135 262 l 1
 253 262 l 1
 253 -104 l 1
EndSplineSet
EndChar
StartChar: dieresis
Encoding: 168 168 2529
Width: 422
Flags: MW
HStem: 647 138<81 120.5 302.5 342>
VStem: 30 140<696.5 735.5> 252 140<696.5 735.5>
LayerCount: 2
Back
Fore
SplineSet
101 785 m 0
 140 785 170 755 170 716 c 0
 170 677 140 647 101 647 c 0
 61 647 30 677 30 716 c 0
 30 755 61 785 101 785 c 0
322 785 m 0
 362 785 392 755 392 716 c 0
 392 677 362 647 322 647 c 0
 283 647 252 677 252 716 c 0
 252 755 283 785 322 785 c 0
EndSplineSet
Substitution2: "Single Substitution lookup 41 subtable" dieresis.case
Substitution2: "'case' Case-Sensitive Forms lookup 28 subtable" dieresis.case
Substitution2: "'smcp' Lowercase to Small Capitals lookup 27 subtable" dieresis.sc
Substitution2: "'c2sc' Capitals to Small Capitals lookup 26 subtable" dieresis.sc
AlternateSubs2: "'aalt' Access All Alternates lookup 1 subtable" dieresis.sc dieresis.case
EndChar
StartChar: copyright
Encoding: 169 169 2375
Width: 810
GlyphClass: 2
Flags: MW
HStem: 109 68<334.5 477 334.5 496.5> 240 76<391 431.5 391 436> 553 75<393 429.5> 562 20G<532 532> 691 67<334.5 477>
VStem: 78 78<361.5 504.5 361.5 523.5> 238 96<392.5 477 392.5 495.5> 655 77<361.5 504.5>
LayerCount: 2
Back
Fore
SplineSet
406 758 m 0xdf
 587 758 732 614 732 433 c 0
 732 253 587 109 406 109 c 0
 225 109 78 253 78 433 c 0
 78 614 225 758 406 758 c 0xdf
406 691 m 0
 263 691 156 576 156 433 c 0
 156 290 263 177 406 177 c 0
 548 177 655 290 655 433 c 0
 655 576 548 691 406 691 c 0
408 628 m 0xef
 459 628 498 611 532 582 c 1xdf
 489 526 l 1
 465 546 443 553 416 553 c 0
 370 553 334 520 334 434 c 0
 334 351 367 316 415 316 c 0
 448 316 472 327 497 347 c 1
 536 290 l 1
 504 261 463 240 409 240 c 0
 307 240 238 309 238 434 c 0
 238 557 313 628 408 628 c 0xef
EndSplineSet
EndChar
StartChar: guillemotleft
Encoding: 171 171 2175
Width: 604
Flags: MW
HStem: 25 522<228 228 228 481>
VStem: 45 514<77 327 77 327>
LayerCount: 2
Back
Fore
SplineSet
481 547 m 1
 559 494 l 1
 427 286 l 1
 559 77 l 1
 481 25 l 1
 298 244 l 1
 298 327 l 1
 481 547 l 1
228 547 m 1
 306 494 l 1
 174 286 l 1
 306 77 l 1
 228 25 l 1
 45 244 l 1
 45 327 l 1
 228 547 l 1
EndSplineSet
Substitution2: "'case' Case-Sensitive Forms lookup 28 subtable" guillemotleft.case
Substitution2: "'aalt' Access All Alternates lookup 0 subtable" guillemotleft.case
EndChar
StartChar: logicalnot
Encoding: 172 172 2261
Width: 517
GlyphClass: 2
Flags: MW
HStem: 275 102<55 353 55 462>
VStem: 353 109<126 275 275 275>
LayerCount: 2
Back
Fore
SplineSet
462 377 m 1
 462 126 l 1
 353 126 l 1
 353 275 l 1
 55 275 l 1
 55 377 l 1
 462 377 l 1
EndSplineSet
Substitution2: "'onum' Oldstyle Figures lookup 25 subtable" logicalnot.osf
Substitution2: "'tnum' Tabular Numbers lookup 24 subtable" logicalnot.tf
AlternateSubs2: "'aalt' Access All Alternates lookup 1 subtable" logicalnot.tf logicalnot.osf
EndChar
StartChar: uni00AD
Encoding: 173 173 2168
Width: 405
Flags: MW
HStem: 262 102<52 354 52 354>
VStem: 52 302<262 364 262 364>
LayerCount: 2
Back
Fore
SplineSet
52 262 m 1
 52 364 l 1
 354 364 l 1
 354 262 l 1
 52 262 l 1
EndSplineSet
Substitution2: "'case' Case-Sensitive Forms lookup 28 subtable" uni00AD.case
Substitution2: "'aalt' Access All Alternates lookup 0 subtable" uni00AD.case
EndChar

StartChar: registered
Encoding: 174 174 1222
Width: 639
Flags: MW
HStem: 224 59<262 377.5 262 395> 459 52<286 309 286 315> 585 49<286 302 302 314 286 286> 696 59<262 377.5>
VStem: 54 68<430 546.5 430 563> 221 65<355 459 511 585> 364 66<535.5 561.5> 517 68<430 546.5>
LayerCount: 2
Fore
SplineSet
319 755 m 0
 471 755 585 638 585 488 c 0
 585 339 471 224 319 224 c 0
 170 224 54 339 54 488 c 0
 54 638 170 755 319 755 c 0
319 283 m 0
 436 283 517 372 517 488 c 0
 517 605 436 696 319 696 c 0
 205 696 122 605 122 488 c 0
 122 372 205 283 319 283 c 0
430 548 m 0
 430 509 404 484 369 471 c 1
 443 355 l 1
 368 355 l 1
 309 459 l 1
 286 459 l 1
 286 355 l 1
 221 355 l 1
 221 634 l 1
 302 634 l 2
 388 634 430 606 430 548 c 0
286 511 m 1
 315 511 l 2
 344 511 364 522 364 549 c 0
 364 574 347 585 314 585 c 2
 286 585 l 1
 286 511 l 1
EndSplineSet
EndChar

StartChar: macron
Encoding: 175 175 1259
Width: 351
Flags: MW
HStem: 661 91<30 321 30 321>
VStem: 30 291<661 752 661 752>
LayerCount: 2
Fore
SplineSet
30 661 m 1
 30 752 l 1
 321 752 l 1
 321 661 l 1
 30 661 l 1
EndSplineSet
Substitution2: "'case' Case-Sensitive Forms lookup 25 subtable" macron.case
Substitution2: "'smcp' Lowercase to Small Capitals lookup 24 subtable" macron.sc
Substitution2: "'c2sc' Capitals to Small Capitals lookup 23 subtable" macron.sc
AlternateSubs2: "'aalt' Access All Alternates lookup 1 subtable" macron.sc macron.case
EndChar
StartChar: degree
Encoding: 176 176 2379
Width: 522
GlyphClass: 2
Flags: MW
HStem: 375 78<196.5 240 196.5 261.5> 628 78<196.5 240>
VStem: 47 94<512.5 569.5 512.5 593.5> 296 94<512 568>
LayerCount: 2
Back
Fore
SplineSet
218 375 m 0
 133 375 47 436 47 541 c 0
 47 646 133 706 218 706 c 0
 305 706 390 646 390 540 c 0
 390 435 305 375 218 375 c 0
218 453 m 0
 262 453 296 484 296 540 c 0
 296 596 262 628 218 628 c 0
 175 628 141 598 141 541 c 0
 141 484 175 453 218 453 c 0
EndSplineSet
Substitution2: "'onum' Oldstyle Figures lookup 25 subtable" degree.osf
Substitution2: "'tnum' Tabular Numbers lookup 24 subtable" degree.tf
AlternateSubs2: "'aalt' Access All Alternates lookup 1 subtable" degree.tf degree.osf
EndChar

StartChar: plusminus
Encoding: 177 177 1115
Width: 517
Flags: MW
HStem: 0 102<55 456 55 456> 331 101<55 204 55 204 313 462>
VStem: 204 109<178 331 178 331 432 585>
LayerCount: 2
Fore
SplineSet
313 432 m 1
 462 432 l 1
 462 331 l 1
 313 331 l 1
 313 178 l 1
 204 178 l 1
 204 331 l 1
 55 331 l 1
 55 432 l 1
 204 432 l 1
 204 585 l 1
 313 585 l 1
 313 432 l 1
55 102 m 1
 456 102 l 1
 456 0 l 1
 55 0 l 1
 55 102 l 1
EndSplineSet
Substitution2: "'onum' Oldstyle Figures lookup 22 subtable" plusminus.osf
Substitution2: "'tnum' Tabular Numbers lookup 21 subtable" plusminus.tf
AlternateSubs2: "'aalt' Access All Alternates lookup 1 subtable" plusminus.tf plusminus.osf
EndChar
StartChar: acute
Encoding: 180 180 2511
Width: 322
Flags: MW
HStem: 630 190<66 240>
VStem: 30 262<695 720>
LayerCount: 2
Back
Fore
SplineSet
240 820 m 1
 292 720 l 1
 66 630 l 1
 30 695 l 1
 240 820 l 1
EndSplineSet
Substitution2: "Single Substitution lookup 41 subtable" acute.case
Substitution2: "'case' Case-Sensitive Forms lookup 28 subtable" acute.case
Substitution2: "'smcp' Lowercase to Small Capitals lookup 27 subtable" acute.sc
Substitution2: "'c2sc' Capitals to Small Capitals lookup 26 subtable" acute.sc
Substitution2: "'locl' Localized Forms in Latin lookup 7 subtable" acute.loclPLK
AlternateSubs2: "'aalt' Access All Alternates lookup 1 subtable" acute.loclPLK acute.sc acute.case
EndChar

StartChar: paragraph
Encoding: 182 182 1220
Width: 763
Flags: MW
HStem: -219 21G<309 309 524 524> -204 21G<422 422 637 637> 597 94<422 524 422 422>
VStem: 309 113<-204 272 272 272> 524 113<-204 597 597 597>
LayerCount: 2
Fore
SplineSet
637 691 m 1x78
 637 -204 l 1x78
 524 -219 l 1xb8
 524 597 l 1
 422 597 l 1
 422 -204 l 1x78
 309 -219 l 1xb8
 309 272 l 1
 150 277 76 363 76 481 c 0
 76 613 172 693 335 691 c 1
 637 691 l 1x78
EndSplineSet
EndChar

StartChar: cedilla
Encoding: 184 184 1253
Width: 300
Flags: MW
HStem: -253 75<111.5 138 111.5 173> -106 122<97 114>
VStem: 173 97<-156.5 -131>
LayerCount: 2
Fore
SplineSet
171 -52 m 1
 241 -59 270 -96 270 -144 c 0
 270 -211 213 -253 133 -253 c 0
 90 -253 53 -241 30 -225 c 1
 61 -162 l 1
 80 -172 99 -178 124 -178 c 0
 152 -178 173 -169 173 -144 c 0
 173 -118 146 -106 82 -106 c 1
 97 16 l 1
 171 16 l 1
 171 -52 l 1
EndSplineSet
Substitution2: "'case' Case-Sensitive Forms lookup 25 subtable" cedilla.case
Substitution2: "'smcp' Lowercase to Small Capitals lookup 24 subtable" cedilla.sc
Substitution2: "'c2sc' Capitals to Small Capitals lookup 23 subtable" cedilla.sc
AlternateSubs2: "'aalt' Access All Alternates lookup 1 subtable" cedilla.sc cedilla.case
EndChar

StartChar: onesuperior
Encoding: 185 185 969
Width: 400
Flags: MW
HStem: 720 20G<199 288 288 288>
VStem: 190 98<321 644 644 644>
LayerCount: 2
Fore
SplineSet
288 321 m 1
 190 321 l 1
 190 644 l 1
 95 587 l 1
 51 654 l 1
 199 740 l 1
 288 740 l 1
 288 321 l 1
EndSplineSet
EndChar

StartChar: guillemotright
Encoding: 187 187 1035
Width: 598
Flags: MW
HStem: 25 522<123 123 123 371>
VStem: 45 508<77 327 244 494>
LayerCount: 2
Fore
SplineSet
306 327 m 1
 306 244 l 1
 123 25 l 1
 45 77 l 1
 176 286 l 1
 45 494 l 1
 123 547 l 1
 306 327 l 1
553 327 m 1
 553 244 l 1
 371 25 l 1
 293 77 l 1
 424 286 l 1
 293 494 l 1
 371 547 l 1
 553 327 l 1
EndSplineSet
Substitution2: "'case' Case-Sensitive Forms lookup 25 subtable" guillemotright.case
Substitution2: "'aalt' Access All Alternates lookup 0 subtable" guillemotright.case
EndChar

StartChar: onequarter
Encoding: 188 188 926
Width: 952
Flags: MW
HStem: 0 164<687 869 687 774> 90 74<687 773 869 919> 671 20G<199 288 288 288> 735 20G<642 642>
VStem: 190 98<272 595 595 595> 773.5 95.5
LayerCount: 2
Fore
SplineSet
719 717 m 1xbc
 310 -82 l 1
 233 -44 l 1
 642 755 l 1
 719 717 l 1xbc
190 272 m 1
 190 595 l 1
 95 538 l 1
 51 605 l 1
 199 691 l 1
 288 691 l 1
 288 272 l 1
 190 272 l 1
919 90 m 1x7c
 869 90 l 1x7c
 869 0 l 1
 774 0 l 1xbc
 773 90 l 1
 584 90 l 1
 584 157 l 1x7c
 709 428 l 1
 793 397 l 1
 687 164 l 1
 774 164 l 1
 789 263 l 1
 869 263 l 1
 869 164 l 1
 919 164 l 1xbc
 919 90 l 1x7c
EndSplineSet
EndChar
StartChar: Acircumflex
Encoding: 194 194 11
Width: 583
GlyphClass: 2
Flags: MW
HStem: 0 21G<-5 132 -5 -5 447 587 447 447> 160 100<201 378 201 404 175 378> 590 101<289 289> 671 20G<210 373 373 373>
VStem: -5 592<0 0>
AnchorPoint: "Anchor-14" 0 0 basechar 0
AnchorPoint: "Anchor-13" 401 810 basechar 0
AnchorPoint: "Anchor-12" 292 933 basechar 0
AnchorPoint: "Anchor-11" 533 0 basechar 0
AnchorPoint: "Anchor-10" 292 0 basechar 0
LayerCount: 2
Back
Fore
SplineSet
291 839 m 1xd8
 161 757 l 1
 112 812 l 1
 251 933 l 1
 331 933 l 1
 470 812 l 1
 421 757 l 1
 291 839 l 1xd8
447 0 m 1
 404 160 l 1
 175 160 l 1
 132 0 l 1
 -5 0 l 1
 210 691 l 1
 373 691 l 1
 587 0 l 1
 447 0 l 1
201 260 m 1
 378 260 l 1
 289 590 l 1xe8
 201 260 l 1
EndSplineSet
Substitution2: "'c2sc' Capitals to Small Capitals lookup 26 subtable" acircumflex.sc
Substitution2: "'aalt' Access All Alternates lookup 0 subtable" acircumflex.sc
Position2: "'cpsp' Capital Spacing lookup 0 subtable" dx=5 dy=0 dh=10 dv=0
EndChar

StartChar: Atilde
Encoding: 195 195 10
Width: 583
GlyphClass: 2
Flags: MW
HStem: 0 21G<-5 132 -5 -5 447 447 447 587> 160 100<201 377 201 404 175 377> 590 101<289 289> 671 20G<210 373 373 373> 770 94<331.5 359.5 331.5 377.5> 817 93<223 252>
VStem: -5 592<0 0>
AnchorPoint: "Anchor-11" 0 0 basechar 0
AnchorPoint: "Anchor-10" 143 691 basechar 0
AnchorPoint: "Anchor-9" 292 691 basechar 0
AnchorPoint: "Anchor-8" 533 0 basechar 0
LayerCount: 2
Fore
SplineSet
235 817 m 0xd6
 211 817 198 801 182 772 c 1
 113 806 l 1
 137 863 177 910 234 910 c 0xd6
 292 910 314 864 349 864 c 0
 370 864 384 878 402 907 c 1
 470 873 l 1
 444 811 402 770 353 770 c 0xda
 291 770 269 817 235 817 c 0xd6
404 160 m 1
 175 160 l 1
 132 0 l 1
 -5 0 l 1
 210 691 l 1
 373 691 l 1
 587 0 l 1
 447 0 l 1
 404 160 l 1
377 260 m 1
 289 590 l 1xe6
 201 260 l 1
 377 260 l 1
EndSplineSet
Substitution2: "'c2sc' Capitals to Small Capitals lookup 23 subtable" atilde.sc
Substitution2: "'aalt' Access All Alternates lookup 0 subtable" atilde.sc
Position2: "'cpsp' Capital Spacing lookup 0 subtable" dx=5 dy=0 dh=10 dv=0
EndChar

StartChar: Adieresis
Encoding: 196 196 5
Width: 583
GlyphClass: 2
Flags: MW
HStem: 0 21G<-5 132 -5 -5 447 447 447 587> 160 100<201 377 201 404 175 377> 590 101<289 289> 671 20G<210 373 373 373> 773 138<160.5 200 382 421.5>
VStem: 110 140<822.5 861.5> 332 140<822.5 861.5>
AnchorPoint: "Anchor-11" 0 0 basechar 0
AnchorPoint: "Anchor-10" 143 691 basechar 0
AnchorPoint: "Anchor-9" 290 825 basechar 0
AnchorPoint: "Anchor-8" 533 0 basechar 0
LayerCount: 2
Fore
SplineSet
180 773 m 0xde
 141 773 110 803 110 842 c 0
 110 881 141 911 180 911 c 0
 220 911 250 881 250 842 c 0
 250 803 220 773 180 773 c 0xde
401 773 m 0
 363 773 332 803 332 842 c 0
 332 881 363 911 401 911 c 0
 442 911 472 881 472 842 c 0
 472 803 442 773 401 773 c 0
404 160 m 1
 175 160 l 1
 132 0 l 1
 -5 0 l 1
 210 691 l 1
 373 691 l 1
 587 0 l 1
 447 0 l 1
 404 160 l 1
377 260 m 1
 289 590 l 1xee
 201 260 l 1
 377 260 l 1
EndSplineSet
Substitution2: "'c2sc' Capitals to Small Capitals lookup 23 subtable" adieresis.sc
Substitution2: "'aalt' Access All Alternates lookup 0 subtable" adieresis.sc
Position2: "'cpsp' Capital Spacing lookup 0 subtable" dx=5 dy=0 dh=10 dv=0
EndChar
StartChar: Aring
Encoding: 197 197 29
Width: 583
GlyphClass: 2
Flags: MW
HStem: 0 21G<-5 132 -5 -5 447 587 447 447> 160 100<201 378 201 404 175 378> 590 101<289 289> 671 20G<210 373 373 373> 739 68<277 306.5 277 330.5> 912 67<277 306.5>
VStem: 164 79<842 876 842 892> 340 79<842 876>
AnchorPoint: "Anchor-14" 0 0 basechar 0
AnchorPoint: "Anchor-13" 0 0 basechar 0
AnchorPoint: "Anchor-12" 294 979 basechar 0
AnchorPoint: "Anchor-11" 533 0 basechar 0
AnchorPoint: "Anchor-10" 292 0 basechar 0
LayerCount: 2
Back
Fore
SplineSet
292 739 m 0xdf
 214 739 164 794 164 859 c 0
 164 925 214 979 292 979 c 0
 369 979 419 925 419 859 c 0
 419 794 369 739 292 739 c 0xdf
292 912 m 0
 262 912 243 893 243 859 c 0
 243 825 262 807 292 807 c 0
 321 807 340 825 340 859 c 0
 340 893 321 912 292 912 c 0
447 0 m 1
 404 160 l 1
 175 160 l 1
 132 0 l 1
 -5 0 l 1
 210 691 l 1
 373 691 l 1
 587 0 l 1
 447 0 l 1
201 260 m 1
 378 260 l 1
 289 590 l 1xef
 201 260 l 1
EndSplineSet
Substitution2: "'c2sc' Capitals to Small Capitals lookup 26 subtable" aring.sc
Substitution2: "'aalt' Access All Alternates lookup 0 subtable" aring.sc
Position2: "'cpsp' Capital Spacing lookup 0 subtable" dx=5 dy=0 dh=10 dv=0
EndChar
StartChar: AE
Encoding: 198 198 33
Width: 832
GlyphClass: 2
Flags: MW
HStem: 0 99<560 790 560 790> 160 100<214 398 214 418 179 398> 301 98<515 742 515 515> 593 98<448 736 448 448>
VStem: -18 808<0 99>
AnchorPoint: "Anchor-14" 0 0 basechar 0
AnchorPoint: "Anchor-13" 0 0 basechar 0
AnchorPoint: "Anchor-12" 479 691 basechar 0
AnchorPoint: "Anchor-11" 0 0 basechar 0
AnchorPoint: "Anchor-10" 0 0 basechar 0
LayerCount: 2
Back
Fore
SplineSet
560 99 m 1
 790 99 l 1
 790 0 l 1
 451 0 l 1
 418 160 l 1
 179 160 l 1
 122 0 l 1
 -18 0 l 1
 255 691 l 1
 751 691 l 1
 736 593 l 1
 448 593 l 1
 492 399 l 1
 742 399 l 1
 742 301 l 1
 515 301 l 1
 560 99 l 1
214 260 m 1
 398 260 l 1
 332 591 l 1
 214 260 l 1
EndSplineSet
Substitution2: "'c2sc' Capitals to Small Capitals lookup 26 subtable" ae.sc
Substitution2: "'aalt' Access All Alternates lookup 0 subtable" ae.sc
Position2: "'cpsp' Capital Spacing lookup 0 subtable" dx=5 dy=0 dh=10 dv=0
EndChar
StartChar: Ccedilla
Encoding: 199 199 47
Width: 568
GlyphClass: 2
Flags: MW
HStem: -253 75<320.5 347 320.5 382> -13 21G<380 380> -13 104<380 380> -12 21G<303 303> 604 102<303.5 375>
VStem: 43 139<256 440.5 256 463> 382 97<-156.5 -131>
AnchorPoint: "Anchor-14" 353 349 basechar 0
AnchorPoint: "Anchor-13" 0 0 basechar 0
AnchorPoint: "Anchor-12" 351 691 basechar 0
AnchorPoint: "Anchor-11" 0 0 basechar 0
AnchorPoint: "Anchor-10" 362 -253 basechar 0
LayerCount: 2
Back
Fore
SplineSet
555 69 m 1xac
 518 31 458 -5 380 -13 c 1
 380 -52 l 1xce
 450 -59 479 -96 479 -144 c 0
 479 -211 422 -253 342 -253 c 0
 299 -253 262 -241 239 -225 c 1
 270 -162 l 1
 289 -172 308 -178 333 -178 c 0
 361 -178 382 -169 382 -144 c 0
 382 -118 355 -106 291 -106 c 1
 303 -12 l 1x9e
 147 7 43 131 43 347 c 0
 43 579 175 706 343 706 c 0
 434 706 491 680 547 633 c 1
 479 554 l 1
 440 587 399 604 351 604 c 0
 256 604 182 534 182 347 c 0
 182 165 254 91 353 91 c 0
 412 91 453 119 493 149 c 1
 555 69 l 1xac
EndSplineSet
Substitution2: "'c2sc' Capitals to Small Capitals lookup 26 subtable" ccedilla.sc
Substitution2: "'aalt' Access All Alternates lookup 0 subtable" ccedilla.sc
Position2: "'cpsp' Capital Spacing lookup 0 subtable" dx=5 dy=0 dh=10 dv=0
EndChar
StartChar: Ecircumflex
Encoding: 202 202 72
Width: 530
GlyphClass: 2
Flags: MW
HStem: 0 99<213 486 213 486> 302 98<213 435 213 435> 593 98<213 468 213 213>
VStem: 81 132<99 302 400 593>
AnchorPoint: "Anchor-14" 0 0 basechar 0
AnchorPoint: "Anchor-13" 393 810 basechar 0
AnchorPoint: "Anchor-12" 284 933 basechar 0
AnchorPoint: "Anchor-11" 456 0 basechar 0
AnchorPoint: "Anchor-10" 284 0 basechar 0
LayerCount: 2
Back
Fore
SplineSet
413 757 m 1
 283 839 l 1
 153 757 l 1
 104 812 l 1
 243 933 l 1
 323 933 l 1
 462 812 l 1
 413 757 l 1
482 691 m 1
 468 593 l 1
 213 593 l 1
 213 400 l 1
 435 400 l 1
 435 302 l 1
 213 302 l 1
 213 99 l 1
 486 99 l 1
 486 0 l 1
 81 0 l 1
 81 691 l 1
 482 691 l 1
EndSplineSet
Substitution2: "'c2sc' Capitals to Small Capitals lookup 26 subtable" ecircumflex.sc
Substitution2: "'aalt' Access All Alternates lookup 0 subtable" ecircumflex.sc
Position2: "'cpsp' Capital Spacing lookup 0 subtable" dx=5 dy=0 dh=10 dv=0
EndChar
StartChar: Igrave
Encoding: 204 204 129
Width: 294
GlyphClass: 2
Flags: MW
HStem: 0 21G<81 213 81 81> 671 20G<81 213 213 213>
VStem: 81 132<0 691 0 691>
AnchorPoint: "Anchor-14" 0 0 basechar 0
AnchorPoint: "Anchor-13" 0 0 basechar 0
AnchorPoint: "Anchor-12" 147 936 basechar 0
AnchorPoint: "Anchor-11" 208 0 basechar 0
AnchorPoint: "Anchor-10" 147 0 basechar 0
LayerCount: 2
Back
Fore
SplineSet
60 936 m 1
 271 819 l 1
 238 753 l 1
 9 836 l 1
 60 936 l 1
213 691 m 1
 213 0 l 1
 81 0 l 1
 81 691 l 1
 213 691 l 1
EndSplineSet
Substitution2: "'c2sc' Capitals to Small Capitals lookup 26 subtable" igrave.sc
Substitution2: "'aalt' Access All Alternates lookup 0 subtable" igrave.sc
Position2: "'cpsp' Capital Spacing lookup 0 subtable" dx=5 dy=0 dh=10 dv=0
EndChar

StartChar: Iacute
Encoding: 205 205 45
Width: 295
GlyphClass: 2
Flags: MW
HStem: 0 21G<81 214 81 81> 671 20G<81 214 214 214>
VStem: 81 133<0 691>
AnchorPoint: "Anchor-11" 0 0 basechar 0
AnchorPoint: "Anchor-10" 74 691 basechar 0
AnchorPoint: "Anchor-9" 147 691 basechar 0
AnchorPoint: "Anchor-8" 208 0 basechar 0
LayerCount: 2
Fore
SplineSet
278 836 m 1
 49 753 l 1
 16 819 l 1
 227 936 l 1
 278 836 l 1
214 0 m 1
 81 0 l 1
 81 691 l 1
 214 691 l 1
 214 0 l 1
EndSplineSet
Substitution2: "'c2sc' Capitals to Small Capitals lookup 23 subtable" iacute.sc
Substitution2: "'aalt' Access All Alternates lookup 0 subtable" iacute.sc
Position2: "'cpsp' Capital Spacing lookup 0 subtable" dx=5 dy=0 dh=10 dv=0
EndChar

StartChar: Icircumflex
Encoding: 206 206 47
Width: 295
GlyphClass: 2
Flags: MW
HStem: 0 21G<81 214 81 81> 671 20G<81 214 214 214>
VStem: 81 133<0 691>
AnchorPoint: "Anchor-11" 0 0 basechar 0
AnchorPoint: "Anchor-10" 74 691 basechar 0
AnchorPoint: "Anchor-9" 147 691 basechar 0
AnchorPoint: "Anchor-8" 208 0 basechar 0
LayerCount: 2
Fore
SplineSet
147 839 m 1
 17 757 l 1
 -32 812 l 1
 107 933 l 1
 187 933 l 1
 326 812 l 1
 277 757 l 1
 147 839 l 1
214 0 m 1
 81 0 l 1
 81 691 l 1
 214 691 l 1
 214 0 l 1
EndSplineSet
Substitution2: "'c2sc' Capitals to Small Capitals lookup 23 subtable" icircumflex.sc
Substitution2: "'aalt' Access All Alternates lookup 0 subtable" icircumflex.sc
Position2: "'cpsp' Capital Spacing lookup 0 subtable" dx=5 dy=0 dh=10 dv=0
EndChar
StartChar: Ntilde
Encoding: 209 209 175
Width: 672
GlyphClass: 2
Flags: MW
HStem: 0 21G<81 201 81 81 420 591 420 420> 0 131<489 489 489 591 420 489> 559 132<183 183> 671 20G<81 248 248 248 471 591 591 591> 770 94<383.5 411.5 383.5 428> 817 93<275 304>
VStem: 81 120<0 282 0 691> 471 120<367 691 0 691>
AnchorPoint: "Anchor-14" 0 0 basechar 0
AnchorPoint: "Anchor-13" 0 0 basechar 0
AnchorPoint: "Anchor-12" 346 910 basechar 0
AnchorPoint: "Anchor-11" 0 0 basechar 0
AnchorPoint: "Anchor-10" 337 0 basechar 0
LayerCount: 2
Back
Fore
SplineSet
402 770 m 0x9b
 346 770 321 817 287 817 c 0
 263 817 250 801 234 772 c 1
 165 806 l 1
 189 863 229 910 285 910 c 0x97
 344 910 366 864 401 864 c 0
 422 864 436 878 454 907 c 1
 522 873 l 1
 496 811 454 770 402 770 c 0x9b
591 691 m 1x57
 591 0 l 1
 420 0 l 1
 183 559 l 1xa7
 190 498 201 410 201 282 c 2
 201 0 l 1
 81 0 l 1
 81 691 l 1
 248 691 l 1
 489 131 l 1
 483 169 471 269 471 367 c 2
 471 691 l 1
 591 691 l 1x57
EndSplineSet
Substitution2: "'c2sc' Capitals to Small Capitals lookup 26 subtable" ntilde.sc
Substitution2: "'aalt' Access All Alternates lookup 0 subtable" ntilde.sc
Position2: "'cpsp' Capital Spacing lookup 0 subtable" dx=5 dy=0 dh=10 dv=0
EndChar

StartChar: Oacute
Encoding: 211 211 72
Width: 691
GlyphClass: 2
Flags: MW
HStem: -15 101<295.5 397.5 295.5 438.5> 605 101<294.5 398>
VStem: 43 139<252 438 252 458.5> 509 139<252.5 438.5>
AnchorPoint: "Anchor-11" 0 0 basechar 0
AnchorPoint: "Anchor-10" 110 691 basechar 0
AnchorPoint: "Anchor-9" 348 691 basechar 0
AnchorPoint: "Anchor-8" 0 0 basechar 0
LayerCount: 2
Fore
SplineSet
479 836 m 1
 250 753 l 1
 217 819 l 1
 428 936 l 1
 479 836 l 1
346 706 m 0
 531 706 648 577 648 346 c 0
 648 118 531 -15 346 -15 c 0
 161 -15 43 114 43 345 c 0
 43 572 161 706 346 706 c 0
346 605 m 0
 243 605 182 531 182 345 c 0
 182 159 245 86 346 86 c 0
 449 86 509 159 509 346 c 0
 509 531 450 605 346 605 c 0
EndSplineSet
Substitution2: "'c2sc' Capitals to Small Capitals lookup 23 subtable" oacute.sc
Substitution2: "'locl' Localized Forms in Latin lookup 7 subtable" Oacute.loclPLK
AlternateSubs2: "'aalt' Access All Alternates lookup 1 subtable" Oacute.loclPLK oacute.sc
Position2: "'cpsp' Capital Spacing lookup 0 subtable" dx=5 dy=0 dh=10 dv=0
EndChar
StartChar: Otilde
Encoding: 213 213 214
Width: 691
GlyphClass: 2
Flags: MW
HStem: -15 101<295.5 397.5 295.5 438.5> 605 101<294.5 398> 770 94<385.5 413.5 385.5 430> 817 93<277 306>
VStem: 43 139<252 438 252 458.5> 509 139<252.5 438.5>
AnchorPoint: "Anchor-14" 0 0 basechar 0
AnchorPoint: "Anchor-13" 563 691 basechar 0
AnchorPoint: "Anchor-12" 348 910 basechar 0
AnchorPoint: "Anchor-11" 458 0 basechar 0
AnchorPoint: "Anchor-10" 346 0 basechar 0
LayerCount: 2
Back
Fore
SplineSet
404 770 m 0xec
 348 770 323 817 289 817 c 0
 265 817 252 801 236 772 c 1
 167 806 l 1
 191 863 231 910 287 910 c 0xdc
 346 910 368 864 403 864 c 0
 424 864 438 878 456 907 c 1
 524 873 l 1
 498 811 456 770 404 770 c 0xec
346 706 m 0xdc
 531 706 648 577 648 346 c 0
 648 118 531 -15 346 -15 c 0
 161 -15 43 114 43 345 c 0
 43 572 161 706 346 706 c 0xdc
346 605 m 0
 243 605 182 531 182 345 c 0
 182 159 245 86 346 86 c 0
 449 86 509 159 509 346 c 0
 509 531 450 605 346 605 c 0
EndSplineSet
Substitution2: "'c2sc' Capitals to Small Capitals lookup 26 subtable" otilde.sc
Substitution2: "'aalt' Access All Alternates lookup 0 subtable" otilde.sc
Position2: "'cpsp' Capital Spacing lookup 0 subtable" dx=5 dy=0 dh=10 dv=0
EndChar

StartChar: Odieresis
Encoding: 214 214 75
Width: 691
GlyphClass: 2
Flags: MW
HStem: -15 101<295.5 397.5 295.5 438.5> 605 101<294.5 398> 773 138<217.5 257 439 478.5>
VStem: 43 139<252 438 252 458.5> 167 140<822.5 861.5> 389 140<822.5 861.5> 509 139<252.5 438.5>
AnchorPoint: "Anchor-11" 0 0 basechar 0
AnchorPoint: "Anchor-10" 110 691 basechar 0
AnchorPoint: "Anchor-9" 347 825 basechar 0
AnchorPoint: "Anchor-8" 0 0 basechar 0
LayerCount: 2
Fore
SplineSet
237 911 m 0xec
 277 911 307 881 307 842 c 0
 307 803 277 773 237 773 c 0
 198 773 167 803 167 842 c 0
 167 881 198 911 237 911 c 0xec
458 911 m 0
 499 911 529 881 529 842 c 0
 529 803 499 773 458 773 c 0
 420 773 389 803 389 842 c 0
 389 881 420 911 458 911 c 0
346 706 m 0xd2
 531 706 648 577 648 346 c 0
 648 118 531 -15 346 -15 c 0
 161 -15 43 114 43 345 c 0
 43 572 161 706 346 706 c 0xd2
346 605 m 0
 243 605 182 531 182 345 c 0
 182 159 245 86 346 86 c 0
 449 86 509 159 509 346 c 0
 509 531 450 605 346 605 c 0
EndSplineSet
Substitution2: "'c2sc' Capitals to Small Capitals lookup 23 subtable" odieresis.sc
Substitution2: "'aalt' Access All Alternates lookup 0 subtable" odieresis.sc
Position2: "'cpsp' Capital Spacing lookup 0 subtable" dx=5 dy=0 dh=10 dv=0
EndChar

StartChar: multiply
Encoding: 215 215 1108
Width: 510
Flags: MW
HStem: 115 384<136 136 136 374>
VStem: 63 384<188 188 188 426>
LayerCount: 2
Fore
SplineSet
447 426 m 1
 327 307 l 1
 447 188 l 1
 374 115 l 1
 255 235 l 1
 136 115 l 1
 63 188 l 1
 183 307 l 1
 63 426 l 1
 136 499 l 1
 255 379 l 1
 374 499 l 1
 447 426 l 1
EndSplineSet
Substitution2: "'onum' Oldstyle Figures lookup 22 subtable" multiply.osf
Substitution2: "'tnum' Tabular Numbers lookup 21 subtable" multiply.tf
AlternateSubs2: "'aalt' Access All Alternates lookup 1 subtable" multiply.tf multiply.osf
EndChar
StartChar: Oslash
Encoding: 216 216 212
Width: 691
GlyphClass: 2
Flags: MW
HStem: -15 101<339 397.5 339 438.5> -10 21G<288 288> 605 101<294.5 352.5> 682 20G<402 402>
VStem: 43 139<286.5 438 286.5 458.5> 509 139<252.5 405.5>
AnchorPoint: "Anchor-14" 0 0 basechar 0
AnchorPoint: "Anchor-13" 0 0 basechar 0
AnchorPoint: "Anchor-12" 342 717 basechar 0
AnchorPoint: "Anchor-11" 0 0 basechar 0
AnchorPoint: "Anchor-10" 0 0 basechar 0
LayerCount: 2
Back
Fore
SplineSet
501 667 m 1xac
 594 613 648 503 648 346 c 0
 648 118 531 -15 346 -15 c 0xac
 326 -15 307 -13 288 -10 c 1
 252 -131 l 1
 149 -104 l 1
 189 25 l 1
 97 79 43 189 43 345 c 0
 43 572 161 706 346 706 c 0x6c
 365 706 384 705 402 702 c 1x9c
 439 824 l 1
 543 796 l 1
 501 667 l 1xac
346 605 m 0
 243 605 182 531 182 345 c 0
 182 228 203 160 240 123 c 1
 385 602 l 1
 372 604 359 605 346 605 c 0
346 86 m 0
 449 86 509 159 509 346 c 0
 509 465 488 533 450 570 c 1
 306 90 l 1
 319 87 332 86 346 86 c 0
EndSplineSet
Substitution2: "'c2sc' Capitals to Small Capitals lookup 26 subtable" oslash.sc
Substitution2: "'aalt' Access All Alternates lookup 0 subtable" oslash.sc
Position2: "'cpsp' Capital Spacing lookup 0 subtable" dx=5 dy=0 dh=10 dv=0
EndChar
StartChar: Udieresis
Encoding: 220 220 269
Width: 656
GlyphClass: 2
Flags: MW
HStem: -15 103<284.5 370 284.5 411.5> 671 20G<71 203 203 203 452 585 585 585> 773 138<197.5 237 419 458.5>
VStem: 71 132<226 233 233 691> 147 140<822.5 861.5> 369 140<822.5 861.5> 452 133<233 691>
AnchorPoint: "Anchor-14" 0 0 basechar 0
AnchorPoint: "Anchor-13" 595 691 basechar 0
AnchorPoint: "Anchor-12" 330 911 basechar 0
AnchorPoint: "Anchor-11" 439 0 basechar 0
AnchorPoint: "Anchor-10" 328 0 basechar 0
LayerCount: 2
Back
Fore
SplineSet
217 911 m 0xec
 257 911 287 881 287 842 c 0
 287 803 257 773 217 773 c 0
 178 773 147 803 147 842 c 0
 147 881 178 911 217 911 c 0xec
438 911 m 0
 479 911 509 881 509 842 c 0
 509 803 479 773 438 773 c 0
 400 773 369 803 369 842 c 0
 369 881 400 911 438 911 c 0
585 691 m 1xf2
 585 226 l 2
 585 87 496 -15 327 -15 c 0
 157 -15 71 84 71 226 c 2
 71 691 l 1
 203 691 l 1
 203 233 l 2
 203 136 242 88 327 88 c 0
 413 88 452 136 452 233 c 2
 452 691 l 1
 585 691 l 1xf2
EndSplineSet
Substitution2: "'c2sc' Capitals to Small Capitals lookup 26 subtable" udieresis.sc
Substitution2: "'aalt' Access All Alternates lookup 0 subtable" udieresis.sc
Position2: "'cpsp' Capital Spacing lookup 0 subtable" dx=5 dy=0 dh=10 dv=0
EndChar
StartChar: Yacute
Encoding: 221 221 303
Width: 574
GlyphClass: 2
Flags: MW
HStem: 0 21G<220 354 220 220> 671 20G<-2 144 144 144 436 576 576 576>
VStem: 220 134<0 261 261 261>
AnchorPoint: "Anchor-14" 0 0 basechar 0
AnchorPoint: "Anchor-13" 0 0 basechar 0
AnchorPoint: "Anchor-12" 289 936 basechar 0
AnchorPoint: "Anchor-11" 0 0 basechar 0
AnchorPoint: "Anchor-10" 287 0 basechar 0
LayerCount: 2
Back
Fore
SplineSet
367 936 m 1
 418 836 l 1
 189 753 l 1
 156 819 l 1
 367 936 l 1
576 691 m 1
 354 262 l 1
 354 0 l 1
 220 0 l 1
 220 261 l 1
 -2 691 l 1
 144 691 l 1
 290 370 l 1
 436 691 l 1
 576 691 l 1
EndSplineSet
Substitution2: "'c2sc' Capitals to Small Capitals lookup 26 subtable" yacute.sc
Substitution2: "'aalt' Access All Alternates lookup 0 subtable" yacute.sc
Position2: "'cpsp' Capital Spacing lookup 0 subtable" dx=5 dy=0 dh=10 dv=0
EndChar
StartChar: Thorn
Encoding: 222 222 222
Width: 591
GlyphClass: 2
Flags: MW
HStem: 0 21G<81 213 81 81> 120 99<213 284 284 294 213 284> 481 97<213 284 213 285> 671 20G<81 213 213 213>
VStem: 81 132<0 120 0 219 219 481 578 691> 427 138<302 400>
LayerCount: 2
Back
Fore
SplineSet
285 578 m 2
 459 578 565 507 565 355 c 0
 565 191 450 120 294 120 c 2
 213 120 l 1
 213 0 l 1
 81 0 l 1
 81 691 l 1
 213 691 l 1
 213 578 l 1
 285 578 l 2
284 219 m 2
 372 219 427 249 427 355 c 0
 427 445 374 481 284 481 c 2
 213 481 l 1
 213 219 l 1
 284 219 l 2
EndSplineSet
Substitution2: "'c2sc' Capitals to Small Capitals lookup 26 subtable" thorn.sc
Substitution2: "'aalt' Access All Alternates lookup 0 subtable" thorn.sc
Position2: "'cpsp' Capital Spacing lookup 0 subtable" dx=5 dy=0 dh=10 dv=0
EndChar
StartChar: germandbls
Encoding: 223 223 634
Width: 600
GlyphClass: 2
Flags: MW
HStem: -15 100<357.5 388 353 433> 0 21G<77 205 77 77> 661 94<265.5 316.5>
VStem: 77 128<0 536 536 538 0 604.5> 272 114<389.5 460 389.5 462.5> 370 122<556 616.5> 440 132<139 225.5>
LayerCount: 2
Back
Fore
SplineSet
297 755 m 0x74
 421 755 492 688 492 608 c 0
 492 504 386 491 386 429 c 0
 386 350 572 339 572 164 c 0
 572 52 485 -15 381 -15 c 0
 334 -15 299 -5 270 10 c 1
 308 98 l 1
 322 90 340 85 366 85 c 0
 410 85 440 112 440 166 c 0xba
 440 285 272 285 272 412 c 0
 272 513 370 509 370 595 c 0
 370 638 338 661 295 661 c 0
 236 661 205 621 205 538 c 2
 205 0 l 1
 77 0 l 1
 77 536 l 2
 77 673 155 755 297 755 c 0x74
EndSplineSet
Substitution2: "'smcp' Lowercase to Small Capitals lookup 27 subtable" germandbls.sc
Substitution2: "'aalt' Access All Alternates lookup 0 subtable" germandbls.sc
EndChar
StartChar: ae
Encoding: 230 230 368
Width: 856
GlyphClass: 2
Flags: MW
HStem: -15 93<221.5 247.5> -15 97<574 633 574 638> 225 83<479 688 479 811 479 688> 248 77<280 295 295 347 280 348> 446 98<239.5 282> 453 91<554 620.5>
VStem: 35 136<131 187.5 131 205.5> 347 132<225 355 225 389> 688 126<308 314 314 314>
AnchorPoint: "Anchor-14" 0 0 basechar 0
AnchorPoint: "Anchor-13" 0 0 basechar 0
AnchorPoint: "Anchor-12" 428 529 basechar 0
AnchorPoint: "Anchor-11" 0 0 basechar 0
AnchorPoint: "Anchor-10" 417 0 basechar 0
LayerCount: 2
Back
Fore
SplineSet
814 277 m 0x6780
 814 260 813 239 811 225 c 1
 479 225 l 1x6780
 489 117 539 82 609 82 c 0
 657 82 695 97 741 129 c 1
 795 56 l 1
 742 14 678 -15 598 -15 c 0
 507 -15 439 20 397 79 c 1
 349 10 286 -15 209 -15 c 0
 101 -15 35 52 35 148 c 0
 35 263 123 325 280 325 c 2
 347 325 l 1
 347 355 l 2
 347 423 316 446 248 446 c 0
 212 446 161 436 107 418 c 1x5b80
 78 506 l 1
 143 531 210 544 269 544 c 0
 351 544 400 515 430 470 c 1
 467 516 518 544 590 544 c 0
 729 544 814 444 814 277 c 0x6780
688 308 m 1
 688 314 l 2
 687 401 657 453 584 453 c 0
 524 453 487 413 479 308 c 1
 688 308 l 1
246 78 m 0x9780
 294 78 328 104 361 155 c 1
 353 183 349 212 348 244 c 2
 348 248 l 1
 295 248 l 2
 213 248 171 219 171 156 c 0
 171 106 197 78 246 78 c 0x9780
EndSplineSet
Substitution2: "'smcp' Lowercase to Small Capitals lookup 27 subtable" ae.sc
Substitution2: "'aalt' Access All Alternates lookup 0 subtable" ae.sc
EndChar

StartChar: ccedilla
Encoding: 231 231 150
Width: 478
GlyphClass: 2
Flags: MW
HStem: -253 75<256.5 283 256.5 318> -14 21G<316 316> -14 103<316 316> -11 21G<239 239> 443 101<261 318>
VStem: 43 136<198 325.5 198 344.5> 318 97<-156.5 -131>
AnchorPoint: "Anchor-11" 282 0 basechar 0
AnchorPoint: "Anchor-10" 0 0 basechar 0
AnchorPoint: "Anchor-9" 290 529 basechar 0
AnchorPoint: "Anchor-8" 0 0 basechar 0
LayerCount: 2
Fore
SplineSet
462 46 m 1xae
 420 12 373 -9 316 -14 c 1
 316 -52 l 1xce
 386 -59 415 -96 415 -144 c 0
 415 -211 358 -253 278 -253 c 0
 235 -253 198 -241 175 -225 c 1
 206 -162 l 1
 225 -172 244 -178 269 -178 c 0
 297 -178 318 -169 318 -144 c 0
 318 -118 291 -106 227 -106 c 1
 239 -11 l 1x9e
 117 11 43 111 43 260 c 0
 43 429 138 544 290 544 c 0
 359 544 412 525 462 482 c 1
 404 404 l 1
 370 431 338 443 298 443 c 0
 224 443 179 389 179 262 c 0
 179 134 226 89 298 89 c 0
 338 89 366 102 403 130 c 1
 462 46 l 1xae
EndSplineSet
Substitution2: "'smcp' Lowercase to Small Capitals lookup 24 subtable" ccedilla.sc
Substitution2: "'aalt' Access All Alternates lookup 0 subtable" ccedilla.sc
EndChar
StartChar: igrave
Encoding: 236 236 489
Width: 282
GlyphClass: 2
Flags: MW
HStem: 0 21G<77 205 77 77> 509 20G<77 205 205 205> 675 20G<282 282>
VStem: 77 128<0 529 0 529>
AnchorPoint: "Anchor-14" 0 0 basechar 0
AnchorPoint: "Anchor-13" 0 0 basechar 0
AnchorPoint: "Anchor-12" 153 820 basechar 0
AnchorPoint: "Anchor-11" 201 0 basechar 0
AnchorPoint: "Anchor-10" 141 0 basechar 0
LayerCount: 2
Back
Fore
SplineSet
72 820 m 1
 282 695 l 1
 245 630 l 1
 20 720 l 1
 72 820 l 1
205 529 m 1
 205 0 l 1
 77 0 l 1
 77 529 l 1
 205 529 l 1
EndSplineSet
Substitution2: "'smcp' Lowercase to Small Capitals lookup 27 subtable" igrave.sc
Substitution2: "'aalt' Access All Alternates lookup 0 subtable" igrave.sc
EndChar
StartChar: icircumflex
Encoding: 238 238 483
Width: 282
GlyphClass: 2
Flags: MW
HStem: 0 21G<77 205 77 77> 509 20G<77 205 205 205>
VStem: 77 128<0 529 0 529>
AnchorPoint: "Anchor-14" 0 0 basechar 0
AnchorPoint: "Anchor-13" 0 0 basechar 0
AnchorPoint: "Anchor-12" 143 808 basechar 0
AnchorPoint: "Anchor-11" 201 0 basechar 0
AnchorPoint: "Anchor-10" 141 0 basechar 0
LayerCount: 2
Back
Fore
SplineSet
11 627 m 1
 -38 682 l 1
 100 808 l 1
 181 808 l 1
 320 682 l 1
 271 627 l 1
 141 715 l 1
 11 627 l 1
205 529 m 1
 205 0 l 1
 77 0 l 1
 77 529 l 1
 205 529 l 1
EndSplineSet
Substitution2: "'smcp' Lowercase to Small Capitals lookup 27 subtable" icircumflex.sc
Substitution2: "'aalt' Access All Alternates lookup 0 subtable" icircumflex.sc
EndChar
StartChar: idieresis
Encoding: 239 239 485
Width: 282
GlyphClass: 2
Flags: MW
HStem: 0 21G<77 205 77 77> 509 20G<77 205 205 205> 647 138<10.5 50 232 271.5>
VStem: -40 140<696.5 735.5> 77 128<0 529 0 529> 182 140<696.5 735.5>
AnchorPoint: "Anchor-14" 0 0 basechar 0
AnchorPoint: "Anchor-13" 0 0 basechar 0
AnchorPoint: "Anchor-12" 143 785 basechar 0
AnchorPoint: "Anchor-11" 201 0 basechar 0
AnchorPoint: "Anchor-10" 141 0 basechar 0
LayerCount: 2
Back
Fore
SplineSet
30 785 m 0xf4
 70 785 100 755 100 716 c 0
 100 677 70 647 30 647 c 0
 -9 647 -40 677 -40 716 c 0
 -40 755 -9 785 30 785 c 0xf4
251 785 m 0
 292 785 322 755 322 716 c 0
 322 677 292 647 251 647 c 0
 213 647 182 677 182 716 c 0
 182 755 213 785 251 785 c 0
205 529 m 1xe8
 205 0 l 1
 77 0 l 1
 77 529 l 1
 205 529 l 1xe8
EndSplineSet
Substitution2: "'smcp' Lowercase to Small Capitals lookup 27 subtable" idieresis.sc
Substitution2: "'aalt' Access All Alternates lookup 0 subtable" idieresis.sc
EndChar
StartChar: eth
Encoding: 240 240 392
Width: 575
GlyphClass: 2
Flags: MW
HStem: -15 96<249 317.5 249 357> 384 93<238.5 278 184 303> 551 20G<132 132> 734 20G<121 121>
VStem: 43 131<184.5 279.5 184.5 298.5> 396 130<201 272.5>
AnchorPoint: "Anchor-14" 0 0 basechar 0
AnchorPoint: "Anchor-13" 0 0 basechar 0
AnchorPoint: "Anchor-12" 301 741 basechar 0
AnchorPoint: "Anchor-11" 0 0 basechar 0
AnchorPoint: "Anchor-10" 281 0 basechar 0
LayerCount: 2
Back
Fore
SplineSet
350 667 m 1
 482 571 526 445 526 271 c 0
 526 105 433 -15 281 -15 c 0
 148 -15 43 76 43 234 c 0
 43 363 120 477 248 477 c 0
 308 477 352 456 387 422 c 1
 370 491 339 545 277 593 c 1
 215 532 l 1
 132 571 l 1
 197 638 l 1
 161 652 128 660 95 666 c 1
 121 754 l 1
 172 745 216 734 269 712 c 1
 340 788 l 1
 409 728 l 1
 350 667 l 1
281 81 m 0
 354 81 396 141 396 261 c 0
 396 284 396 305 395 327 c 1
 366 364 328 384 278 384 c 0
 199 384 174 321 174 238 c 0
 174 131 217 81 281 81 c 0
EndSplineSet
Substitution2: "'smcp' Lowercase to Small Capitals lookup 27 subtable" eth.sc
Substitution2: "'aalt' Access All Alternates lookup 0 subtable" eth.sc
EndChar
StartChar: ntilde
Encoding: 241 241 552
Width: 581
GlyphClass: 2
Flags: MW
HStem: 0 21G<77 205 77 77 381 509 381 381> 448 96<325.5 336> 509 20G<77 188 188 188> 644 94<335.5 363.5 335.5 380> 691 93<227 256> 727 20G<474 474>
VStem: 77 128<0 368 0 529> 381 128<0 363 363 383 0 396>
AnchorPoint: "Anchor-14" 0 0 basechar 0
AnchorPoint: "Anchor-13" 0 0 basechar 0
AnchorPoint: "Anchor-12" 296 740 basechar 0
AnchorPoint: "Anchor-11" 0 0 basechar 0
AnchorPoint: "Anchor-10" 291 0 basechar 0
LayerCount: 2
Back
Fore
SplineSet
239 691 m 0xab
 215 691 202 675 186 646 c 1
 117 680 l 1
 141 737 181 784 237 784 c 0xab
 296 784 318 738 353 738 c 0
 374 738 388 752 406 781 c 1xb3
 474 747 l 1xa7
 448 685 406 644 354 644 c 0xb3
 298 644 273 691 239 691 c 0xab
359 544 m 0xc7
 454 544 509 484 509 383 c 2
 509 0 l 1
 381 0 l 1
 381 363 l 2
 381 429 356 448 316 448 c 0
 270 448 236 417 205 368 c 1xc7
 205 0 l 1
 77 0 l 1
 77 529 l 1
 188 529 l 1xa7
 198 459 l 1
 239 512 292 544 359 544 c 0xc7
EndSplineSet
Substitution2: "'smcp' Lowercase to Small Capitals lookup 27 subtable" ntilde.sc
Substitution2: "'aalt' Access All Alternates lookup 0 subtable" ntilde.sc
EndChar
StartChar: ograve
Encoding: 242 242 571
Width: 584
GlyphClass: 2
Flags: MW
HStem: -15 97<254.5 329.5 254.5 370> 447 97<255.5 330> 675 20G<433 433>
VStem: 43 135<201.5 327.5 201.5 348> 406 135<202 328>
AnchorPoint: "Anchor-14" 0 0 basechar 0
AnchorPoint: "Anchor-13" 487 529 basechar 0
AnchorPoint: "Anchor-12" 304 820 basechar 0
AnchorPoint: "Anchor-11" 392 0 basechar 0
AnchorPoint: "Anchor-10" 292 0 basechar 0
LayerCount: 2
Back
Fore
SplineSet
223 820 m 1
 433 695 l 1
 396 630 l 1
 171 720 l 1
 223 820 l 1
293 544 m 0
 449 544 541 438 541 265 c 0
 541 98 448 -15 292 -15 c 0
 136 -15 43 91 43 265 c 0
 43 431 136 544 293 544 c 0
293 447 m 0
 218 447 178 390 178 265 c 0
 178 138 217 82 292 82 c 0
 367 82 406 139 406 265 c 0
 406 391 367 447 293 447 c 0
EndSplineSet
Substitution2: "'smcp' Lowercase to Small Capitals lookup 27 subtable" ograve.sc
Substitution2: "'aalt' Access All Alternates lookup 0 subtable" ograve.sc
EndChar

StartChar: ocircumflex
Encoding: 244 244 211
Width: 584
GlyphClass: 2
Flags: MW
HStem: -15 97<254.5 329.5 254.5 370> 447 97<255.5 330>
VStem: 43 135<201.5 327.5 201.5 348> 406 135<202 328>
AnchorPoint: "Anchor-11" 0 0 basechar 0
AnchorPoint: "Anchor-10" 0 0 basechar 0
AnchorPoint: "Anchor-9" 292 529 basechar 0
AnchorPoint: "Anchor-8" 0 0 basechar 0
LayerCount: 2
Fore
SplineSet
113 682 m 1
 251 808 l 1
 332 808 l 1
 471 682 l 1
 422 627 l 1
 292 715 l 1
 162 627 l 1
 113 682 l 1
293 544 m 0
 449 544 541 438 541 265 c 0
 541 98 448 -15 292 -15 c 0
 136 -15 43 91 43 265 c 0
 43 431 136 544 293 544 c 0
293 447 m 0
 218 447 178 390 178 265 c 0
 178 138 217 82 292 82 c 0
 367 82 406 139 406 265 c 0
 406 391 367 447 293 447 c 0
EndSplineSet
Substitution2: "'smcp' Lowercase to Small Capitals lookup 24 subtable" ocircumflex.sc
Substitution2: "'aalt' Access All Alternates lookup 0 subtable" ocircumflex.sc
EndChar
StartChar: odieresis
Encoding: 246 246 566
Width: 584
GlyphClass: 2
Flags: MW
HStem: -15 97<254.5 329.5 254.5 370> 447 97<255.5 330> 647 138<161.5 201 383 422.5>
VStem: 43 135<201.5 327.5 201.5 348> 111 140<696.5 735.5> 333 140<696.5 735.5> 406 135<202 328>
AnchorPoint: "Anchor-14" 0 0 basechar 0
AnchorPoint: "Anchor-13" 487 529 basechar 0
AnchorPoint: "Anchor-12" 294 785 basechar 0
AnchorPoint: "Anchor-11" 392 0 basechar 0
AnchorPoint: "Anchor-10" 292 0 basechar 0
LayerCount: 2
Back
Fore
SplineSet
181 785 m 0xec
 221 785 251 755 251 716 c 0
 251 677 221 647 181 647 c 0
 142 647 111 677 111 716 c 0
 111 755 142 785 181 785 c 0xec
402 785 m 0
 443 785 473 755 473 716 c 0
 473 677 443 647 402 647 c 0
 364 647 333 677 333 716 c 0
 333 755 364 785 402 785 c 0
293 544 m 0xf2
 449 544 541 438 541 265 c 0
 541 98 448 -15 292 -15 c 0
 136 -15 43 91 43 265 c 0
 43 431 136 544 293 544 c 0xf2
293 447 m 0
 218 447 178 390 178 265 c 0
 178 138 217 82 292 82 c 0
 367 82 406 139 406 265 c 0
 406 391 367 447 293 447 c 0
EndSplineSet
Substitution2: "'smcp' Lowercase to Small Capitals lookup 27 subtable" odieresis.sc
Substitution2: "'aalt' Access All Alternates lookup 0 subtable" odieresis.sc
EndChar

StartChar: divide
Encoding: 247 247 1089
Width: 510
Flags: MW
HStem: 16 162<232.5 278> 281 102<55 456 55 456> 487 162<232.5 278>
VStem: 175 161<75.5 120 546 590.5>
LayerCount: 2
Fore
SplineSet
255 649 m 0
 301 649 336 613 336 568 c 0
 336 524 301 487 255 487 c 0
 210 487 175 524 175 568 c 0
 175 613 210 649 255 649 c 0
55 383 m 1
 456 383 l 1
 456 281 l 1
 55 281 l 1
 55 383 l 1
255 178 m 0
 301 178 336 142 336 98 c 0
 336 53 301 16 255 16 c 0
 210 16 175 53 175 98 c 0
 175 142 210 178 255 178 c 0
EndSplineSet
Substitution2: "'onum' Oldstyle Figures lookup 22 subtable" divide.osf
Substitution2: "'tnum' Tabular Numbers lookup 21 subtable" divide.tf
AlternateSubs2: "'aalt' Access All Alternates lookup 1 subtable" divide.tf divide.osf
EndChar
StartChar: oslash
Encoding: 248 248 589
Width: 584
GlyphClass: 2
Flags: MW
HStem: -15 97<288 331 288 370> -12 21G<250 250> 447 97<253.5 297> 521 20G<334 334>
VStem: 43 128<225 327.5 225 348> 413 128<202 304.5>
AnchorPoint: "Anchor-14" 0 0 basechar 0
AnchorPoint: "Anchor-13" 0 0 basechar 0
AnchorPoint: "Anchor-12" 292 529 basechar 0
AnchorPoint: "Anchor-11" 0 0 basechar 0
AnchorPoint: "Anchor-10" 291 0 basechar 0
LayerCount: 2
Back
Fore
SplineSet
428 509 m 1xac
 501 464 541 379 541 265 c 0
 541 98 448 -15 292 -15 c 0xac
 278 -15 264 -14 250 -12 c 1
 213 -133 l 1
 115 -104 l 1
 156 20 l 1
 84 65 43 150 43 265 c 0
 43 431 136 544 293 544 c 0x6c
 307 544 321 543 334 541 c 1x9c
 373 662 l 1
 470 633 l 1
 428 509 l 1xac
293 447 m 0
 214 447 171 390 171 265 c 0
 171 185 183 138 206 112 c 1
 317 446 l 1
 309 447 301 447 293 447 c 0
292 82 m 0
 370 82 413 139 413 265 c 0
 413 344 401 391 378 417 c 1
 268 84 l 1
 276 83 284 82 292 82 c 0
EndSplineSet
Substitution2: "'smcp' Lowercase to Small Capitals lookup 27 subtable" oslash.sc
Substitution2: "'aalt' Access All Alternates lookup 0 subtable" oslash.sc
EndChar
StartChar: ugrave
Encoding: 249 249 674
Width: 577
GlyphClass: 2
Flags: MW
HStem: -15 97<243 256> 0 21G<389 500 389 389> 509 20G<72 200 200 200 372 500 500 500> 675 20G<427 427>
VStem: 72 128<149 165 165 529> 372 128<157 529 0 529>
AnchorPoint: "Anchor-14" 0 0 basechar 0
AnchorPoint: "Anchor-13" 510 529 basechar 0
AnchorPoint: "Anchor-12" 298 820 basechar 0
AnchorPoint: "Anchor-11" 510 0 basechar 0
AnchorPoint: "Anchor-10" 286 0 basechar 0
LayerCount: 2
Back
Fore
SplineSet
217 820 m 1x7c
 427 695 l 1
 390 630 l 1
 165 720 l 1
 217 820 l 1x7c
500 529 m 1
 500 0 l 1
 389 0 l 1x7c
 382 74 l 1
 343 14 292 -15 220 -15 c 0
 124 -15 72 47 72 149 c 2
 72 529 l 1
 200 529 l 1
 200 165 l 2
 200 103 221 82 265 82 c 0
 308 82 344 111 372 157 c 1xbc
 372 529 l 1
 500 529 l 1
EndSplineSet
Substitution2: "'smcp' Lowercase to Small Capitals lookup 27 subtable" ugrave.sc
Substitution2: "'aalt' Access All Alternates lookup 0 subtable" ugrave.sc
EndChar

StartChar: udieresis
Encoding: 252 252 243
Width: 577
GlyphClass: 2
Flags: MW
HStem: -15 97<243 256> 0 21G<389 500 389 389> 509 20G<72 200 200 200 372 500 500 500> 647 138<155.5 195 377 416.5>
VStem: 72 128<149 165 165 529> 105 140<696.5 735.5> 327 140<696.5 735.5> 372 128<157 529>
AnchorPoint: "Anchor-11" 0 0 basechar 0
AnchorPoint: "Anchor-10" 0 0 basechar 0
AnchorPoint: "Anchor-9" 285 699 basechar 0
AnchorPoint: "Anchor-8" 510 0 basechar 0
LayerCount: 2
Fore
SplineSet
175 785 m 0x76
 215 785 245 755 245 716 c 0
 245 677 215 647 175 647 c 0
 136 647 105 677 105 716 c 0
 105 755 136 785 175 785 c 0x76
396 785 m 0
 437 785 467 755 467 716 c 0
 467 677 437 647 396 647 c 0
 358 647 327 677 327 716 c 0
 327 755 358 785 396 785 c 0
500 0 m 1x79
 389 0 l 1x79
 382 74 l 1
 343 14 292 -15 220 -15 c 0
 124 -15 72 47 72 149 c 2
 72 529 l 1
 200 529 l 1
 200 165 l 2
 200 103 221 82 265 82 c 0
 308 82 344 111 372 157 c 1xb9
 372 529 l 1
 500 529 l 1
 500 0 l 1x79
EndSplineSet
Substitution2: "'smcp' Lowercase to Small Capitals lookup 24 subtable" udieresis.sc
Substitution2: "'aalt' Access All Alternates lookup 0 subtable" udieresis.sc
EndChar
StartChar: yacute
Encoding: 253 253 704
Width: 506
GlyphClass: 2
Flags: MW
HStem: -218 21G<58 58> 0 21G<170 214 170 170> 509 20G<2 138 138 138 373 505 505 505>
VStem: 2 503<529 529>
AnchorPoint: "Anchor-14" 0 0 basechar 0
AnchorPoint: "Anchor-13" 0 0 basechar 0
AnchorPoint: "Anchor-12" 255 820 basechar 0
AnchorPoint: "Anchor-11" 0 0 basechar 0
AnchorPoint: "Anchor-10" 253 -206 basechar 0
LayerCount: 2
Back
Fore
SplineSet
329 820 m 1
 381 720 l 1
 155 630 l 1
 119 695 l 1
 329 820 l 1
505 529 m 1
 333 -2 l 2
 293 -126 215 -206 58 -218 c 1
 45 -125 l 1
 150 -109 184 -75 214 0 c 1
 170 0 l 1
 2 529 l 1
 138 529 l 1
 253 85 l 1
 373 529 l 1
 505 529 l 1
EndSplineSet
Substitution2: "'smcp' Lowercase to Small Capitals lookup 27 subtable" yacute.sc
Substitution2: "'aalt' Access All Alternates lookup 0 subtable" yacute.sc
EndChar

StartChar: Amacron
Encoding: 256 256 7
Width: 583
GlyphClass: 2
Flags: MW
HStem: 0 21G<-5 132 -5 -5 447 447 447 587> 160 100<201 377 201 404 175 377> 590 101<289 289> 671 20G<210 373 373 373> 783 91<146 437 146 437>
VStem: 146 291<783 874 783 874>
AnchorPoint: "Anchor-11" 0 0 basechar 0
AnchorPoint: "Anchor-10" 143 691 basechar 0
AnchorPoint: "Anchor-9" 292 691 basechar 0
AnchorPoint: "Anchor-8" 533 0 basechar 0
LayerCount: 2
Fore
SplineSet
437 783 m 1xdc
 146 783 l 1
 146 874 l 1
 437 874 l 1
 437 783 l 1xdc
404 160 m 1
 175 160 l 1
 132 0 l 1
 -5 0 l 1
 210 691 l 1
 373 691 l 1
 587 0 l 1
 447 0 l 1
 404 160 l 1
377 260 m 1
 289 590 l 1xec
 201 260 l 1
 377 260 l 1
EndSplineSet
Substitution2: "'c2sc' Capitals to Small Capitals lookup 23 subtable" amacron.sc
Substitution2: "'aalt' Access All Alternates lookup 0 subtable" amacron.sc
Position2: "'cpsp' Capital Spacing lookup 0 subtable" dx=5 dy=0 dh=10 dv=0
EndChar
StartChar: Abreve
Encoding: 258 258 4
Width: 583
GlyphClass: 2
Flags: MW
HStem: 0 21G<-5 132 -5 -5 447 587 447 447> 160 100<201 378 201 404 175 378> 590 101<289 289> 671 20G<210 373 373 373> 754 92<268 314 268 338>
VStem: -5 592<0 0>
AnchorPoint: "Anchor-14" 0 0 basechar 0
AnchorPoint: "Anchor-13" 0 0 basechar 0
AnchorPoint: "Anchor-12" 294 913 basechar 0
AnchorPoint: "Anchor-11" 533 0 basechar 0
AnchorPoint: "Anchor-10" 292 0 basechar 0
LayerCount: 2
Back
Fore
SplineSet
291 754 m 0xdc
 197 754 137 818 129 898 c 1
 204 913 l 1
 217 874 245 846 291 846 c 0
 337 846 367 874 379 913 c 1
 455 898 l 1
 447 818 385 754 291 754 c 0xdc
447 0 m 1
 404 160 l 1
 175 160 l 1
 132 0 l 1
 -5 0 l 1
 210 691 l 1
 373 691 l 1
 587 0 l 1
 447 0 l 1
201 260 m 1
 378 260 l 1
 289 590 l 1xec
 201 260 l 1
EndSplineSet
Substitution2: "'c2sc' Capitals to Small Capitals lookup 26 subtable" abreve.sc
Substitution2: "'aalt' Access All Alternates lookup 0 subtable" abreve.sc
Position2: "'cpsp' Capital Spacing lookup 0 subtable" dx=5 dy=0 dh=10 dv=0
EndChar

StartChar: Aogonek
Encoding: 260 260 8
Width: 583
GlyphClass: 2
Flags: MW
HStem: -239 85<438 454.5> 0 21G<-5 132 -5 -5 523 587 523 523> 160 100<201 377 201 404 175 377> 590 101<289 289> 671 20G<210 373 373 373>
VStem: 304 99<-123 -95.5>
AnchorPoint: "Anchor-11" 0 0 basechar 0
AnchorPoint: "Anchor-10" 143 691 basechar 0
AnchorPoint: "Anchor-9" 292 691 basechar 0
AnchorPoint: "Anchor-8" 533 0 basechar 0
LayerCount: 2
Fore
SplineSet
523 0 m 1xec
 423 -40 403 -76 403 -108 c 0
 403 -138 419 -154 457 -154 c 0
 477 -154 495 -152 518 -147 c 1
 508 -232 l 1
 487 -236 468 -239 441 -239 c 0
 360 -239 304 -195 304 -130 c 0
 304 -61 353 -13 441 22 c 1
 404 160 l 1
 175 160 l 1
 132 0 l 1
 -5 0 l 1
 210 691 l 1
 373 691 l 1
 587 0 l 1
 523 0 l 1xec
377 260 m 1
 289 590 l 1xf4
 201 260 l 1
 377 260 l 1
EndSplineSet
Substitution2: "'c2sc' Capitals to Small Capitals lookup 23 subtable" aogonek.sc
Substitution2: "'aalt' Access All Alternates lookup 0 subtable" aogonek.sc
Position2: "'cpsp' Capital Spacing lookup 0 subtable" dx=5 dy=0 dh=10 dv=0
EndChar
StartChar: Cacute
Encoding: 262 262 44
Width: 568
GlyphClass: 2
Flags: MW
HStem: -15 106<303.5 382.5 303.5 394> 604 102<303.5 375>
VStem: 43 139<256 440.5 256 463>
AnchorPoint: "Anchor-14" 353 349 basechar 0
AnchorPoint: "Anchor-13" 0 0 basechar 0
AnchorPoint: "Anchor-12" 353 936 basechar 0
AnchorPoint: "Anchor-11" 0 0 basechar 0
AnchorPoint: "Anchor-10" 344 0 basechar 0
LayerCount: 2
Back
Fore
SplineSet
431 936 m 1
 482 836 l 1
 253 753 l 1
 220 819 l 1
 431 936 l 1
343 706 m 0
 434 706 491 680 547 633 c 1
 479 554 l 1
 440 587 399 604 351 604 c 0
 256 604 182 534 182 347 c 0
 182 165 254 91 353 91 c 0
 412 91 453 119 493 149 c 1
 555 69 l 1
 513 26 441 -15 347 -15 c 0
 168 -15 43 112 43 347 c 0
 43 579 175 706 343 706 c 0
EndSplineSet
Substitution2: "'c2sc' Capitals to Small Capitals lookup 26 subtable" cacute.sc
Substitution2: "'locl' Localized Forms in Latin lookup 7 subtable" Cacute.loclPLK
AlternateSubs2: "'aalt' Access All Alternates lookup 1 subtable" Cacute.loclPLK cacute.sc
Position2: "'cpsp' Capital Spacing lookup 0 subtable" dx=5 dy=0 dh=10 dv=0
EndChar
StartChar: cacute
Encoding: 263 263 381
Width: 478
GlyphClass: 2
Flags: MW
HStem: -15 104<262 318 262 325> 443 101<261 318>
VStem: 43 136<198 325.5 198 344.5>
AnchorPoint: "Anchor-14" 0 0 basechar 0
AnchorPoint: "Anchor-13" 0 0 basechar 0
AnchorPoint: "Anchor-12" 292 820 basechar 0
AnchorPoint: "Anchor-11" 0 0 basechar 0
AnchorPoint: "Anchor-10" 282 0 basechar 0
LayerCount: 2
Back
Fore
SplineSet
366 820 m 1
 418 720 l 1
 192 630 l 1
 156 695 l 1
 366 820 l 1
290 544 m 0
 359 544 412 525 462 482 c 1
 405 405 l 1
 370 431 338 443 298 443 c 0
 224 443 179 389 179 262 c 0
 179 134 226 89 298 89 c 0
 338 89 366 102 405 127 c 1
 462 46 l 1
 414 7 359 -15 291 -15 c 0
 138 -15 43 91 43 260 c 0
 43 429 138 544 290 544 c 0
EndSplineSet
Substitution2: "'smcp' Lowercase to Small Capitals lookup 27 subtable" cacute.sc
Substitution2: "'locl' Localized Forms in Latin lookup 7 subtable" cacute.loclPLK
AlternateSubs2: "'aalt' Access All Alternates lookup 1 subtable" cacute.loclPLK cacute.sc
EndChar

StartChar: Cdotaccent
Encoding: 266 266 19
Width: 568
GlyphClass: 2
Flags: MW
HStem: -15 106<303.5 382.5 303.5 394> 604 102<303.5 375> 768 155<326.5 374>
VStem: 43 139<256 440.5 256 463> 270 161<823.5 867>
AnchorPoint: "Anchor-11" 344 0 basechar 0
AnchorPoint: "Anchor-10" 0 0 basechar 0
AnchorPoint: "Anchor-9" 351 691 basechar 0
AnchorPoint: "Anchor-8" 0 0 basechar 0
LayerCount: 2
Fore
SplineSet
350 923 m 0
 398 923 431 889 431 845 c 0
 431 802 398 768 350 768 c 0
 303 768 270 802 270 845 c 0
 270 889 303 923 350 923 c 0
343 706 m 0
 434 706 491 680 547 633 c 1
 479 554 l 1
 440 587 399 604 351 604 c 0
 256 604 182 534 182 347 c 0
 182 165 254 91 353 91 c 0
 412 91 453 119 493 149 c 1
 555 69 l 1
 513 26 441 -15 347 -15 c 0
 168 -15 43 112 43 347 c 0
 43 579 175 706 343 706 c 0
EndSplineSet
Substitution2: "'c2sc' Capitals to Small Capitals lookup 23 subtable" cdotaccent.sc
Substitution2: "'aalt' Access All Alternates lookup 0 subtable" cdotaccent.sc
Position2: "'cpsp' Capital Spacing lookup 0 subtable" dx=5 dy=0 dh=10 dv=0
EndChar
StartChar: cdotaccent
Encoding: 267 267 387
Width: 478
GlyphClass: 2
Flags: MW
HStem: -15 104<262 318 262 325> 443 101<261 318> 642 155<265.5 313>
VStem: 43 136<198 325.5 198 344.5> 209 161<697.5 741>
AnchorPoint: "Anchor-14" 0 0 basechar 0
AnchorPoint: "Anchor-13" 0 0 basechar 0
AnchorPoint: "Anchor-12" 292 797 basechar 0
AnchorPoint: "Anchor-11" 0 0 basechar 0
AnchorPoint: "Anchor-10" 282 0 basechar 0
LayerCount: 2
Back
Fore
SplineSet
289 797 m 0
 337 797 370 763 370 719 c 0
 370 676 337 642 289 642 c 0
 242 642 209 676 209 719 c 0
 209 763 242 797 289 797 c 0
290 544 m 0
 359 544 412 525 462 482 c 1
 405 405 l 1
 370 431 338 443 298 443 c 0
 224 443 179 389 179 262 c 0
 179 134 226 89 298 89 c 0
 338 89 366 102 405 127 c 1
 462 46 l 1
 414 7 359 -15 291 -15 c 0
 138 -15 43 91 43 260 c 0xf0
 43 429 138 544 290 544 c 0
EndSplineSet
Substitution2: "'smcp' Lowercase to Small Capitals lookup 27 subtable" cdotaccent.sc
Substitution2: "'aalt' Access All Alternates lookup 0 subtable" cdotaccent.sc
EndChar

StartChar: Dcaron
Encoding: 270 270 22
Width: 648
GlyphClass: 2
Flags: MW
HStem: 0 99<213 269> 592 99<213 213 213 251 251 274>
VStem: 81 132<99 592 99 691 99 691> 466 139<247 453>
AnchorPoint: "Anchor-11" 0 0 basechar 0
AnchorPoint: "Anchor-10" 0 0 basechar 0
AnchorPoint: "Anchor-9" 299 691 basechar 0
AnchorPoint: "Anchor-8" 0 0 basechar 0
LayerCount: 2
Fore
SplineSet
478 872 m 1
 339 752 l 1
 259 752 l 1
 120 872 l 1
 169 928 l 1
 299 845 l 1
 429 928 l 1
 478 872 l 1
251 691 m 2
 433 691 605 635 605 349 c 0
 605 69 434 0 269 0 c 2
 81 0 l 1
 81 691 l 1
 251 691 l 2
213 592 m 1
 213 99 l 1
 278 99 l 2
 381 99 466 145 466 349 c 0
 466 557 376 592 274 592 c 2
 213 592 l 1
EndSplineSet
Substitution2: "'c2sc' Capitals to Small Capitals lookup 23 subtable" dcaron.sc
Substitution2: "'aalt' Access All Alternates lookup 0 subtable" dcaron.sc
Position2: "'cpsp' Capital Spacing lookup 0 subtable" dx=5 dy=0 dh=10 dv=0
EndChar
StartChar: dcaron
Encoding: 271 271 394
Width: 646
GlyphClass: 2
Flags: MW
HStem: -15 97<253.5 283.5> 0 21G<409 522 409 409> 448 96<260.5 290 196 315> 721 20G<522 522> 734 20G<585 585> 735 20G<394 394>
VStem: 48 135<197 328.5 197 345.5> 394 128<150 392 392 392 487 741 0 755 0 755>
AnchorPoint: "Anchor-14" 302 265 basechar 0
AnchorPoint: "Anchor-13" 532 741 basechar 0
AnchorPoint: "Anchor-12" 299 741 basechar 0
AnchorPoint: "Anchor-11" 0 0 basechar 0
AnchorPoint: "Anchor-10" 308 0 basechar 0
LayerCount: 2
Back
Fore
SplineSet
394 487 m 1xa7
 394 755 l 1xa7
 522 741 l 1
 522 0 l 1
 409 0 l 1x73
 400 67 l 1
 368 19 318 -15 249 -15 c 0
 117 -15 48 96 48 264 c 0
 48 427 129 544 263 544 c 0
 317 544 361 521 394 487 c 1xa7
585 754 m 1xab
 688 740 l 1
 635 539 l 1
 564 550 l 1
 585 754 l 1xab
285 82 m 0
 332 82 364 105 394 150 c 1
 394 392 l 1
 366 427 336 448 294 448 c 0
 227 448 183 392 183 265 c 0
 183 129 222 82 285 82 c 0
EndSplineSet
Substitution2: "'smcp' Lowercase to Small Capitals lookup 27 subtable" dcaron.sc
Substitution2: "'aalt' Access All Alternates lookup 0 subtable" dcaron.sc
EndChar
StartChar: dcroat
Encoding: 273 273 396
Width: 608
GlyphClass: 2
Flags: MW
HStem: -15 97<253.5 283.5> 0 21G<409 522 409 409> 448 96<260.5 290 196 315> 601 82<248 394 248 394 522 592> 721 20G<522 522> 735 20G<394 394>
VStem: 48 135<197 328.5 197 345.5> 394 128<150 392 392 392 487 601 0 601 683 741>
AnchorPoint: "Anchor-14" 302 265 basechar 0
AnchorPoint: "Anchor-13" 532 741 basechar 0
AnchorPoint: "Anchor-12" 299 741 basechar 0
AnchorPoint: "Anchor-11" 0 0 basechar 0
AnchorPoint: "Anchor-10" 308 0 basechar 0
LayerCount: 2
Back
Fore
SplineSet
522 683 m 1xb7
 592 683 l 1
 592 601 l 1
 522 601 l 1
 522 0 l 1
 409 0 l 1x77
 400 67 l 1
 368 19 318 -15 249 -15 c 0
 117 -15 48 96 48 264 c 0
 48 427 129 544 263 544 c 0
 317 544 361 521 394 487 c 1
 394 601 l 1
 248 601 l 1
 248 683 l 1
 394 683 l 1
 394 755 l 1xb7
 522 741 l 1xbb
 522 683 l 1xb7
285 82 m 0xb7
 332 82 364 105 394 150 c 1
 394 392 l 1
 366 427 336 448 294 448 c 0
 227 448 183 392 183 265 c 0
 183 129 222 82 285 82 c 0xb7
EndSplineSet
Substitution2: "'smcp' Lowercase to Small Capitals lookup 27 subtable" dcroat.sc
Substitution2: "'aalt' Access All Alternates lookup 0 subtable" dcroat.sc
EndChar

StartChar: Emacron
Encoding: 274 274 32
Width: 530
GlyphClass: 2
Flags: MW
HStem: 0 99<213 486 213 486> 302 98<213 435 213 435> 593 98<213 468 213 213> 783 91<138 429 138 429>
VStem: 81 132<99 302 400 593> 138 291<783 874 783 874>
AnchorPoint: "Anchor-11" 284 0 basechar 0
AnchorPoint: "Anchor-10" 74 691 basechar 0
AnchorPoint: "Anchor-9" 284 691 basechar 0
AnchorPoint: "Anchor-8" 456 0 basechar 0
LayerCount: 2
Fore
SplineSet
138 783 m 1xf4
 138 874 l 1
 429 874 l 1
 429 783 l 1
 138 783 l 1xf4
468 593 m 1
 213 593 l 1
 213 400 l 1
 435 400 l 1
 435 302 l 1
 213 302 l 1
 213 99 l 1
 486 99 l 1
 486 0 l 1
 81 0 l 1
 81 691 l 1xf8
 482 691 l 1
 468 593 l 1
EndSplineSet
Substitution2: "'c2sc' Capitals to Small Capitals lookup 23 subtable" emacron.sc
Substitution2: "'aalt' Access All Alternates lookup 0 subtable" emacron.sc
Position2: "'cpsp' Capital Spacing lookup 0 subtable" dx=5 dy=0 dh=10 dv=0
EndChar

StartChar: Ebreve
Encoding: 276 276 26
Width: 530
GlyphClass: 2
Flags: MW
HStem: 0 99<213 486 213 486> 302 98<213 435 213 435> 593 98<213 468 213 213> 754 92<260 306 260 330>
VStem: 81 132<99 302 400 593>
AnchorPoint: "Anchor-11" 284 0 basechar 0
AnchorPoint: "Anchor-10" 74 691 basechar 0
AnchorPoint: "Anchor-9" 284 691 basechar 0
AnchorPoint: "Anchor-8" 456 0 basechar 0
LayerCount: 2
Fore
SplineSet
283 754 m 0
 189 754 129 818 121 898 c 1
 196 913 l 1
 209 874 237 846 283 846 c 0
 329 846 359 874 371 913 c 1
 447 898 l 1
 439 818 377 754 283 754 c 0
468 593 m 1
 213 593 l 1
 213 400 l 1
 435 400 l 1
 435 302 l 1
 213 302 l 1
 213 99 l 1
 486 99 l 1
 486 0 l 1
 81 0 l 1
 81 691 l 1
 482 691 l 1
 468 593 l 1
EndSplineSet
Substitution2: "'c2sc' Capitals to Small Capitals lookup 23 subtable" ebreve.sc
Substitution2: "'aalt' Access All Alternates lookup 0 subtable" ebreve.sc
Position2: "'cpsp' Capital Spacing lookup 0 subtable" dx=5 dy=0 dh=10 dv=0
EndChar
StartChar: Edotaccent
Encoding: 278 278 80
Width: 530
GlyphClass: 2
Flags: MW
HStem: 0 99<213 486 213 486> 302 98<213 435 213 435> 593 98<213 468 213 213> 768 155<259.5 307>
VStem: 81 132<99 302 400 593> 203 161<823.5 867>
AnchorPoint: "Anchor-14" 0 0 basechar 0
AnchorPoint: "Anchor-13" 0 0 basechar 0
AnchorPoint: "Anchor-12" 286 923 basechar 0
AnchorPoint: "Anchor-11" 456 0 basechar 0
AnchorPoint: "Anchor-10" 284 0 basechar 0
LayerCount: 2
Back
Fore
SplineSet
283 923 m 0xf4
 331 923 364 889 364 845 c 0
 364 802 331 768 283 768 c 0
 236 768 203 802 203 845 c 0
 203 889 236 923 283 923 c 0xf4
482 691 m 1
 468 593 l 1
 213 593 l 1
 213 400 l 1
 435 400 l 1
 435 302 l 1
 213 302 l 1
 213 99 l 1
 486 99 l 1
 486 0 l 1
 81 0 l 1
 81 691 l 1xe8
 482 691 l 1
EndSplineSet
Substitution2: "'c2sc' Capitals to Small Capitals lookup 26 subtable" edotaccent.sc
Substitution2: "'aalt' Access All Alternates lookup 0 subtable" edotaccent.sc
Position2: "'cpsp' Capital Spacing lookup 0 subtable" dx=5 dy=0 dh=10 dv=0
EndChar

StartChar: Eogonek
Encoding: 280 280 33
Width: 530
GlyphClass: 2
Flags: MW
HStem: -239 85<361 377.5> 0 99<213 317 446 486 446 446> 302 98<213 435 213 435> 593 98<213 468 213 213>
VStem: 81 132<99 302 400 593> 227 99<-123 -102>
AnchorPoint: "Anchor-11" 284 0 basechar 0
AnchorPoint: "Anchor-10" 74 691 basechar 0
AnchorPoint: "Anchor-9" 284 691 basechar 0
AnchorPoint: "Anchor-8" 456 0 basechar 0
LayerCount: 2
Fore
SplineSet
486 99 m 1
 486 0 l 1
 446 0 l 1
 346 -40 326 -76 326 -108 c 0
 326 -138 342 -154 380 -154 c 0
 400 -154 418 -152 441 -147 c 1
 431 -232 l 1
 410 -236 391 -239 364 -239 c 0
 283 -239 227 -195 227 -130 c 0
 227 -74 259 -32 317 0 c 1xfc
 81 0 l 1
 81 691 l 1
 482 691 l 1
 468 593 l 1
 213 593 l 1
 213 400 l 1
 435 400 l 1
 435 302 l 1
 213 302 l 1
 213 99 l 1
 486 99 l 1
EndSplineSet
Substitution2: "'c2sc' Capitals to Small Capitals lookup 23 subtable" eogonek.sc
Substitution2: "'aalt' Access All Alternates lookup 0 subtable" eogonek.sc
Position2: "'cpsp' Capital Spacing lookup 0 subtable" dx=5 dy=0 dh=10 dv=0
EndChar
StartChar: eogonek
Encoding: 281 281 429
Width: 552
GlyphClass: 2
Flags: MW
HStem: -231 85<323 339.5> -13 21G -13 95 225 83<176 384 176 508 176 384> 453 91<251 317>
VStem: 43 133<225 225 225 308 225 341.5> 189 99<-115 -98.5> 384 127<308 314 314 357.5>
AnchorPoint: "Anchor-14" 0 0 basechar 0
AnchorPoint: "Anchor-13" 0 0 basechar 0
AnchorPoint: "Anchor-12" 281 529 basechar 0
AnchorPoint: "Anchor-11" 418 8 basechar 0
AnchorPoint: "Anchor-10" 293 0 basechar 0
LayerCount: 2
Back
Fore
SplineSet
511 277 m 0xdd
 511 260 509 239 508 225 c 1
 176 225 l 1xbd
 186 117 236 82 306 82 c 0
 353 82 392 97 438 129 c 1
 491 56 l 1
 461 31 426 11 387 -1 c 1
 305 -37 288 -70 288 -100 c 0
 288 -130 304 -146 342 -146 c 0
 362 -146 380 -144 403 -139 c 1
 393 -224 l 1
 372 -228 353 -231 326 -231 c 0
 245 -231 189 -187 189 -122 c 0xbf
 189 -75 217 -39 264 -13 c 1
 120 0 43 105 43 261 c 0
 43 422 128 544 278 544 c 0
 426 544 511 444 511 277 c 0xdd
384 308 m 1
 384 314 l 2
 384 401 353 453 281 453 c 0
 221 453 183 413 176 308 c 1
 384 308 l 1
EndSplineSet
Substitution2: "'smcp' Lowercase to Small Capitals lookup 27 subtable" eogonek.sc
Substitution2: "'aalt' Access All Alternates lookup 0 subtable" eogonek.sc
EndChar
StartChar: gcircumflex
Encoding: 285 285 456
Width: 537
GlyphClass: 2
Flags: MW
HStem: -218 90<205.5 309.5 205.5 342.5> 5 96<168 327 246 301> 169 83<255.5 292.5 232.5 333.5> 457 87<231 258 194 292> 483 61
VStem: 15 115<-78.5 -52 -78.5 -52> 39 129<324 386.5 324 411.5> 70 112<79.5 146> 356 124<323.5 380 295.5 390.5> 391 129<-79 -38.5>
AnchorPoint: "Anchor-14" 0 0 basechar 0
AnchorPoint: "Anchor-13" 0 0 basechar 0
AnchorPoint: "Anchor-12" 271 808 basechar 0
AnchorPoint: "Anchor-11" 0 0 basechar 0
AnchorPoint: "Anchor-10" 252 -206 basechar 0
LayerCount: 2
Back
Fore
SplineSet
139 627 m 1xf280
 90 682 l 1
 228 808 l 1
 309 808 l 1
 448 682 l 1
 399 627 l 1
 269 715 l 1
 139 627 l 1xf280
505 603 m 1
 537 501 l 1
 497 487 447 483 384 483 c 1
 448 454 480 413 480 347 c 0
 480 244 400 169 267 169 c 0
 244 169 224 171 204 177 c 1
 191 168 182 154 182 138 c 0
 182 119 193 101 246 101 c 2xe980
 327 101 l 2
 444 101 520 38 520 -49 c 0
 520 -155 429 -218 256 -218 c 0
 68 -218 15 -158 15 -52 c 1
 130 -52 l 1xf440
 130 -105 153 -128 258 -128 c 0
 361 -128 391 -100 391 -58 c 0
 391 -19 360 5 301 5 c 2
 221 5 l 2
 115 5 70 52 70 107 c 0xf140
 70 144 93 181 132 205 c 1
 67 239 39 286 39 354 c 0
 39 469 130 544 258 544 c 0
 383 541 441 569 505 603 c 1
260 457 m 0xf280
 202 457 168 417 168 356 c 0
 168 292 203 252 262 252 c 0
 323 252 356 290 356 357 c 0
 356 424 324 457 260 457 c 0xf280
EndSplineSet
Substitution2: "'smcp' Lowercase to Small Capitals lookup 27 subtable" gcircumflex.sc
Substitution2: "'aalt' Access All Alternates lookup 0 subtable" gcircumflex.sc
EndChar
StartChar: Gdotaccent
Encoding: 288 288 105
Width: 638
GlyphClass: 2
Flags: MW
HStem: -15 101<292 365.5 292 390> 293 98<352 456 352 352> 606 100<315 393.5> 768 155<329.5 377>
VStem: 43 139<251.5 439 251.5 463> 273 161<823.5 867> 456 130<113 293 293 293>
AnchorPoint: "Anchor-14" 0 0 basechar 0
AnchorPoint: "Anchor-13" 0 0 basechar 0
AnchorPoint: "Anchor-12" 356 923 basechar 0
AnchorPoint: "Anchor-11" 0 0 basechar 0
AnchorPoint: "Anchor-10" 345 0 basechar 0
LayerCount: 2
Back
Fore
SplineSet
353 923 m 0
 401 923 434 889 434 845 c 0
 434 802 401 768 353 768 c 0
 306 768 273 802 273 845 c 0
 273 889 306 923 353 923 c 0
358 706 m 0
 456 706 522 675 580 625 c 1
 508 550 l 1
 462 588 423 606 364 606 c 0
 266 606 182 532 182 346 c 0
 182 157 238 86 346 86 c 0
 385 86 423 94 456 113 c 1
 456 293 l 1
 352 293 l 1
 338 391 l 1
 586 391 l 1
 586 53 l 1xea
 519 11 437 -15 343 -15 c 0
 151 -15 43 109 43 346 c 0
 43 580 188 706 358 706 c 0
EndSplineSet
Substitution2: "'c2sc' Capitals to Small Capitals lookup 26 subtable" gdotaccent.sc
Substitution2: "'aalt' Access All Alternates lookup 0 subtable" gdotaccent.sc
Position2: "'cpsp' Capital Spacing lookup 0 subtable" dx=5 dy=0 dh=10 dv=0
EndChar

StartChar: gdotaccent
Encoding: 289 289 172
Width: 537
GlyphClass: 2
Flags: MW
HStem: -218 90<205.5 309.5 205.5 342.5> 5 96<168 327 246 301> 169 83<255.5 292.5 232.5 333.5> 457 87<231 258 194 292> 483 61 642 155<242.5 290>
VStem: 15 115<-78.5 -52 -78.5 -52> 39 129<324 386.5 324 411.5> 70 112<79.5 146> 186 161<697.5 741> 356 124<323.5 380 295.5 390.5> 391 129<-79 -38.5>
AnchorPoint: "Anchor-11" 0 0 basechar 0
AnchorPoint: "Anchor-10" 0 0 basechar 0
AnchorPoint: "Anchor-9" 267 529 basechar 0
AnchorPoint: "Anchor-8" 0 0 basechar 0
LayerCount: 2
Fore
SplineSet
266 797 m 0xf560
 314 797 347 763 347 719 c 0
 347 676 314 642 266 642 c 0
 219 642 186 676 186 719 c 0
 186 763 219 797 266 797 c 0xf560
537 501 m 1
 497 487 447 483 384 483 c 1
 448 454 480 413 480 347 c 0
 480 244 400 169 267 169 c 0
 244 169 224 171 204 177 c 1
 191 168 182 154 182 138 c 0
 182 119 193 101 246 101 c 2xeca0
 327 101 l 2
 444 101 520 38 520 -49 c 0
 520 -155 429 -218 256 -218 c 0
 68 -218 15 -158 15 -52 c 1
 130 -52 l 1xf610
 130 -105 153 -128 258 -128 c 0
 361 -128 391 -100 391 -58 c 0
 391 -19 360 5 301 5 c 2
 221 5 l 2
 115 5 70 52 70 107 c 0xf490
 70 144 93 181 132 205 c 1
 67 239 39 286 39 354 c 0xf520
 39 469 130 544 258 544 c 1
 383 541 441 569 505 603 c 1
 537 501 l 1
260 457 m 0xf520
 202 457 168 417 168 356 c 0
 168 292 203 252 262 252 c 0
 323 252 356 290 356 357 c 0
 356 424 324 457 260 457 c 0xf520
EndSplineSet
Substitution2: "'smcp' Lowercase to Small Capitals lookup 24 subtable" gdotaccent.sc
Substitution2: "'aalt' Access All Alternates lookup 0 subtable" gdotaccent.sc
EndChar
StartChar: Hcircumflex
Encoding: 292 292 112
Width: 672
GlyphClass: 2
Flags: MW
HStem: 0 21G<81 213 81 81 459 592 459 459> 309 105<213 459 213 459> 671 20G<81 213 213 213 459 592 592 592>
VStem: 81 132<0 309 0 414 414 691> 459 133<0 309 309 309 414 691 0 691>
AnchorPoint: "Anchor-14" 336 346 basechar 0
AnchorPoint: "Anchor-13" 446 810 basechar 0
AnchorPoint: "Anchor-12" 337 933 basechar 0
AnchorPoint: "Anchor-11" 0 0 basechar 0
AnchorPoint: "Anchor-10" 336 0 basechar 0
LayerCount: 2
Back
Fore
SplineSet
466 757 m 1
 336 839 l 1
 206 757 l 1
 157 812 l 1
 296 933 l 1
 376 933 l 1
 515 812 l 1
 466 757 l 1
459 0 m 1
 459 309 l 1
 213 309 l 1
 213 0 l 1
 81 0 l 1
 81 691 l 1
 213 691 l 1
 213 414 l 1
 459 414 l 1
 459 691 l 1
 592 691 l 1
 592 0 l 1
 459 0 l 1
EndSplineSet
Substitution2: "'c2sc' Capitals to Small Capitals lookup 26 subtable" hcircumflex.sc
Substitution2: "'aalt' Access All Alternates lookup 0 subtable" hcircumflex.sc
Position2: "'cpsp' Capital Spacing lookup 0 subtable" dx=5 dy=0 dh=10 dv=0
EndChar
StartChar: hcircumflex
Encoding: 293 293 472
Width: 581
GlyphClass: 2
Flags: MW
HStem: 0 21G<77 205 77 77 381 509 381 381> 448 96<327.5 335.5> 733 20G<205 205>
VStem: 77 128<0 369 0 465 465 740 740 740> 381 128<0 363 363 383 0 396>
AnchorPoint: "Anchor-14" 290 265 basechar 0
AnchorPoint: "Anchor-13" 399 859 basechar 0
AnchorPoint: "Anchor-12" 290 982 basechar 0
AnchorPoint: "Anchor-11" 0 0 basechar 0
AnchorPoint: "Anchor-10" 294 0 basechar 0
LayerCount: 2
Back
Fore
SplineSet
289 888 m 1
 159 806 l 1
 110 861 l 1
 249 982 l 1
 329 982 l 1
 468 861 l 1
 419 806 l 1
 289 888 l 1
359 544 m 0
 453 544 509 483 509 383 c 2
 509 0 l 1
 381 0 l 1
 381 363 l 2
 381 429 355 448 316 448 c 0
 271 448 236 417 205 369 c 1
 205 0 l 1
 77 0 l 1
 77 740 l 1
 205 753 l 1
 205 465 l 1
 245 515 296 544 359 544 c 0
EndSplineSet
Substitution2: "'smcp' Lowercase to Small Capitals lookup 27 subtable" hcircumflex.sc
Substitution2: "'aalt' Access All Alternates lookup 0 subtable" hcircumflex.sc
EndChar

StartChar: Hbar
Encoding: 294 294 41
Width: 682
GlyphClass: 2
Flags: MW
HStem: 0 21G<86 218 86 86 464 597 464 464> 309 105<218 464 218 464> 504 81<23 86 23 86 218 464 597 659> 504 187<23 218 23 218 86 218 86 464>
VStem: 86 132<0 309 0 414 414 504 585 691> 464 133<0 309 309 309 414 504 0 504 585 691>
AnchorPoint: "Anchor-11" 0 0 basechar 0
AnchorPoint: "Anchor-10" 79 691 basechar 0
AnchorPoint: "Anchor-9" 341 691 basechar 0
AnchorPoint: "Anchor-8" 0 0 basechar 0
LayerCount: 2
Fore
SplineSet
659 504 m 1xdc
 597 504 l 1
 597 0 l 1
 464 0 l 1
 464 309 l 1
 218 309 l 1
 218 0 l 1
 86 0 l 1
 86 504 l 1
 23 504 l 1xdc
 23 585 l 1
 86 585 l 1xec
 86 691 l 1
 218 691 l 1xdc
 218 585 l 1
 464 585 l 1xec
 464 691 l 1
 597 691 l 1xdc
 597 585 l 1
 659 585 l 1xec
 659 504 l 1xdc
464 504 m 1
 218 504 l 1
 218 414 l 1
 464 414 l 1
 464 504 l 1
EndSplineSet
Substitution2: "'c2sc' Capitals to Small Capitals lookup 23 subtable" hbar.sc
Substitution2: "'aalt' Access All Alternates lookup 0 subtable" hbar.sc
Position2: "'cpsp' Capital Spacing lookup 0 subtable" dx=5 dy=0 dh=10 dv=0
EndChar
StartChar: hbar
Encoding: 295 295 470
Width: 589
GlyphClass: 2
Flags: MW
HStem: 0 21G<84 212 84 84 389 517 389 389> 448 96<335 342.5> 601 82<17 84 17 84 212 354> 733 20G<212 212>
VStem: 84 128<0 369 0 465 465 601 683 740 740 740> 389 128<0 363 363 383 0 396>
AnchorPoint: "Anchor-14" 297 265 basechar 0
AnchorPoint: "Anchor-13" 0 0 basechar 0
AnchorPoint: "Anchor-12" 297 741 basechar 0
AnchorPoint: "Anchor-11" 0 0 basechar 0
AnchorPoint: "Anchor-10" 301 0 basechar 0
LayerCount: 2
Back
Fore
SplineSet
367 544 m 0
 460 544 517 483 517 383 c 2
 517 0 l 1
 389 0 l 1
 389 363 l 2
 389 429 362 448 323 448 c 0
 278 448 243 417 212 369 c 1
 212 0 l 1
 84 0 l 1
 84 601 l 1
 17 601 l 1
 17 683 l 1
 84 683 l 1
 84 740 l 1
 212 753 l 1
 212 683 l 1
 354 683 l 1
 354 601 l 1
 212 601 l 1
 212 465 l 1
 252 516 303 544 367 544 c 0
EndSplineSet
Substitution2: "'smcp' Lowercase to Small Capitals lookup 27 subtable" hbar.sc
Substitution2: "'aalt' Access All Alternates lookup 0 subtable" hbar.sc
EndChar

StartChar: Itilde
Encoding: 296 296 53
Width: 295
GlyphClass: 2
Flags: MW
HStem: 0 21G<81 214 81 81> 671 20G<81 214 214 214> 770 94<187.5 215.5 187.5 233.5> 817 93<79 108>
VStem: 81 133<0 691>
AnchorPoint: "Anchor-11" 0 0 basechar 0
AnchorPoint: "Anchor-10" 74 691 basechar 0
AnchorPoint: "Anchor-9" 147 691 basechar 0
AnchorPoint: "Anchor-8" 208 0 basechar 0
LayerCount: 2
Fore
SplineSet
209 770 m 0xe8
 147 770 125 817 91 817 c 0
 67 817 54 801 38 772 c 1
 -31 806 l 1
 -7 863 33 910 90 910 c 0xd8
 148 910 170 864 205 864 c 0
 226 864 240 878 258 907 c 1
 326 873 l 1
 300 811 258 770 209 770 c 0xe8
214 0 m 1xd8
 81 0 l 1
 81 691 l 1
 214 691 l 1
 214 0 l 1xd8
EndSplineSet
Substitution2: "'c2sc' Capitals to Small Capitals lookup 23 subtable" itilde.sc
Substitution2: "'aalt' Access All Alternates lookup 0 subtable" itilde.sc
Position2: "'cpsp' Capital Spacing lookup 0 subtable" dx=5 dy=0 dh=10 dv=0
EndChar

StartChar: itilde
Encoding: 297 297 187
Width: 282
GlyphClass: 2
Flags: MW
HStem: 0 21G<77 205 77 77> 509 20G<77 205 205 205> 644 94<180.5 208.5 180.5 226.5> 691 93<72 101> 727 20G<319 319>
VStem: 77 128<0 529>
AnchorPoint: "Anchor-11" 0 0 basechar 0
AnchorPoint: "Anchor-10" 0 0 basechar 0
AnchorPoint: "Anchor-9" 141 529 basechar 0
AnchorPoint: "Anchor-8" 201 0 basechar 0
LayerCount: 2
Fore
SplineSet
202 644 m 0xe4
 140 644 118 691 84 691 c 0
 60 691 47 675 31 646 c 1
 -38 680 l 1
 -14 737 26 784 83 784 c 0xd4
 141 784 163 738 198 738 c 0
 219 738 233 752 251 781 c 1xe4
 319 747 l 1xcc
 293 685 251 644 202 644 c 0xe4
205 0 m 1xcc
 77 0 l 1
 77 529 l 1
 205 529 l 1
 205 0 l 1xcc
EndSplineSet
Substitution2: "'smcp' Lowercase to Small Capitals lookup 24 subtable" itilde.sc
Substitution2: "'aalt' Access All Alternates lookup 0 subtable" itilde.sc
EndChar
StartChar: imacron
Encoding: 299 299 493
Width: 282
GlyphClass: 2
Flags: MW
HStem: 0 21G<77 205 77 77> 509 20G<77 205 205 205> 661 91<-5 286 -5 286>
VStem: 77 128<0 529 0 529>
AnchorPoint: "Anchor-14" 0 0 basechar 0
AnchorPoint: "Anchor-13" 0 0 basechar 0
AnchorPoint: "Anchor-12" 142 741 basechar 0
AnchorPoint: "Anchor-11" 201 0 basechar 0
AnchorPoint: "Anchor-10" 141 0 basechar 0
LayerCount: 2
Back
Fore
SplineSet
286 661 m 1
 -5 661 l 1
 -5 752 l 1
 286 752 l 1
 286 661 l 1
205 529 m 1
 205 0 l 1
 77 0 l 1
 77 529 l 1
 205 529 l 1
EndSplineSet
Substitution2: "'smcp' Lowercase to Small Capitals lookup 27 subtable" imacron.sc
Substitution2: "'aalt' Access All Alternates lookup 0 subtable" imacron.sc
EndChar

StartChar: Ibreve
Encoding: 300 300 46
Width: 295
GlyphClass: 2
Flags: MW
HStem: 0 21G<81 214 81 81> 671 20G<81 214 214 214> 754 92<123 169 123 193>
VStem: 81 133<0 691>
AnchorPoint: "Anchor-11" 0 0 basechar 0
AnchorPoint: "Anchor-10" 74 691 basechar 0
AnchorPoint: "Anchor-9" 147 691 basechar 0
AnchorPoint: "Anchor-8" 208 0 basechar 0
LayerCount: 2
Fore
SplineSet
146 754 m 0
 52 754 -8 818 -16 898 c 1
 59 913 l 1
 72 874 100 846 146 846 c 0
 192 846 222 874 234 913 c 1
 310 898 l 1
 302 818 240 754 146 754 c 0
214 0 m 1
 81 0 l 1
 81 691 l 1
 214 691 l 1
 214 0 l 1
EndSplineSet
Substitution2: "'c2sc' Capitals to Small Capitals lookup 23 subtable" ibreve.sc
Substitution2: "'aalt' Access All Alternates lookup 0 subtable" ibreve.sc
Position2: "'cpsp' Capital Spacing lookup 0 subtable" dx=5 dy=0 dh=10 dv=0
EndChar

StartChar: ibreve
Encoding: 301 301 179
Width: 282
GlyphClass: 2
Flags: MW
HStem: 0 21G<77 205 77 77> 509 20G<77 205 205 205> 637 92<117 163 117 187>
VStem: 77 128<0 529>
AnchorPoint: "Anchor-11" 0 0 basechar 0
AnchorPoint: "Anchor-10" 0 0 basechar 0
AnchorPoint: "Anchor-9" 141 529 basechar 0
AnchorPoint: "Anchor-8" 201 0 basechar 0
LayerCount: 2
Fore
SplineSet
140 637 m 0
 46 637 -14 702 -22 792 c 1
 53 806 l 1
 66 757 94 729 140 729 c 0
 186 729 216 757 228 806 c 1
 304 792 l 1
 296 702 234 637 140 637 c 0
205 0 m 1
 77 0 l 1
 77 529 l 1
 205 529 l 1
 205 0 l 1
EndSplineSet
Substitution2: "'smcp' Lowercase to Small Capitals lookup 24 subtable" ibreve.sc
Substitution2: "'aalt' Access All Alternates lookup 0 subtable" ibreve.sc
EndChar

StartChar: Iogonek
Encoding: 302 302 52
Width: 295
GlyphClass: 2
Flags: MW
HStem: -239 85<113 129.5> 0 21G<198 214 198 198> 671 20G<81 214 214 214>
VStem: -21 99<-123 -100.5> 81 133<6 691 0 691>
AnchorPoint: "Anchor-11" 0 0 basechar 0
AnchorPoint: "Anchor-10" 74 691 basechar 0
AnchorPoint: "Anchor-9" 147 691 basechar 0
AnchorPoint: "Anchor-8" 208 0 basechar 0
LayerCount: 2
Fore
SplineSet
214 691 m 1
 214 0 l 1xe8
 198 0 l 1
 98 -40 78 -76 78 -108 c 0
 78 -138 94 -154 132 -154 c 0xf0
 152 -154 170 -152 193 -147 c 1
 183 -232 l 1xe8
 162 -236 143 -239 116 -239 c 0
 35 -239 -21 -195 -21 -130 c 0xf0
 -21 -71 15 -27 81 6 c 1
 81 691 l 1
 214 691 l 1
EndSplineSet
Substitution2: "'c2sc' Capitals to Small Capitals lookup 23 subtable" iogonek.sc
Substitution2: "'aalt' Access All Alternates lookup 0 subtable" iogonek.sc
Position2: "'cpsp' Capital Spacing lookup 0 subtable" dx=5 dy=0 dh=10 dv=0
EndChar

StartChar: iogonek
Encoding: 303 303 186
Width: 282
GlyphClass: 2
Flags: MW
HStem: -239 85<106 122.5> 0 21G<191 205 191 191> 509 20G<77 205 205 205> 642 155<116.5 164>
VStem: -28 99<-123 -100> 60 161<697.5 741> 77 128<8 529 0 529>
AnchorPoint: "Anchor-11" 0 0 basechar 0
AnchorPoint: "Anchor-10" 0 0 basechar 0
AnchorPoint: "Anchor-9" 141 529 basechar 0
AnchorPoint: "Anchor-8" 201 0 basechar 0
LayerCount: 2
Fore
SplineSet
140 642 m 0xf4
 93 642 60 676 60 719 c 0
 60 763 93 797 140 797 c 0
 188 797 221 763 221 719 c 0
 221 676 188 642 140 642 c 0xf4
77 529 m 1xf2
 205 529 l 1
 205 0 l 1xf2
 191 0 l 1
 91 -40 71 -76 71 -108 c 0
 71 -138 87 -154 125 -154 c 0
 145 -154 163 -152 186 -147 c 1
 176 -232 l 1
 155 -236 136 -239 109 -239 c 0
 28 -239 -28 -195 -28 -130 c 0xf8
 -28 -70 9 -26 77 8 c 1
 77 529 l 1xf2
EndSplineSet
Substitution2: "'smcp' Lowercase to Small Capitals lookup 24 subtable" iogonek.sc
Substitution2: "'aalt' Access All Alternates lookup 0 subtable" iogonek.sc
EndChar
StartChar: Idotaccent
Encoding: 304 304 127
Width: 294
GlyphClass: 2
Flags: MW
HStem: 0 21G<81 213 81 81> 671 20G<81 213 213 213> 768 155<122.5 170>
VStem: 66 161<823.5 867> 81 132<0 691 0 691>
AnchorPoint: "Anchor-14" 0 0 basechar 0
AnchorPoint: "Anchor-13" 0 0 basechar 0
AnchorPoint: "Anchor-12" 149 923 basechar 0
AnchorPoint: "Anchor-11" 208 0 basechar 0
AnchorPoint: "Anchor-10" 147 0 basechar 0
LayerCount: 2
Back
Fore
SplineSet
146 923 m 0xf0
 194 923 227 889 227 845 c 0
 227 802 194 768 146 768 c 0
 99 768 66 802 66 845 c 0
 66 889 99 923 146 923 c 0xf0
213 691 m 1xe8
 213 0 l 1
 81 0 l 1
 81 691 l 1
 213 691 l 1xe8
EndSplineSet
Substitution2: "'c2sc' Capitals to Small Capitals lookup 26 subtable" i.sc.loclTRK
Substitution2: "'aalt' Access All Alternates lookup 0 subtable" i.sc.loclTRK
Position2: "'cpsp' Capital Spacing lookup 0 subtable" dx=5 dy=0 dh=10 dv=0
EndChar

StartChar: IJ
Encoding: 306 306 44
Width: 606
GlyphClass: 2
Flags: MW
HStem: 0 21G<81 214 81 81> 671 20G<81 214 214 214 397 530 530 530>
VStem: 81 133<0 691> 397 133<106 691>
AnchorPoint: "Anchor-11" 0 0 basechar 0
AnchorPoint: "Anchor-10" 74 691 basechar 0
AnchorPoint: "Anchor-9" 464 691 basechar 0
AnchorPoint: "Anchor-8" 208 0 basechar 0
LayerCount: 2
Fore
SplineSet
214 0 m 1
 81 0 l 1
 81 691 l 1
 214 691 l 1
 214 0 l 1
530 101 m 2
 530 -60 441 -118 327 -155 c 1
 292 -60 l 1
 382 -25 397 19 397 106 c 2
 397 691 l 1
 530 691 l 1
 530 101 l 2
EndSplineSet
Substitution2: "'c2sc' Capitals to Small Capitals lookup 23 subtable" ij.sc
Substitution2: "'aalt' Access All Alternates lookup 0 subtable" ij.sc
Position2: "'cpsp' Capital Spacing lookup 0 subtable" dx=5 dy=0 dh=10 dv=0
EndChar

StartChar: ij
Encoding: 307 307 184
Width: 563
GlyphClass: 2
Flags: MW
HStem: -217 21G<293 293> 0 21G<77 205 77 77> 509 20G<77 205 205 205 358 486 486 486> 642 155<116.5 164 398.5 446>
VStem: 60 161<697.5 741> 77 128<0 529> 342 161<697.5 741> 358 128<39 47 47 529>
AnchorPoint: "Anchor-11" 0 0 basechar 0
AnchorPoint: "Anchor-10" 0 0 basechar 0
AnchorPoint: "Anchor-9" 422 529 basechar 0
AnchorPoint: "Anchor-8" 201 0 basechar 0
LayerCount: 2
Fore
SplineSet
140 797 m 0xfa
 188 797 221 763 221 719 c 0
 221 676 188 642 140 642 c 0
 93 642 60 676 60 719 c 0
 60 763 93 797 140 797 c 0xfa
422 797 m 0
 470 797 503 763 503 719 c 0
 503 676 470 642 422 642 c 0
 375 642 342 676 342 719 c 0
 342 763 375 797 422 797 c 0
205 0 m 1xf5
 77 0 l 1
 77 529 l 1
 205 529 l 1
 205 0 l 1xf5
486 47 m 2
 486 -115 412 -169 293 -217 c 1
 252 -124 l 1
 321 -92 358 -65 358 39 c 2
 358 529 l 1
 486 529 l 1
 486 47 l 2
EndSplineSet
Substitution2: "'smcp' Lowercase to Small Capitals lookup 24 subtable" ij.sc
Substitution2: "'aalt' Access All Alternates lookup 0 subtable" ij.sc
EndChar
StartChar: Jcircumflex
Encoding: 308 308 138
Width: 312
GlyphClass: 2
Flags: MW
HStem: 671 20G<102 235 235 235>
VStem: 102 133<106 691>
AnchorPoint: "Anchor-14" 0 0 basechar 0
AnchorPoint: "Anchor-13" 279 810 basechar 0
AnchorPoint: "Anchor-12" 170 933 basechar 0
AnchorPoint: "Anchor-11" 0 0 basechar 0
AnchorPoint: "Anchor-10" 0 0 basechar 0
LayerCount: 2
Back
Fore
SplineSet
299 757 m 1
 169 839 l 1
 39 757 l 1
 -10 812 l 1
 129 933 l 1
 209 933 l 1
 348 812 l 1
 299 757 l 1
235 691 m 1
 235 101 l 2
 235 -60 146 -118 32 -155 c 1
 -3 -60 l 1
 87 -25 102 19 102 106 c 2
 102 691 l 1
 235 691 l 1
EndSplineSet
Substitution2: "'c2sc' Capitals to Small Capitals lookup 26 subtable" jcircumflex.sc
Substitution2: "'aalt' Access All Alternates lookup 0 subtable" jcircumflex.sc
Position2: "'cpsp' Capital Spacing lookup 0 subtable" dx=5 dy=0 dh=10 dv=0
EndChar
StartChar: jcircumflex
Encoding: 309 309 501
Width: 281
GlyphClass: 2
Flags: MW
HStem: -217 21G<11 11> 509 20G<76 204 204 204>
VStem: 76 128<39 47 47 529>
AnchorPoint: "Anchor-14" 0 0 basechar 0
AnchorPoint: "Anchor-13" 0 0 basechar 0
AnchorPoint: "Anchor-12" 142 808 basechar 0
AnchorPoint: "Anchor-11" 0 0 basechar 0
AnchorPoint: "Anchor-10" 140 -206 basechar 0
LayerCount: 2
Back
Fore
SplineSet
10 627 m 1
 -39 682 l 1
 99 808 l 1
 180 808 l 1
 319 682 l 1
 270 627 l 1
 140 715 l 1
 10 627 l 1
204 529 m 1
 204 47 l 2
 204 -115 130 -169 11 -217 c 1
 -30 -124 l 1
 39 -92 76 -65 76 39 c 2
 76 529 l 1
 204 529 l 1
EndSplineSet
Substitution2: "'smcp' Lowercase to Small Capitals lookup 27 subtable" jcircumflex.sc
Substitution2: "'aalt' Access All Alternates lookup 0 subtable" jcircumflex.sc
EndChar
StartChar: Kcommaaccent
Encoding: 310 310 142
Width: 613
GlyphClass: 2
Flags: MW
HStem: 0 21G<81 213 81 81 463 463 463 620> 671 20G<81 213 213 213 458 601 601 601>
VStem: 81 132<0 691 0 691> 252 139<-151 -121>
AnchorPoint: "Anchor-14" 0 0 basechar 0
AnchorPoint: "Anchor-13" 0 0 basechar 0
AnchorPoint: "Anchor-12" 329 691 basechar 0
AnchorPoint: "Anchor-11" 0 0 basechar 0
AnchorPoint: "Anchor-10" 320 0 basechar 0
LayerCount: 2
Back
Fore
SplineSet
213 691 m 1
 213 0 l 1
 81 0 l 1
 81 691 l 1
 213 691 l 1
601 691 m 1
 362 378 l 1
 620 0 l 1
 463 0 l 1
 219 369 l 1
 458 691 l 1
 601 691 l 1
322 -72 m 0
 361 -72 391 -101 391 -140 c 0
 391 -162 384 -180 364 -221 c 2
 320 -312 l 1
 253 -312 l 1
 281 -196 l 1
 264 -183 252 -164 252 -140 c 0
 252 -102 282 -72 322 -72 c 0
EndSplineSet
Substitution2: "'c2sc' Capitals to Small Capitals lookup 26 subtable" kcommaaccent.sc
Substitution2: "'aalt' Access All Alternates lookup 0 subtable" kcommaaccent.sc
Position2: "'cpsp' Capital Spacing lookup 0 subtable" dx=5 dy=0 dh=10 dv=0
EndChar
StartChar: kcommaaccent
Encoding: 311 311 508
Width: 534
GlyphClass: 2
Flags: MW
HStem: 0 21G<77 205 77 77 392 392 392 539> 509 20G<387 522 522 522> 721 20G<77 77> 735 20G<205 205>
VStem: 77 128<0 741 741 741> 198 139<-151 -121>
AnchorPoint: "Anchor-14" 0 0 basechar 0
AnchorPoint: "Anchor-13" 0 0 basechar 0
AnchorPoint: "Anchor-12" 289 741 basechar 0
AnchorPoint: "Anchor-11" 0 0 basechar 0
AnchorPoint: "Anchor-10" 266 0 basechar 0
LayerCount: 2
Back
Fore
SplineSet
205 755 m 1xd8
 205 0 l 1
 77 0 l 1
 77 741 l 1xe8
 205 755 l 1xd8
522 529 m 1
 346 296 l 1
 539 0 l 1
 392 0 l 1
 210 289 l 1
 387 529 l 1
 522 529 l 1
268 -72 m 0xd4
 307 -72 337 -101 337 -140 c 0
 337 -162 330 -180 310 -221 c 2
 266 -312 l 1
 199 -312 l 1
 227 -196 l 1
 210 -183 198 -164 198 -140 c 0
 198 -102 228 -72 268 -72 c 0xd4
EndSplineSet
Substitution2: "'smcp' Lowercase to Small Capitals lookup 27 subtable" kcommaaccent.sc
Substitution2: "'aalt' Access All Alternates lookup 0 subtable" kcommaaccent.sc
EndChar

StartChar: kgreenlandic
Encoding: 312 312 193
Width: 532
GlyphClass: 2
Flags: MW
HStem: 0 21G<77 205 77 77 390 390 390 537> 509 20G<77 205 205 205 385 520 520 520>
VStem: 77 128<0 529>
LayerCount: 2
Fore
SplineSet
205 0 m 1
 77 0 l 1
 77 529 l 1
 205 529 l 1
 205 0 l 1
344 286 m 1
 537 0 l 1
 390 0 l 1
 208 279 l 1
 385 529 l 1
 520 529 l 1
 344 286 l 1
EndSplineSet
Substitution2: "'smcp' Lowercase to Small Capitals lookup 24 subtable" kgreenlandic.sc
Substitution2: "'aalt' Access All Alternates lookup 0 subtable" kgreenlandic.sc
EndChar
StartChar: lacute
Encoding: 314 314 513
Width: 295
GlyphClass: 2
Flags: MW
HStem: -15 21G<161.5 218.5> -15 103<161.5 236> 721 20G<72 72> 735 20G<200 200>
VStem: 72 128<121 125 125 741 741 741>
AnchorPoint: "Anchor-14" 328 378 basechar 0
AnchorPoint: "Anchor-13" 211 741 basechar 0
AnchorPoint: "Anchor-12" 138 985 basechar 0
AnchorPoint: "Anchor-11" 0 0 basechar 0
AnchorPoint: "Anchor-10" 181 0 basechar 0
LayerCount: 2
Back
Fore
SplineSet
216 985 m 1x98
 267 885 l 1
 38 802 l 1
 5 868 l 1
 216 985 l 1x98
202 -15 m 0
 121 -15 72 34 72 121 c 2
 72 741 l 1xa8
 200 755 l 1
 200 125 l 2
 200 100 209 88 230 88 c 0
 242 88 251 90 260 93 c 1x58
 287 3 l 1
 265 -7 235 -15 202 -15 c 0
EndSplineSet
Substitution2: "'smcp' Lowercase to Small Capitals lookup 27 subtable" lacute.sc
Substitution2: "'aalt' Access All Alternates lookup 0 subtable" lacute.sc
EndChar

StartChar: Lcommaaccent
Encoding: 315 315 61
Width: 506
GlyphClass: 2
Flags: MW
HStem: 0 108<213 475> 671 20G<81 213 213 213>
VStem: 81 132<108 108 108 691> 210 139<-151 -121>
AnchorPoint: "Anchor-11" 278 0 basechar 0
AnchorPoint: "Anchor-10" 0 0 basechar 0
AnchorPoint: "Anchor-9" 147 691 basechar 0
AnchorPoint: "Anchor-8" 0 0 basechar 0
LayerCount: 2
Fore
SplineSet
213 108 m 1xe0
 490 108 l 1
 475 0 l 1
 81 0 l 1
 81 691 l 1
 213 691 l 1
 213 108 l 1xe0
280 -72 m 0xd0
 319 -72 349 -101 349 -140 c 0
 349 -162 342 -180 322 -221 c 2
 278 -312 l 1
 211 -312 l 1
 239 -196 l 1
 222 -183 210 -164 210 -140 c 0
 210 -102 241 -72 280 -72 c 0xd0
EndSplineSet
Substitution2: "'c2sc' Capitals to Small Capitals lookup 23 subtable" lcommaaccent.sc
Substitution2: "'aalt' Access All Alternates lookup 0 subtable" lcommaaccent.sc
Position2: "'cpsp' Capital Spacing lookup 0 subtable" dx=5 dy=0 dh=10 dv=0
EndChar
StartChar: lcommaaccent
Encoding: 316 316 519
Width: 295
GlyphClass: 2
Flags: MW
HStem: -15 21G<161.5 218.5> -15 103<161.5 236> 721 20G<72 72> 735 20G<200 200>
VStem: 72 128<121 125 125 741 741 741> 113 139<-151 -121>
AnchorPoint: "Anchor-14" 328 378 basechar 0
AnchorPoint: "Anchor-13" 211 741 basechar 0
AnchorPoint: "Anchor-12" 136 741 basechar 0
AnchorPoint: "Anchor-11" 0 0 basechar 0
AnchorPoint: "Anchor-10" 181 0 basechar 0
LayerCount: 2
Back
Fore
SplineSet
202 -15 m 0x98
 121 -15 72 34 72 121 c 2
 72 741 l 1xa8
 200 755 l 1
 200 125 l 2
 200 100 209 88 230 88 c 0
 242 88 251 90 260 93 c 1x58
 287 3 l 1
 265 -7 235 -15 202 -15 c 0x98
183 -72 m 0x94
 222 -72 252 -101 252 -140 c 0
 252 -162 245 -180 225 -221 c 2
 181 -312 l 1
 114 -312 l 1
 142 -196 l 1
 125 -183 113 -164 113 -140 c 0
 113 -102 143 -72 183 -72 c 0x94
EndSplineSet
Substitution2: "'smcp' Lowercase to Small Capitals lookup 27 subtable" lcommaaccent.sc
Substitution2: "'aalt' Access All Alternates lookup 0 subtable" lcommaaccent.sc
EndChar
StartChar: Lcaron
Encoding: 317 317 148
Width: 506
GlyphClass: 2
Flags: MW
HStem: 0 108<213 475> 671 20G<81 213 213 213 386 386> 685 20G<283 283>
VStem: 81 132<108 691 108 691 108 691>
AnchorPoint: "Anchor-14" 394 395 basechar 0
AnchorPoint: "Anchor-13" 230 691 basechar 0
AnchorPoint: "Anchor-12" 147 691 basechar 0
AnchorPoint: "Anchor-11" 0 0 basechar 0
AnchorPoint: "Anchor-10" 278 0 basechar 0
LayerCount: 2
Back
Fore
SplineSet
283 705 m 1xb0
 386 691 l 1xd0
 333 490 l 1
 262 501 l 1
 283 705 l 1xb0
213 691 m 1
 213 108 l 1
 490 108 l 1
 475 0 l 1
 81 0 l 1
 81 691 l 1
 213 691 l 1
EndSplineSet
Substitution2: "'c2sc' Capitals to Small Capitals lookup 26 subtable" lcaron.sc
Substitution2: "'aalt' Access All Alternates lookup 0 subtable" lcaron.sc
Position2: "'cpsp' Capital Spacing lookup 0 subtable" dx=5 dy=0 dh=10 dv=0
EndChar
StartChar: lcaron
Encoding: 318 318 517
Width: 334
GlyphClass: 2
Flags: MW
HStem: -15 21G<161.5 218.5> -15 103<161.5 236> 721 20G<72 72> 734 20G<263 263> 735 20G<200 200>
VStem: 72 128<121 125 125 741 741 741>
AnchorPoint: "Anchor-14" 328 378 basechar 0
AnchorPoint: "Anchor-13" 211 741 basechar 0
AnchorPoint: "Anchor-12" 136 741 basechar 0
AnchorPoint: "Anchor-11" 0 0 basechar 0
AnchorPoint: "Anchor-10" 181 0 basechar 0
LayerCount: 2
Back
Fore
SplineSet
202 -15 m 0x8c
 121 -15 72 34 72 121 c 2
 72 741 l 1xa4
 200 755 l 1
 200 125 l 2
 200 100 209 88 230 88 c 0
 242 88 251 90 260 93 c 1x4c
 287 3 l 1
 265 -7 235 -15 202 -15 c 0x8c
263 754 m 1x94
 366 740 l 1
 313 539 l 1
 242 550 l 1
 263 754 l 1x94
EndSplineSet
Substitution2: "'smcp' Lowercase to Small Capitals lookup 27 subtable" lcaron.sc
Substitution2: "'aalt' Access All Alternates lookup 0 subtable" lcaron.sc
EndChar

StartChar: Ldot
Encoding: 319 319 62
Width: 506
GlyphClass: 2
Flags: MW
HStem: 0 108<213 475> 316 155<370.5 418> 671 20G<81 213 213 213>
VStem: 81 132<108 108 108 691> 314 161<371.5 415>
AnchorPoint: "Anchor-11" 278 0 basechar 0
AnchorPoint: "Anchor-10" 0 0 basechar 0
AnchorPoint: "Anchor-9" 147 691 basechar 0
AnchorPoint: "Anchor-8" 0 0 basechar 0
LayerCount: 2
Fore
SplineSet
213 108 m 1
 490 108 l 1
 475 0 l 1
 81 0 l 1
 81 691 l 1
 213 691 l 1
 213 108 l 1
394 471 m 0
 442 471 475 437 475 393 c 0
 475 350 442 316 394 316 c 0
 347 316 314 350 314 393 c 0
 314 437 347 471 394 471 c 0
EndSplineSet
Ligature2: "Ligature Substitution lookup 29 subtable" L periodcentered
Substitution2: "'c2sc' Capitals to Small Capitals lookup 23 subtable" ldot.sc
Substitution2: "'aalt' Access All Alternates lookup 0 subtable" ldot.sc
Position2: "'cpsp' Capital Spacing lookup 0 subtable" dx=5 dy=0 dh=10 dv=0
EndChar

StartChar: ldot
Encoding: 320 320 198
Width: 397
GlyphClass: 2
Flags: MW
HStem: -15 21G<156.5 212.5> -15 103<156.5 235> 299 155<305.5 353> 721 20G<72 72> 735 20G<200 200>
VStem: 72 128<120 129 129 741 741 741> 249 161<354.5 398>
AnchorPoint: "Anchor-11" 160 0 basechar 0
AnchorPoint: "Anchor-10" 0 0 basechar 0
AnchorPoint: "Anchor-9" 136 741 basechar 0
AnchorPoint: "Anchor-8" 0 0 basechar 0
LayerCount: 2
Fore
SplineSet
200 129 m 2x6c
 200 100 209 88 230 88 c 0
 240 88 251 90 260 93 c 1x6c
 287 3 l 1
 261 -8 229 -15 196 -15 c 0
 117 -15 72 32 72 120 c 2
 72 741 l 1xb4
 200 755 l 1
 200 129 l 2x6c
329 454 m 0xae
 377 454 410 420 410 376 c 0
 410 333 377 299 329 299 c 0
 282 299 249 333 249 376 c 0
 249 420 282 454 329 454 c 0xae
EndSplineSet
Ligature2: "Ligature Substitution lookup 29 subtable" l periodcentered
Substitution2: "'smcp' Lowercase to Small Capitals lookup 24 subtable" ldot.sc
Substitution2: "'aalt' Access All Alternates lookup 0 subtable" ldot.sc
EndChar
StartChar: Lslash
Encoding: 321 321 154
Width: 535
GlyphClass: 2
Flags: MW
HStem: 0 108<242 504> 671 20G<110 242 242 242>
VStem: 110 132<108 108 108 239 239 239 424 691>
AnchorPoint: "Anchor-14" 423 395 basechar 0
AnchorPoint: "Anchor-13" 259 691 basechar 0
AnchorPoint: "Anchor-12" 176 691 basechar 0
AnchorPoint: "Anchor-11" 0 0 basechar 0
AnchorPoint: "Anchor-10" 307 0 basechar 0
LayerCount: 2
Back
Fore
SplineSet
242 108 m 1
 518 108 l 1
 504 0 l 1
 110 0 l 1
 110 239 l 1
 61 209 l 1
 15 284 l 1
 110 342 l 1
 110 691 l 1
 242 691 l 1
 242 424 l 1
 385 513 l 1
 431 438 l 1
 242 321 l 1
 242 108 l 1
EndSplineSet
Substitution2: "'c2sc' Capitals to Small Capitals lookup 26 subtable" lslash.sc
Substitution2: "'aalt' Access All Alternates lookup 0 subtable" lslash.sc
Position2: "'cpsp' Capital Spacing lookup 0 subtable" dx=5 dy=0 dh=10 dv=0
EndChar

StartChar: lslash
Encoding: 322 322 199
Width: 325
GlyphClass: 2
Flags: MW
HStem: -15 21G<174.5 230> -15 103<174.5 252> 721 20G<89 89> 735 20G<217 217>
VStem: 89 128<120 129 129 288 288 288 472 741 741 741>
AnchorPoint: "Anchor-11" 177 0 basechar 0
AnchorPoint: "Anchor-10" 0 0 basechar 0
AnchorPoint: "Anchor-9" 153 741 basechar 0
AnchorPoint: "Anchor-8" 0 0 basechar 0
LayerCount: 2
Fore
SplineSet
247 88 m 0x58
 257 88 268 90 277 93 c 1x58
 304 3 l 1
 278 -8 246 -15 214 -15 c 0
 135 -15 89 32 89 120 c 2
 89 288 l 1
 41 259 l 1
 5 342 l 1
 89 393 l 1
 89 741 l 1xa8
 217 755 l 1
 217 472 l 1
 283 512 l 1
 318 428 l 1
 217 366 l 1
 217 129 l 2
 217 100 227 88 247 88 c 0x58
EndSplineSet
Substitution2: "'smcp' Lowercase to Small Capitals lookup 24 subtable" lslash.sc
Substitution2: "'aalt' Access All Alternates lookup 0 subtable" lslash.sc
EndChar
StartChar: nacute
Encoding: 324 324 537
Width: 581
GlyphClass: 2
Flags: MW
HStem: 0 21G<77 205 77 77 381 509 381 381> 448 96<325.5 336> 509 20G<77 188 188 188>
VStem: 77 128<0 368 0 529> 381 128<0 363 363 383 0 396>
AnchorPoint: "Anchor-14" 0 0 basechar 0
AnchorPoint: "Anchor-13" 0 0 basechar 0
AnchorPoint: "Anchor-12" 297 820 basechar 0
AnchorPoint: "Anchor-11" 0 0 basechar 0
AnchorPoint: "Anchor-10" 291 0 basechar 0
LayerCount: 2
Back
Fore
SplineSet
423 720 m 1xb8
 197 630 l 1
 161 695 l 1
 371 820 l 1
 423 720 l 1xb8
359 544 m 0xd8
 454 544 509 484 509 383 c 2
 509 0 l 1
 381 0 l 1
 381 363 l 2
 381 429 356 448 316 448 c 0
 270 448 236 417 205 368 c 1xd8
 205 0 l 1
 77 0 l 1
 77 529 l 1
 188 529 l 1xb8
 198 459 l 1
 239 512 292 544 359 544 c 0xd8
EndSplineSet
Substitution2: "'smcp' Lowercase to Small Capitals lookup 27 subtable" nacute.sc
Substitution2: "'locl' Localized Forms in Latin lookup 7 subtable" nacute.loclPLK
AlternateSubs2: "'aalt' Access All Alternates lookup 1 subtable" nacute.loclPLK nacute.sc
EndChar

StartChar: ncommaaccent
Encoding: 326 326 205
Width: 581
GlyphClass: 2
Flags: MW
HStem: 0 21G<77 205 77 77 381 509 381 381> 448 96<325.5 336> 509 20G<77 188 188 188>
VStem: 77 128<0 368 0 529> 223 139<-151 -121> 381 128<0 363 363 383 0 396>
AnchorPoint: "Anchor-11" 291 0 basechar 0
AnchorPoint: "Anchor-10" 0 0 basechar 0
AnchorPoint: "Anchor-9" 296 529 basechar 0
AnchorPoint: "Anchor-8" 0 0 basechar 0
LayerCount: 2
Fore
SplineSet
359 544 m 0xd4
 454 544 509 484 509 383 c 2
 509 0 l 1
 381 0 l 1
 381 363 l 2
 381 429 356 448 316 448 c 0
 270 448 236 417 205 368 c 1xd4
 205 0 l 1
 77 0 l 1
 77 529 l 1
 188 529 l 1xb4
 198 460 l 1
 239 513 292 544 359 544 c 0xd4
293 -72 m 0xbc
 332 -72 362 -101 362 -140 c 0
 362 -162 355 -180 335 -221 c 2
 291 -312 l 1
 224 -312 l 1
 252 -196 l 1
 235 -183 223 -164 223 -140 c 0
 223 -102 254 -72 293 -72 c 0xbc
EndSplineSet
Substitution2: "'smcp' Lowercase to Small Capitals lookup 24 subtable" ncommaaccent.sc
Substitution2: "'aalt' Access All Alternates lookup 0 subtable" ncommaaccent.sc
EndChar

StartChar: ncaron
Encoding: 328 328 204
Width: 581
GlyphClass: 2
Flags: MW
HStem: 0 21G<77 205 77 77 381 509 381 381> 448 96<325.5 336> 509 20G<77 188 188 188> 724 20G<117 117 475 475>
VStem: 77 128<0 368 0 529> 381 128<0 363 363 383 0 396>
AnchorPoint: "Anchor-11" 291 0 basechar 0
AnchorPoint: "Anchor-10" 0 0 basechar 0
AnchorPoint: "Anchor-9" 296 529 basechar 0
AnchorPoint: "Anchor-8" 0 0 basechar 0
LayerCount: 2
Fore
SplineSet
256 619 m 1xbc
 117 744 l 1
 166 800 l 1
 296 712 l 1
 426 800 l 1
 475 744 l 1
 336 619 l 1
 256 619 l 1xbc
359 544 m 0xdc
 454 544 509 484 509 383 c 2
 509 0 l 1
 381 0 l 1
 381 363 l 2
 381 429 356 448 316 448 c 0
 270 448 236 417 205 368 c 1xdc
 205 0 l 1
 77 0 l 1
 77 529 l 1
 188 529 l 1xbc
 198 460 l 1
 239 513 292 544 359 544 c 0xdc
EndSplineSet
Substitution2: "'smcp' Lowercase to Small Capitals lookup 24 subtable" ncaron.sc
Substitution2: "'aalt' Access All Alternates lookup 0 subtable" ncaron.sc
EndChar

StartChar: napostrophe
Encoding: 329 329 203
Width: 678
GlyphClass: 2
Flags: MW
HStem: 0 21G<117 245 117 117 422 550 422 422> 448 96<366 376.5> 509 20G<117 228 228 228> 734 20G<127 163>
VStem: 117 128<0 368 0 529> 422 128<0 363 363 383 0 396>
AnchorPoint: "Anchor-11" 331 0 basechar 0
AnchorPoint: "Anchor-10" 0 0 basechar 0
AnchorPoint: "Anchor-9" 336 529 basechar 0
AnchorPoint: "Anchor-8" 0 0 basechar 0
LayerCount: 2
Fore
SplineSet
81 532 m 1xbc
 107 640 l 1
 92 652 80 670 80 692 c 0
 80 727 109 754 145 754 c 0
 181 754 209 728 209 692 c 0
 209 672 203 655 184 616 c 2
 143 532 l 1
 81 532 l 1xbc
400 544 m 0xdc
 494 544 550 484 550 383 c 2
 550 0 l 1
 422 0 l 1
 422 363 l 2
 422 429 396 448 357 448 c 0
 311 448 276 417 245 368 c 1xdc
 245 0 l 1
 117 0 l 1
 117 529 l 1
 228 529 l 1xbc
 238 459 l 1
 279 512 332 544 400 544 c 0xdc
EndSplineSet
Substitution2: "'smcp' Lowercase to Small Capitals lookup 24 subtable" napostrophe.sc
Substitution2: "'aalt' Access All Alternates lookup 0 subtable" napostrophe.sc
EndChar

StartChar: Eng
Encoding: 330 330 69
Width: 672
GlyphClass: 2
Flags: MW
HStem: -217 21G<399 399> 0 21G<81 201 81 81 419 475 419 419> 554 137<182 186 182 182>
VStem: 81 120<0 282 0 691> 471 120<367 691>
AnchorPoint: "Anchor-11" 111 0 basechar 0
AnchorPoint: "Anchor-10" 0 0 basechar 0
AnchorPoint: "Anchor-9" 111 236 basechar 0
AnchorPoint: "Anchor-8" 0 0 basechar 0
LayerCount: 2
Fore
SplineSet
591 691 m 1
 591 47 l 2
 591 -115 518 -169 399 -217 c 1
 362 -131 l 1
 430 -101 467 -77 475 0 c 1
 419 0 l 1
 186 554 l 1
 182 554 l 1
 190 497 201 410 201 282 c 2
 201 0 l 1
 81 0 l 1
 81 691 l 1
 250 691 l 1
 486 135 l 1
 490 135 l 1
 483 169 471 269 471 367 c 2
 471 691 l 1
 591 691 l 1
EndSplineSet
Substitution2: "'c2sc' Capitals to Small Capitals lookup 23 subtable" eng.sc
Substitution2: "'aalt' Access All Alternates lookup 0 subtable" eng.sc
Position2: "'cpsp' Capital Spacing lookup 0 subtable" dx=5 dy=0 dh=10 dv=0
EndChar

StartChar: eng
Encoding: 331 331 206
Width: 581
GlyphClass: 2
Flags: MW
HStem: -217 21G<317 317> 0 21G<77 205 77 77> 448 96<325.5 335.5> 509 20G<77 188 188 188>
VStem: 77 128<0 368 0 529> 381 128<39 47 47 363 363 383>
LayerCount: 2
Fore
SplineSet
359 544 m 0xec
 453 544 509 483 509 383 c 2
 509 47 l 2
 509 -115 436 -169 317 -217 c 1
 276 -124 l 1
 344 -92 381 -65 381 39 c 2
 381 363 l 2
 381 429 355 448 316 448 c 0
 270 448 236 417 205 368 c 1xec
 205 0 l 1
 77 0 l 1
 77 529 l 1
 188 529 l 1xdc
 198 460 l 1
 239 513 292 544 359 544 c 0xec
EndSplineSet
Substitution2: "'smcp' Lowercase to Small Capitals lookup 24 subtable" eng.sc
Substitution2: "'aalt' Access All Alternates lookup 0 subtable" eng.sc
EndChar
StartChar: Omacron
Encoding: 332 332 206
Width: 691
GlyphClass: 2
Flags: MW
HStem: -15 101<295.5 397.5 295.5 438.5> 605 101<294.5 398> 787 91<200 491 200 491>
VStem: 43 139<252 438 252 458.5> 200 291<787 878 787 878> 509 139<252.5 438.5>
AnchorPoint: "Anchor-14" 0 0 basechar 0
AnchorPoint: "Anchor-13" 563 691 basechar 0
AnchorPoint: "Anchor-12" 348 878 basechar 0
AnchorPoint: "Anchor-11" 458 0 basechar 0
AnchorPoint: "Anchor-10" 346 0 basechar 0
LayerCount: 2
Back
Fore
SplineSet
491 787 m 1
 200 787 l 1
 200 878 l 1
 491 878 l 1
 491 787 l 1
346 706 m 0xf4
 531 706 648 577 648 346 c 0
 648 118 531 -15 346 -15 c 0
 161 -15 43 114 43 345 c 0
 43 572 161 706 346 706 c 0xf4
346 605 m 0
 243 605 182 531 182 345 c 0
 182 159 245 86 346 86 c 0
 449 86 509 159 509 346 c 0
 509 531 450 605 346 605 c 0
EndSplineSet
Substitution2: "'c2sc' Capitals to Small Capitals lookup 26 subtable" omacron.sc
Substitution2: "'aalt' Access All Alternates lookup 0 subtable" omacron.sc
Position2: "'cpsp' Capital Spacing lookup 0 subtable" dx=5 dy=0 dh=10 dv=0
EndChar
StartChar: racute
Encoding: 341 341 608
Width: 394
GlyphClass: 2
Flags: MW
HStem: 0 21G<77 205 77 77> 418 125<307 331> 509 20G<77 188 188 188> 516 20G<391 391> 536 7
VStem: 77 128<0 281 0 529>
AnchorPoint: "Anchor-14" 0 0 basechar 0
AnchorPoint: "Anchor-13" 0 0 basechar 0
AnchorPoint: "Anchor-12" 237 820 basechar 0
AnchorPoint: "Anchor-11" 0 0 basechar 0
AnchorPoint: "Anchor-10" 141 0 basechar 0
LayerCount: 2
Back
Fore
SplineSet
363 720 m 1x94
 137 630 l 1
 101 695 l 1
 311 820 l 1
 363 720 l 1x94
338 543 m 0xc4
 357 543 374 541 391 536 c 1x8c
 369 412 l 1
 353 416 340 418 322 418 c 0xc4
 257 418 225 371 205 281 c 1
 205 0 l 1
 77 0 l 1
 77 529 l 1
 188 529 l 1xa4
 200 425 l 1
 225 501 276 543 338 543 c 0xc4
EndSplineSet
Substitution2: "'smcp' Lowercase to Small Capitals lookup 27 subtable" racute.sc
Substitution2: "'aalt' Access All Alternates lookup 0 subtable" racute.sc
EndChar
StartChar: rcommaaccent
Encoding: 343 343 611
Width: 394
GlyphClass: 2
Flags: MW
HStem: 0 21G<77 205 77 77> 418 125<307 331> 509 20G<77 188 188 188> 516 20G<391 391> 536 7
VStem: 73 139<-151 -121> 77 128<0 281 0 529>
AnchorPoint: "Anchor-14" 0 0 basechar 0
AnchorPoint: "Anchor-13" 0 0 basechar 0
AnchorPoint: "Anchor-12" 236 529 basechar 0
AnchorPoint: "Anchor-11" 0 0 basechar 0
AnchorPoint: "Anchor-10" 141 0 basechar 0
LayerCount: 2
Back
Fore
SplineSet
338 543 m 0xc2
 357 543 374 541 391 536 c 1x8a
 369 412 l 1
 353 416 340 418 322 418 c 0xc2
 257 418 225 371 205 281 c 1
 205 0 l 1
 77 0 l 1
 77 529 l 1
 188 529 l 1xa2
 200 425 l 1
 225 501 276 543 338 543 c 0xc2
143 -72 m 0x94
 182 -72 212 -101 212 -140 c 0
 212 -162 205 -180 185 -221 c 2
 141 -312 l 1
 74 -312 l 1
 102 -196 l 1
 85 -183 73 -164 73 -140 c 0
 73 -102 103 -72 143 -72 c 0x94
EndSplineSet
Substitution2: "'smcp' Lowercase to Small Capitals lookup 27 subtable" rcommaaccent.sc
Substitution2: "'aalt' Access All Alternates lookup 0 subtable" rcommaaccent.sc
EndChar

StartChar: Rcaron
Encoding: 344 344 88
Width: 611
GlyphClass: 2
Flags: MW
HStem: 0 21G<81 213 81 81 450 450 450 602> 277 95<213 295 295 297 213 295> 595 96<213 284 213 213>
VStem: 81 132<0 277 372 595> 423 138<446.5 525.5>
AnchorPoint: "Anchor-11" 310 0 basechar 0
AnchorPoint: "Anchor-10" 0 0 basechar 0
AnchorPoint: "Anchor-9" 303 691 basechar 0
AnchorPoint: "Anchor-8" 0 0 basechar 0
LayerCount: 2
Fore
SplineSet
264 752 m 1
 125 872 l 1
 174 928 l 1
 304 845 l 1
 434 928 l 1
 483 872 l 1
 344 752 l 1
 264 752 l 1
297 277 m 1
 213 277 l 1
 213 0 l 1
 81 0 l 1
 81 691 l 1
 287 691 l 2
 468 691 561 625 561 488 c 0
 561 394 515 338 421 301 c 1
 602 0 l 1
 450 0 l 1
 297 277 l 1
213 372 m 1
 295 372 l 2
 377 372 423 405 423 488 c 0
 423 563 380 595 284 595 c 2
 213 595 l 1
 213 372 l 1
EndSplineSet
Substitution2: "'c2sc' Capitals to Small Capitals lookup 23 subtable" rcaron.sc
Substitution2: "'aalt' Access All Alternates lookup 0 subtable" rcaron.sc
Position2: "'cpsp' Capital Spacing lookup 0 subtable" dx=5 dy=0 dh=10 dv=0
EndChar
StartChar: rcaron
Encoding: 345 345 610
Width: 394
GlyphClass: 2
Flags: MW
HStem: 0 21G<77 205 77 77> 418 125<307 331> 509 20G<77 188 188 188> 516 20G<391 391> 536 7 724 20G<57 57 415 415>
VStem: 77 128<0 281 0 529>
AnchorPoint: "Anchor-14" 0 0 basechar 0
AnchorPoint: "Anchor-13" 0 0 basechar 0
AnchorPoint: "Anchor-12" 238 800 basechar 0
AnchorPoint: "Anchor-11" 0 0 basechar 0
AnchorPoint: "Anchor-10" 141 0 basechar 0
LayerCount: 2
Back
Fore
SplineSet
276 619 m 1x96
 196 619 l 1
 57 744 l 1
 106 800 l 1
 236 712 l 1
 366 800 l 1
 415 744 l 1
 276 619 l 1x96
200 425 m 1xc6
 225 501 276 543 338 543 c 0xc6
 357 543 374 541 391 536 c 1x8e
 369 412 l 1
 353 416 340 418 322 418 c 0xc6
 257 418 225 371 205 281 c 1
 205 0 l 1
 77 0 l 1
 77 529 l 1
 188 529 l 1xa6
 200 425 l 1xc6
EndSplineSet
Substitution2: "'smcp' Lowercase to Small Capitals lookup 27 subtable" rcaron.sc
Substitution2: "'aalt' Access All Alternates lookup 0 subtable" rcaron.sc
EndChar
StartChar: sacute
Encoding: 347 347 624
Width: 476
GlyphClass: 2
Flags: MW
HStem: -15 95<196 251.5 196 286.5> 449 95<223.5 272.5>
VStem: 40 129<378.5 412 378.5 434> 317 132<124 166>
AnchorPoint: "Anchor-14" 0 0 basechar 0
AnchorPoint: "Anchor-13" 0 0 basechar 0
AnchorPoint: "Anchor-12" 249 820 basechar 0
AnchorPoint: "Anchor-11" 0 0 basechar 0
AnchorPoint: "Anchor-10" 239 0 basechar 0
LayerCount: 2
Back
Fore
SplineSet
323 820 m 1
 375 720 l 1
 149 630 l 1
 113 695 l 1
 323 820 l 1
244 544 m 0
 320 544 382 520 432 481 c 1
 382 406 l 1
 338 434 296 449 249 449 c 0
 198 449 169 428 169 396 c 0
 169 361 190 345 280 320 c 0
 388 291 449 247 449 153 c 0
 449 43 347 -15 226 -15 c 0
 135 -15 64 16 15 60 c 1
 79 132 l 1
 120 101 169 80 223 80 c 0
 280 80 317 104 317 144 c 0
 317 188 296 202 197 230 c 0
 88 260 40 312 40 390 c 0
 40 478 121 544 244 544 c 0
EndSplineSet
Substitution2: "'smcp' Lowercase to Small Capitals lookup 27 subtable" sacute.sc
Substitution2: "'locl' Localized Forms in Latin lookup 7 subtable" sacute.loclPLK
AlternateSubs2: "'aalt' Access All Alternates lookup 1 subtable" sacute.loclPLK sacute.sc
EndChar

StartChar: scircumflex
Encoding: 349 349 231
Width: 476
GlyphClass: 2
Flags: MW
HStem: -15 95<195.5 251 195.5 286.5> 449 95<225 274>
VStem: 40 129<378.5 412 378.5 434> 317 132<123.5 165>
AnchorPoint: "Anchor-11" 239 0 basechar 0
AnchorPoint: "Anchor-10" 0 0 basechar 0
AnchorPoint: "Anchor-9" 247 529 basechar 0
AnchorPoint: "Anchor-8" 0 0 basechar 0
LayerCount: 2
Fore
SplineSet
68 682 m 1
 206 808 l 1
 287 808 l 1
 426 682 l 1
 377 627 l 1
 247 715 l 1
 117 627 l 1
 68 682 l 1
244 544 m 0
 320 544 382 520 432 481 c 1
 382 404 l 1
 338 434 296 449 252 449 c 0
 198 449 169 428 169 396 c 0
 169 361 190 345 280 320 c 0
 388 291 449 247 449 153 c 0
 449 43 347 -15 226 -15 c 0
 135 -15 64 16 15 60 c 1
 80 133 l 1
 120 101 169 80 222 80 c 0
 280 80 317 105 317 142 c 0
 317 188 296 202 197 230 c 0
 88 260 40 312 40 390 c 0
 40 478 121 544 244 544 c 0
EndSplineSet
Substitution2: "'smcp' Lowercase to Small Capitals lookup 24 subtable" scircumflex.sc
Substitution2: "'aalt' Access All Alternates lookup 0 subtable" scircumflex.sc
EndChar
StartChar: scedilla
Encoding: 351 351 628
Width: 476
GlyphClass: 2
Flags: MW
HStem: -253 75<213.5 240 213.5 275> -14 94<195 251.5> -12 21G<273 273> 449 95<223.5 272.5>
VStem: 40 129<378.5 412 378.5 434> 189.5 83.5 275 97<-156.5 -131> 317 132<124 166>
AnchorPoint: "Anchor-14" 0 0 basechar 0
AnchorPoint: "Anchor-13" 0 0 basechar 0
AnchorPoint: "Anchor-12" 247 529 basechar 0
AnchorPoint: "Anchor-11" 0 0 basechar 0
AnchorPoint: "Anchor-10" 255 -253 basechar 0
LayerCount: 2
Back
Fore
SplineSet
449 153 m 0xb9
 449 58 372 2 273 -12 c 1
 273 -52 l 1xbd
 343 -59 372 -96 372 -144 c 0
 372 -211 315 -253 235 -253 c 0
 192 -253 155 -241 132 -225 c 1
 163 -162 l 1
 182 -172 201 -178 226 -178 c 0
 254 -178 275 -169 275 -144 c 0xba
 275 -118 248 -106 184 -106 c 1
 195 -14 l 1
 119 -8 58 21 15 60 c 1
 79 132 l 1
 120 101 169 80 223 80 c 0
 280 80 317 104 317 144 c 0xdd
 317 188 296 202 197 230 c 0
 88 260 40 312 40 390 c 0
 40 478 121 544 244 544 c 0
 320 544 382 520 432 481 c 1
 382 406 l 1
 338 434 296 449 249 449 c 0
 198 449 169 428 169 396 c 0
 169 361 190 345 280 320 c 0
 388 291 449 247 449 153 c 0xb9
EndSplineSet
Substitution2: "'smcp' Lowercase to Small Capitals lookup 27 subtable" scedilla.sc
Substitution2: "'locl' Localized Forms in Latin lookup 5 subtable" scommaaccent
Substitution2: "'locl' Localized Forms in Latin lookup 4 subtable" scommaaccent
AlternateSubs2: "'aalt' Access All Alternates lookup 1 subtable" scommaaccent scedilla.sc
EndChar
StartChar: uni0162
Encoding: 354 354 250
Width: 530
GlyphClass: 2
Flags: MW
HStem: -253 75<271.5 298 271.5 333> 0 21G<198 257 198 198> 586 105<12 198 12 525 331 331 331 511>
VStem: 198 133<0 586> 335 97<-156 -130.5>
AnchorPoint: "Anchor-14" 265 346 basechar 0
AnchorPoint: "Anchor-13" 0 0 basechar 0
AnchorPoint: "Anchor-12" 265 691 basechar 0
AnchorPoint: "Anchor-11" 0 0 basechar 0
AnchorPoint: "Anchor-10" 265 0 basechar 0
LayerCount: 2
Back
Fore
SplineSet
331 -52 m 1
 401 -59 432 -96 432 -144 c 0
 432 -211 374 -253 292 -253 c 0
 250 -253 214 -241 192 -225 c 1
 223 -162 l 1
 242 -172 260 -178 283 -178 c 0
 313 -178 335 -169 335 -143 c 0
 335 -118 308 -106 244 -106 c 1
 257 0 l 1xe8
 198 0 l 1
 198 586 l 1
 12 586 l 1
 12 691 l 1
 525 691 l 1
 511 586 l 1
 331 586 l 1
 331 -52 l 1
EndSplineSet
Substitution2: "'c2sc' Capitals to Small Capitals lookup 26 subtable" uni0163.sc
Substitution2: "'locl' Localized Forms in Latin lookup 5 subtable" uni021A
Substitution2: "'locl' Localized Forms in Latin lookup 4 subtable" uni021A
AlternateSubs2: "'aalt' Access All Alternates lookup 1 subtable" uni021A uni0163.sc
Position2: "'cpsp' Capital Spacing lookup 0 subtable" dx=5 dy=0 dh=10 dv=0
EndChar
StartChar: uni0163
Encoding: 355 355 642
Width: 375
GlyphClass: 2
Flags: MW
HStem: -253 75<209.5 236 209.5 271> -14 21G<269 269> -14 102<269 269> -8 21G<192 192> 437 92<5 88 5 88 216 326>
VStem: 88 128<158 161 161 437 529 646 646 646> 186 83 271 97<-156.5 -131>
AnchorPoint: "Anchor-14" 186 265 basechar 0
AnchorPoint: "Anchor-13" 211 765 basechar 0
AnchorPoint: "Anchor-12" 152 646 basechar 0
AnchorPoint: "Anchor-11" 0 0 basechar 0
AnchorPoint: "Anchor-10" 251 -253 basechar 0
LayerCount: 2
Back
Fore
SplineSet
269 -52 m 1xca
 339 -59 368 -96 368 -144 c 0
 368 -211 311 -253 231 -253 c 0
 188 -253 151 -241 128 -225 c 1
 159 -162 l 1
 178 -172 197 -178 222 -178 c 0
 250 -178 271 -169 271 -144 c 0x9d
 271 -118 244 -106 180 -106 c 1x9a
 192 -8 l 1x9c
 124 11 88 67 88 158 c 2
 88 437 l 1
 5 437 l 1
 5 529 l 1
 88 529 l 1
 88 646 l 1
 216 661 l 1
 216 529 l 1
 339 529 l 1
 326 437 l 1
 216 437 l 1
 216 161 l 2
 216 109 233 88 272 88 c 0
 292 88 312 94 335 108 c 1xac
 380 25 l 1
 347 2 309 -10 269 -14 c 1
 269 -52 l 1xca
EndSplineSet
Substitution2: "'smcp' Lowercase to Small Capitals lookup 27 subtable" uni0163.sc
Substitution2: "'locl' Localized Forms in Latin lookup 5 subtable" uni021B
Substitution2: "'locl' Localized Forms in Latin lookup 4 subtable" uni021B
AlternateSubs2: "'aalt' Access All Alternates lookup 1 subtable" uni021B uni0163.sc
EndChar

StartChar: tcaron
Encoding: 357 357 236
Width: 375
GlyphClass: 2
Flags: MW
HStem: -15 103<252.5 270.5> 437 92<5 88 5 88 216 326> 553 20G<261 261>
VStem: 88 128<158 161 161 437 529 646 646 646>
AnchorPoint: "Anchor-11" 234 0 basechar 0
AnchorPoint: "Anchor-10" 0 0 basechar 0
AnchorPoint: "Anchor-9" 0 0 basechar 0
AnchorPoint: "Anchor-8" 0 0 basechar 0
LayerCount: 2
Fore
SplineSet
330 565 m 1
 261 573 l 1
 274 778 l 1
 376 766 l 1
 330 565 l 1
380 25 m 1
 342 -2 294 -15 247 -15 c 0
 143 -14 88 45 88 158 c 2
 88 437 l 1
 5 437 l 1
 5 529 l 1
 88 529 l 1
 88 646 l 1
 216 661 l 1
 216 529 l 1
 339 529 l 1
 326 437 l 1
 216 437 l 1
 216 161 l 2
 216 109 233 88 272 88 c 0
 292 88 312 94 335 108 c 1
 380 25 l 1
EndSplineSet
Substitution2: "'smcp' Lowercase to Small Capitals lookup 24 subtable" tcaron.sc
Substitution2: "'aalt' Access All Alternates lookup 0 subtable" tcaron.sc
EndChar

StartChar: Tbar
Encoding: 358 358 97
Width: 531
GlyphClass: 2
Flags: MW
HStem: -1 21G<198 331 198 198> 306 82<80 198 80 198 331 451> 584 106<12 198 12 525 331 511 331 331>
VStem: 198 133<-1 306 -1 306 388 584>
AnchorPoint: "Anchor-11" 265 -1 basechar 0
AnchorPoint: "Anchor-10" 0 0 basechar 0
AnchorPoint: "Anchor-9" 265 690 basechar 0
AnchorPoint: "Anchor-8" 0 0 basechar 0
LayerCount: 2
Fore
SplineSet
331 584 m 1
 331 388 l 1
 451 388 l 1
 451 306 l 1
 331 306 l 1
 331 -1 l 1
 198 -1 l 1
 198 306 l 1
 80 306 l 1
 80 388 l 1
 198 388 l 1
 198 584 l 1
 12 584 l 1
 12 690 l 1
 525 690 l 1
 511 584 l 1
 331 584 l 1
EndSplineSet
Substitution2: "'c2sc' Capitals to Small Capitals lookup 23 subtable" tbar.sc
Substitution2: "'aalt' Access All Alternates lookup 0 subtable" tbar.sc
Position2: "'cpsp' Capital Spacing lookup 0 subtable" dx=5 dy=0 dh=10 dv=0
EndChar

StartChar: Utilde
Encoding: 360 360 111
Width: 656
GlyphClass: 2
Flags: MW
HStem: -15 103<284.5 370 284.5 411.5> 671 20G<71 203 203 203 452 585 585 585> 770 94<367.5 395.5 367.5 413.5> 817 93<259 288>
VStem: 71 132<226 233 233 691> 452 133<233 691>
AnchorPoint: "Anchor-11" 0 0 basechar 0
AnchorPoint: "Anchor-10" 0 0 basechar 0
AnchorPoint: "Anchor-9" 328 691 basechar 0
AnchorPoint: "Anchor-8" 439 0 basechar 0
LayerCount: 2
Fore
SplineSet
389 770 m 0xec
 327 770 305 817 271 817 c 0
 247 817 234 801 218 772 c 1
 149 806 l 1
 173 863 213 910 270 910 c 0xdc
 328 910 350 864 385 864 c 0
 406 864 420 878 438 907 c 1
 506 873 l 1
 480 811 438 770 389 770 c 0xec
585 226 m 2xdc
 585 87 496 -15 327 -15 c 0
 157 -15 71 84 71 226 c 2
 71 691 l 1
 203 691 l 1
 203 233 l 2
 203 136 242 88 327 88 c 0
 413 88 452 136 452 233 c 2
 452 691 l 1
 585 691 l 1
 585 226 l 2xdc
EndSplineSet
Substitution2: "'c2sc' Capitals to Small Capitals lookup 23 subtable" utilde.sc
Substitution2: "'aalt' Access All Alternates lookup 0 subtable" utilde.sc
Position2: "'cpsp' Capital Spacing lookup 0 subtable" dx=5 dy=0 dh=10 dv=0
EndChar
StartChar: utilde
Encoding: 361 361 688
Width: 577
GlyphClass: 2
Flags: MW
HStem: -15 97<243 256> 0 21G<389 500 389 389> 509 20G<72 200 200 200 372 500 500 500> 644 94<326.5 354.5 326.5 371> 691 93<218 247> 727 20G<465 465>
VStem: 72 128<149 165 165 529> 372 128<157 529 0 529>
AnchorPoint: "Anchor-14" 0 0 basechar 0
AnchorPoint: "Anchor-13" 510 529 basechar 0
AnchorPoint: "Anchor-12" 287 740 basechar 0
AnchorPoint: "Anchor-11" 510 0 basechar 0
AnchorPoint: "Anchor-10" 286 0 basechar 0
LayerCount: 2
Back
Fore
SplineSet
345 644 m 0x73
 289 644 264 691 230 691 c 0
 206 691 193 675 177 646 c 1
 108 680 l 1
 132 737 172 784 228 784 c 0x6b
 287 784 309 738 344 738 c 0
 365 738 379 752 397 781 c 1x73
 465 747 l 1x67
 439 685 397 644 345 644 c 0x73
500 529 m 1xa7
 500 0 l 1
 389 0 l 1x67
 382 74 l 1
 343 14 292 -15 220 -15 c 0
 124 -15 72 47 72 149 c 2
 72 529 l 1
 200 529 l 1
 200 165 l 2
 200 103 221 82 265 82 c 0
 308 82 344 111 372 157 c 1
 372 529 l 1
 500 529 l 1xa7
EndSplineSet
Substitution2: "'smcp' Lowercase to Small Capitals lookup 27 subtable" utilde.sc
Substitution2: "'aalt' Access All Alternates lookup 0 subtable" utilde.sc
EndChar

StartChar: umacron
Encoding: 363 363 246
Width: 577
GlyphClass: 2
Flags: MW
HStem: -15 97<243 256> 0 21G<389 500 389 389> 509 20G<72 200 200 200 372 500 500 500> 661 91<140 431 140 431>
VStem: 72 128<149 165 165 529> 372 128<157 529>
AnchorPoint: "Anchor-11" 0 0 basechar 0
AnchorPoint: "Anchor-10" 0 0 basechar 0
AnchorPoint: "Anchor-9" 286 529 basechar 0
AnchorPoint: "Anchor-8" 510 0 basechar 0
LayerCount: 2
Fore
SplineSet
140 661 m 1x7c
 140 752 l 1
 431 752 l 1
 431 661 l 1
 140 661 l 1x7c
500 0 m 1
 389 0 l 1x7c
 382 74 l 1
 343 14 292 -15 220 -15 c 0
 124 -15 72 47 72 149 c 2
 72 529 l 1
 200 529 l 1
 200 165 l 2
 200 103 221 82 265 82 c 0
 308 82 344 111 372 157 c 1xbc
 372 529 l 1
 500 529 l 1
 500 0 l 1
EndSplineSet
Substitution2: "'smcp' Lowercase to Small Capitals lookup 24 subtable" umacron.sc
Substitution2: "'aalt' Access All Alternates lookup 0 subtable" umacron.sc
EndChar

StartChar: ubreve
Encoding: 365 365 241
Width: 577
GlyphClass: 2
Flags: MW
HStem: -15 97<243 256> 0 21G<389 500 389 389> 509 20G<72 200 200 200 372 500 500 500> 637 92<262 308 262 332>
VStem: 72 128<149 165 165 529> 372 128<157 529>
AnchorPoint: "Anchor-11" 0 0 basechar 0
AnchorPoint: "Anchor-10" 0 0 basechar 0
AnchorPoint: "Anchor-9" 286 529 basechar 0
AnchorPoint: "Anchor-8" 510 0 basechar 0
LayerCount: 2
Fore
SplineSet
285 637 m 0x7c
 191 637 131 702 123 792 c 1
 198 806 l 1
 211 757 239 729 285 729 c 0
 331 729 361 757 373 806 c 1
 449 792 l 1
 441 702 379 637 285 637 c 0x7c
500 0 m 1
 389 0 l 1x7c
 382 74 l 1
 343 14 292 -15 220 -15 c 0
 124 -15 72 47 72 149 c 2
 72 529 l 1
 200 529 l 1
 200 165 l 2
 200 103 221 82 265 82 c 0
 308 82 344 111 372 157 c 1xbc
 372 529 l 1
 500 529 l 1
 500 0 l 1
EndSplineSet
Substitution2: "'smcp' Lowercase to Small Capitals lookup 24 subtable" ubreve.sc
Substitution2: "'aalt' Access All Alternates lookup 0 subtable" ubreve.sc
EndChar
StartChar: uring
Encoding: 367 367 687
Width: 577
GlyphClass: 2
Flags: MW
HStem: -15 97<243 256> 0 21G<389 500 389 389> 509 20G<72 200 200 200 372 500 500 500> 613 68<272 301.5 272 325.5> 786 67<272 301.5>
VStem: 72 128<149 165 165 529> 159 79<716 750 716 766> 335 79<716 750> 372 128<157 529 0 529>
AnchorPoint: "Anchor-14" 0 0 basechar 0
AnchorPoint: "Anchor-13" 510 529 basechar 0
AnchorPoint: "Anchor-12" 289 853 basechar 0
AnchorPoint: "Anchor-11" 510 0 basechar 0
AnchorPoint: "Anchor-10" 286 0 basechar 0
LayerCount: 2
Back
Fore
SplineSet
287 853 m 0x7b
 364 853 414 799 414 733 c 0
 414 668 364 613 287 613 c 0
 209 613 159 668 159 733 c 0
 159 799 209 853 287 853 c 0x7b
287 786 m 0
 257 786 238 767 238 733 c 0
 238 699 257 681 287 681 c 0
 316 681 335 699 335 733 c 0
 335 767 316 786 287 786 c 0
500 529 m 1xbc80
 500 0 l 1
 389 0 l 1x7c80
 382 74 l 1
 343 14 292 -15 220 -15 c 0
 124 -15 72 47 72 149 c 2
 72 529 l 1
 200 529 l 1
 200 165 l 2
 200 103 221 82 265 82 c 0
 308 82 344 111 372 157 c 1
 372 529 l 1
 500 529 l 1xbc80
EndSplineSet
Substitution2: "'smcp' Lowercase to Small Capitals lookup 27 subtable" uring.sc
Substitution2: "'aalt' Access All Alternates lookup 0 subtable" uring.sc
EndChar
StartChar: uhungarumlaut
Encoding: 369 369 682
Width: 577
GlyphClass: 2
Flags: MW
HStem: -15 97<243 256> 0 21G<389 500 389 389> 509 20G<72 200 200 200 372 500 500 500>
VStem: 72 128<149 165 165 529> 372 128<157 529 0 529>
AnchorPoint: "Anchor-14" 0 0 basechar 0
AnchorPoint: "Anchor-13" 510 529 basechar 0
AnchorPoint: "Anchor-12" 286 529 basechar 0
AnchorPoint: "Anchor-11" 510 0 basechar 0
AnchorPoint: "Anchor-10" 286 0 basechar 0
LayerCount: 2
Back
Fore
SplineSet
247 847 m 1x78
 341 801 l 1
 236 634 l 1
 164 664 l 1
 247 847 l 1x78
412 847 m 1
 505 799 l 1
 390 629 l 1
 320 661 l 1
 412 847 l 1
500 529 m 1
 500 0 l 1
 389 0 l 1x78
 382 74 l 1
 343 14 292 -15 220 -15 c 0
 124 -15 72 47 72 149 c 2
 72 529 l 1
 200 529 l 1
 200 165 l 2
 200 103 221 82 265 82 c 0
 308 82 344 111 372 157 c 1xb8
 372 529 l 1
 500 529 l 1
EndSplineSet
Substitution2: "'smcp' Lowercase to Small Capitals lookup 27 subtable" uhungarumlaut.sc
Substitution2: "'aalt' Access All Alternates lookup 0 subtable" uhungarumlaut.sc
EndChar
StartChar: Uogonek
Encoding: 370 370 286
Width: 656
GlyphClass: 2
Flags: MW
HStem: -239 85<344 360.5> -14 102 671 20G<71 203 203 203 452 585 585 585>
VStem: 71 132<226 233 233 691> 210 99<-123 -104> 452 133<233 691>
AnchorPoint: "Anchor-14" 0 0 basechar 0
AnchorPoint: "Anchor-13" 595 691 basechar 0
AnchorPoint: "Anchor-12" 328 691 basechar 0
AnchorPoint: "Anchor-11" 439 0 basechar 0
AnchorPoint: "Anchor-10" 328 0 basechar 0
LayerCount: 2
Back
Fore
SplineSet
452 691 m 1
 585 691 l 1
 585 226 l 2
 585 119 532 33 429 0 c 1
 329 -40 309 -76 309 -108 c 0
 309 -138 325 -154 363 -154 c 0
 383 -154 401 -152 424 -147 c 1
 414 -232 l 1
 393 -236 374 -239 347 -239 c 0
 266 -239 210 -195 210 -130 c 0xec
 210 -78 244 -39 300 -14 c 1
 148 -4 71 92 71 226 c 2
 71 691 l 1
 203 691 l 1
 203 233 l 2
 203 136 242 88 327 88 c 0
 413 88 452 136 452 233 c 2
 452 691 l 1
EndSplineSet
Substitution2: "'c2sc' Capitals to Small Capitals lookup 26 subtable" uogonek.sc
Substitution2: "'aalt' Access All Alternates lookup 0 subtable" uogonek.sc
Position2: "'cpsp' Capital Spacing lookup 0 subtable" dx=5 dy=0 dh=10 dv=0
EndChar
StartChar: uogonek
Encoding: 371 371 685
Width: 577
GlyphClass: 2
Flags: MW
HStem: -239 85<415 431.5> -15 97<243 256> 0 21G<500 500> 509 20G<72 200 200 200 372 500 500 500>
VStem: 72 128<149 165 165 529> 281 99<-123 -99.5> 372 128<157 529 0 529>
AnchorPoint: "Anchor-14" 0 0 basechar 0
AnchorPoint: "Anchor-13" 510 529 basechar 0
AnchorPoint: "Anchor-12" 286 529 basechar 0
AnchorPoint: "Anchor-11" 510 0 basechar 0
AnchorPoint: "Anchor-10" 286 0 basechar 0
LayerCount: 2
Back
Fore
SplineSet
380 -108 m 0xbc
 380 -138 396 -154 434 -154 c 0
 454 -154 472 -152 495 -147 c 1
 485 -232 l 1
 464 -236 445 -239 418 -239 c 0
 337 -239 281 -195 281 -130 c 0xdc
 281 -69 319 -25 388 9 c 1
 382 74 l 1
 343 14 292 -15 220 -15 c 0
 124 -15 72 47 72 149 c 2
 72 529 l 1
 200 529 l 1
 200 165 l 2
 200 103 221 82 265 82 c 0
 308 82 344 111 372 157 c 1xda
 372 529 l 1
 500 529 l 1
 500 0 l 1xba
 400 -40 380 -76 380 -108 c 0xbc
EndSplineSet
Substitution2: "'smcp' Lowercase to Small Capitals lookup 27 subtable" uogonek.sc
Substitution2: "'aalt' Access All Alternates lookup 0 subtable" uogonek.sc
EndChar
StartChar: Wcircumflex
Encoding: 372 372 296
Width: 837
GlyphClass: 2
Flags: MW
HStem: 0 105<236 236 236 309 142 236> 551 140<417 417> 671 20G<17 148 148 148 349 489 489 489 696 821 821 821>
VStem: 17 804<691 691>
AnchorPoint: "Anchor-14" 0 0 basechar 0
AnchorPoint: "Anchor-13" 529 810 basechar 0
AnchorPoint: "Anchor-12" 420 933 basechar 0
AnchorPoint: "Anchor-11" 0 0 basechar 0
AnchorPoint: "Anchor-10" 0 0 basechar 0
LayerCount: 2
Back
Fore
SplineSet
549 757 m 1xb0
 419 839 l 1
 289 757 l 1
 240 812 l 1
 379 933 l 1
 459 933 l 1
 598 812 l 1
 549 757 l 1xb0
821 691 m 1
 694 0 l 1
 522 0 l 1
 417 551 l 1xd0
 309 0 l 1
 142 0 l 1
 17 691 l 1
 148 691 l 1
 236 105 l 1
 349 691 l 1
 489 691 l 1
 600 105 l 1
 696 691 l 1
 821 691 l 1
EndSplineSet
Substitution2: "'c2sc' Capitals to Small Capitals lookup 26 subtable" wcircumflex.sc
Substitution2: "'aalt' Access All Alternates lookup 0 subtable" wcircumflex.sc
Position2: "'cpsp' Capital Spacing lookup 0 subtable" dx=5 dy=0 dh=10 dv=0
EndChar

StartChar: wcircumflex
Encoding: 373 373 253
Width: 734
GlyphClass: 2
Flags: MW
HStem: 0 94<214 214 214 286 129 214> 415 114<368 368> 509 20G<12 140 140 140 306 437 437 437 600 723 723 723>
VStem: 12 711<529 529>
AnchorPoint: "Anchor-11" 0 0 basechar 0
AnchorPoint: "Anchor-10" 0 0 basechar 0
AnchorPoint: "Anchor-9" 367 529 basechar 0
AnchorPoint: "Anchor-8" 0 0 basechar 0
LayerCount: 2
Fore
SplineSet
189 682 m 1xb0
 327 808 l 1
 408 808 l 1
 547 682 l 1
 498 627 l 1
 368 715 l 1
 238 627 l 1
 189 682 l 1xb0
608 0 m 1
 448 0 l 1
 368 415 l 1xd0
 286 0 l 1
 129 0 l 1
 12 529 l 1
 140 529 l 1
 214 94 l 1
 306 529 l 1
 437 529 l 1
 521 94 l 1
 600 529 l 1
 723 529 l 1
 608 0 l 1
EndSplineSet
Substitution2: "'smcp' Lowercase to Small Capitals lookup 24 subtable" wcircumflex.sc
Substitution2: "'aalt' Access All Alternates lookup 0 subtable" wcircumflex.sc
EndChar
StartChar: Ycircumflex
Encoding: 374 374 304
Width: 574
GlyphClass: 2
Flags: MW
HStem: 0 21G<220 354 220 220> 671 20G<-2 144 144 144 436 576 576 576>
VStem: 220 134<0 261 261 261>
AnchorPoint: "Anchor-14" 0 0 basechar 0
AnchorPoint: "Anchor-13" 396 810 basechar 0
AnchorPoint: "Anchor-12" 287 933 basechar 0
AnchorPoint: "Anchor-11" 0 0 basechar 0
AnchorPoint: "Anchor-10" 287 0 basechar 0
LayerCount: 2
Back
Fore
SplineSet
416 757 m 1
 286 839 l 1
 156 757 l 1
 107 812 l 1
 246 933 l 1
 326 933 l 1
 465 812 l 1
 416 757 l 1
576 691 m 1
 354 262 l 1
 354 0 l 1
 220 0 l 1
 220 261 l 1
 -2 691 l 1
 144 691 l 1
 290 370 l 1
 436 691 l 1
 576 691 l 1
EndSplineSet
Substitution2: "'c2sc' Capitals to Small Capitals lookup 26 subtable" ycircumflex.sc
Substitution2: "'aalt' Access All Alternates lookup 0 subtable" ycircumflex.sc
Position2: "'cpsp' Capital Spacing lookup 0 subtable" dx=5 dy=0 dh=10 dv=0
EndChar

StartChar: Zacute
Encoding: 377 377 125
Width: 534
GlyphClass: 2
Flags: MW
HStem: 0 108<177 485> 586 105<56 348 56 496>
VStem: 23 476<0 108 101 108>
AnchorPoint: "Anchor-11" 0 0 basechar 0
AnchorPoint: "Anchor-10" 0 0 basechar 0
AnchorPoint: "Anchor-9" 274 691 basechar 0
AnchorPoint: "Anchor-8" 0 0 basechar 0
LayerCount: 2
Fore
SplineSet
405 836 m 1
 176 753 l 1
 143 819 l 1
 354 936 l 1
 405 836 l 1
496 589 m 1
 177 108 l 1
 499 108 l 1
 485 0 l 1
 23 0 l 1
 23 101 l 1
 348 586 l 1
 56 586 l 1
 56 691 l 1
 496 691 l 1
 496 589 l 1
EndSplineSet
Substitution2: "'c2sc' Capitals to Small Capitals lookup 23 subtable" zacute.sc
Substitution2: "'locl' Localized Forms in Latin lookup 7 subtable" Zacute.loclPLK
AlternateSubs2: "'aalt' Access All Alternates lookup 1 subtable" Zacute.loclPLK zacute.sc
Position2: "'cpsp' Capital Spacing lookup 0 subtable" dx=5 dy=0 dh=10 dv=0
EndChar

StartChar: zacute
Encoding: 378 378 263
Width: 449
GlyphClass: 2
Flags: MW
HStem: 0 100<165 413> 429 100<40 275 40 421>
VStem: 18 408<0 100 92 100>
AnchorPoint: "Anchor-11" 0 0 basechar 0
AnchorPoint: "Anchor-10" 0 0 basechar 0
AnchorPoint: "Anchor-9" 226 529 basechar 0
AnchorPoint: "Anchor-8" 0 0 basechar 0
LayerCount: 2
Fore
SplineSet
348 720 m 1
 122 630 l 1
 86 695 l 1
 296 820 l 1
 348 720 l 1
421 437 m 1
 165 100 l 1
 426 100 l 1
 413 0 l 1
 18 0 l 1
 18 92 l 1
 275 429 l 1
 40 429 l 1
 40 529 l 1
 421 529 l 1
 421 437 l 1
EndSplineSet
Substitution2: "'smcp' Lowercase to Small Capitals lookup 24 subtable" zacute.sc
Substitution2: "'locl' Localized Forms in Latin lookup 7 subtable" zacute.loclPLK
AlternateSubs2: "'aalt' Access All Alternates lookup 1 subtable" zacute.loclPLK zacute.sc
EndChar

StartChar: Zdotaccent
Encoding: 379 379 127
Width: 534
GlyphClass: 2
Flags: MW
HStem: 0 108<177 485> 586 105<56 348 56 496> 768 155<250.5 298>
VStem: 194 161<823.5 867>
AnchorPoint: "Anchor-11" 0 0 basechar 0
AnchorPoint: "Anchor-10" 0 0 basechar 0
AnchorPoint: "Anchor-9" 274 691 basechar 0
AnchorPoint: "Anchor-8" 0 0 basechar 0
LayerCount: 2
Fore
SplineSet
274 923 m 0
 322 923 355 889 355 845 c 0
 355 802 322 768 274 768 c 0
 227 768 194 802 194 845 c 0
 194 889 227 923 274 923 c 0
496 589 m 1
 177 108 l 1
 499 108 l 1
 485 0 l 1
 23 0 l 1
 23 101 l 1
 348 586 l 1
 56 586 l 1
 56 691 l 1
 496 691 l 1
 496 589 l 1
EndSplineSet
Substitution2: "'c2sc' Capitals to Small Capitals lookup 23 subtable" zdotaccent.sc
Substitution2: "'aalt' Access All Alternates lookup 0 subtable" zdotaccent.sc
Position2: "'cpsp' Capital Spacing lookup 0 subtable" dx=5 dy=0 dh=10 dv=0
EndChar
StartChar: zdotaccent
Encoding: 380 380 721
Width: 449
GlyphClass: 2
Flags: MW
HStem: 0 100<165 413> 429 100<40 275 40 421> 642 155<202.5 250>
VStem: 146 161<697.5 741>
AnchorPoint: "Anchor-14" 0 0 basechar 0
AnchorPoint: "Anchor-13" 0 0 basechar 0
AnchorPoint: "Anchor-12" 229 797 basechar 0
AnchorPoint: "Anchor-11" 0 0 basechar 0
AnchorPoint: "Anchor-10" 219 0 basechar 0
LayerCount: 2
Back
Fore
SplineSet
226 797 m 0
 274 797 307 763 307 719 c 0
 307 676 274 642 226 642 c 0
 179 642 146 676 146 719 c 0
 146 763 179 797 226 797 c 0
421 529 m 1
 421 437 l 1
 165 100 l 1
 426 100 l 1
 413 0 l 1
 18 0 l 1
 18 92 l 1
 275 429 l 1
 40 429 l 1
 40 529 l 1
 421 529 l 1
EndSplineSet
Substitution2: "'smcp' Lowercase to Small Capitals lookup 27 subtable" zdotaccent.sc
Substitution2: "'aalt' Access All Alternates lookup 0 subtable" zdotaccent.sc
EndChar
StartChar: Zcaron
Encoding: 381 381 318
Width: 534
GlyphClass: 2
Flags: MW
HStem: 0 108<177 485> 586 105<56 348 56 496>
VStem: 23 476<0 108 101 108>
AnchorPoint: "Anchor-14" 0 0 basechar 0
AnchorPoint: "Anchor-13" 0 0 basechar 0
AnchorPoint: "Anchor-12" 276 928 basechar 0
AnchorPoint: "Anchor-11" 0 0 basechar 0
AnchorPoint: "Anchor-10" 261 0 basechar 0
LayerCount: 2
Back
Fore
SplineSet
404 928 m 1
 453 872 l 1
 314 752 l 1
 234 752 l 1
 95 872 l 1
 144 928 l 1
 274 845 l 1
 404 928 l 1
496 691 m 1
 496 589 l 1
 177 108 l 1
 499 108 l 1
 485 0 l 1
 23 0 l 1
 23 101 l 1
 348 586 l 1
 56 586 l 1
 56 691 l 1
 496 691 l 1
EndSplineSet
Substitution2: "'c2sc' Capitals to Small Capitals lookup 26 subtable" zcaron.sc
Substitution2: "'aalt' Access All Alternates lookup 0 subtable" zcaron.sc
Position2: "'cpsp' Capital Spacing lookup 0 subtable" dx=5 dy=0 dh=10 dv=0
EndChar
StartChar: zcaron
Encoding: 382 382 719
Width: 449
GlyphClass: 2
Flags: MW
HStem: 0 100<165 413> 429 100<40 275 40 421> 724 20G<48 48 406 406>
VStem: 18 408<0 100 92 100>
AnchorPoint: "Anchor-14" 0 0 basechar 0
AnchorPoint: "Anchor-13" 0 0 basechar 0
AnchorPoint: "Anchor-12" 229 800 basechar 0
AnchorPoint: "Anchor-11" 0 0 basechar 0
AnchorPoint: "Anchor-10" 219 0 basechar 0
LayerCount: 2
Back
Fore
SplineSet
357 800 m 1
 406 744 l 1
 267 619 l 1
 187 619 l 1
 48 744 l 1
 97 800 l 1
 227 712 l 1
 357 800 l 1
421 529 m 1
 421 437 l 1
 165 100 l 1
 426 100 l 1
 413 0 l 1
 18 0 l 1
 18 92 l 1
 275 429 l 1
 40 429 l 1
 40 529 l 1
 421 529 l 1
EndSplineSet
Substitution2: "'smcp' Lowercase to Small Capitals lookup 27 subtable" zcaron.sc
Substitution2: "'aalt' Access All Alternates lookup 0 subtable" zcaron.sc
EndChar
StartChar: uni0180
Encoding: 384 384 378
Width: 605
GlyphClass: 2
Flags: MW
HStem: -15 96<318 345 292.5 412.5> 0 21G<86 200 86 86> 448 96<329.5 350> 601 82<17 86 17 86 214 354> 721 20G<86 86> 735 20G<214 214>
VStem: 86 128<142 376 469 601 683 741 741 741> 422 135<198.5 335.5>
AnchorPoint: "Anchor-14" 0 0 basechar 0
AnchorPoint: "Anchor-13" 0 0 basechar 0
AnchorPoint: "Anchor-12" 325 741 basechar 0
AnchorPoint: "Anchor-11" 0 0 basechar 0
AnchorPoint: "Anchor-10" 317 0 basechar 0
LayerCount: 2
Back
Fore
SplineSet
359 544 m 0xb7
 484 544 557 442 557 265 c 0
 557 100 478 -15 347 -15 c 0
 289 -15 242 11 208 54 c 1xb7
 200 0 l 1
 86 0 l 1
 86 601 l 1
 17 601 l 1
 17 683 l 1
 86 683 l 1
 86 741 l 1x7b
 214 755 l 1
 214 683 l 1
 354 683 l 1
 354 601 l 1
 214 601 l 1
 214 469 l 1
 248 516 300 544 359 544 c 0xb7
313 81 m 0
 377 81 422 132 422 265 c 0
 422 406 380 448 320 448 c 0
 273 448 239 417 214 376 c 1
 214 142 l 1
 238 104 272 81 313 81 c 0
EndSplineSet
Substitution2: "'smcp' Lowercase to Small Capitals lookup 27 subtable" uni0180.sc
Substitution2: "'aalt' Access All Alternates lookup 0 subtable" uni0180.sc
EndChar
StartChar: uni0183
Encoding: 387 387 379
Width: 596
GlyphClass: 2
Flags: MW
HStem: -15 96<309 336 283.5 403> 0 21G<77 190 77 77> 441 96<319.5 340.5> 647 94<205 411 205 205>
VStem: 77 128<142 370 463 647> 413 134<196.5 330>
LayerCount: 2
Back
Fore
SplineSet
349 537 m 0xbc
 475 537 547 435 547 261 c 0
 547 100 468 -15 338 -15 c 0
 280 -15 232 11 198 54 c 1xbc
 190 0 l 1
 77 0 l 1x7c
 77 741 l 1
 426 741 l 1
 411 647 l 1
 205 647 l 1
 205 463 l 1
 239 509 290 537 349 537 c 0xbc
304 81 m 0
 368 81 413 132 413 261 c 0
 413 399 371 441 310 441 c 0
 264 441 230 410 205 370 c 1
 205 142 l 1
 229 105 263 81 304 81 c 0
EndSplineSet
Substitution2: "'smcp' Lowercase to Small Capitals lookup 27 subtable" uni0183.sc
Substitution2: "'aalt' Access All Alternates lookup 0 subtable" uni0183.sc
EndChar
StartChar: uni0184
Encoding: 388 388 259
Width: 596
GlyphClass: 2
Flags: MW
HStem: 0 99<225 303 303 306> 351 96<225 299 225 306> 671 20G<111 225 225 225>
VStem: 92 133<99 351 447 506 506 506> 437 139<178 271>
LayerCount: 2
Back
Fore
SplineSet
306 447 m 2
 474 447 576 377 576 229 c 0
 576 67 463 0 306 0 c 2
 92 0 l 1
 92 506 l 1
 20 553 l 1
 55 590 87 639 111 691 c 1
 225 691 l 1
 225 447 l 1
 306 447 l 2
303 99 m 2
 383 99 437 129 437 227 c 0
 437 315 389 351 299 351 c 2
 225 351 l 1
 225 99 l 1
 303 99 l 2
EndSplineSet
Substitution2: "'c2sc' Capitals to Small Capitals lookup 26 subtable" uni0185.sc
Substitution2: "'aalt' Access All Alternates lookup 0 subtable" uni0185.sc
Position2: "'cpsp' Capital Spacing lookup 0 subtable" dx=5 dy=0 dh=10 dv=0
EndChar
StartChar: uni0186
Encoding: 390 390 211
Width: 568
GlyphClass: 2
Flags: MW
HStem: -15 106<186.5 265.5 186.5 312> 604 102<204.5 276.5>
VStem: 386 139<256 440.5>
AnchorPoint: "Anchor-14" 216 349 basechar 0
AnchorPoint: "Anchor-13" 0 0 basechar 0
AnchorPoint: "Anchor-12" 237 691 basechar 0
AnchorPoint: "Anchor-11" 0 0 basechar 0
AnchorPoint: "Anchor-10" 237 0 basechar 0
LayerCount: 2
Back
Fore
SplineSet
241 706 m 0
 413 706 525 579 525 347 c 0
 525 112 401 -15 223 -15 c 0
 127 -15 59 26 13 69 c 1
 75 147 l 1
 115 118 156 91 217 91 c 0
 314 91 386 165 386 347 c 0
 386 534 320 604 233 604 c 0
 176 604 130 586 87 555 c 1
 21 633 l 1
 81 680 148 706 241 706 c 0
EndSplineSet
Substitution2: "'c2sc' Capitals to Small Capitals lookup 26 subtable" uni0254.sc
Substitution2: "'aalt' Access All Alternates lookup 0 subtable" uni0254.sc
Position2: "'cpsp' Capital Spacing lookup 0 subtable" dx=5 dy=0 dh=10 dv=0
EndChar
StartChar: uni018A
Encoding: 394 394 62
Width: 763
GlyphClass: 2
Flags: MW
HStem: 0 99<328 384> 592 99<328 366 366 389 328 328>
VStem: 7 109<536 562.5 536 595.5> 196 132<99 592 99 593 99 593> 581 139<247 453>
AnchorPoint: "Anchor-14" 440 346 basechar 0
AnchorPoint: "Anchor-13" 0 0 basechar 0
AnchorPoint: "Anchor-12" 414 691 basechar 0
AnchorPoint: "Anchor-11" 0 0 basechar 0
AnchorPoint: "Anchor-10" 418 0 basechar 0
LayerCount: 2
Back
Fore
SplineSet
366 691 m 2
 547 691 720 635 720 349 c 0
 720 69 549 0 384 0 c 2
 196 0 l 1
 196 593 l 1
 166 593 l 2
 132 593 116 577 116 548 c 0
 116 524 123 504 133 479 c 1
 49 440 l 1
 28 472 7 508 7 554 c 0
 7 637 68 691 173 691 c 2
 197 691 l 1
 366 691 l 2
393 99 m 2
 496 99 581 145 581 349 c 0
 581 557 491 592 389 592 c 2
 328 592 l 1
 328 99 l 1
 393 99 l 2
EndSplineSet
Substitution2: "'c2sc' Capitals to Small Capitals lookup 26 subtable" uni0257.sc
Substitution2: "'aalt' Access All Alternates lookup 0 subtable" uni0257.sc
Position2: "'cpsp' Capital Spacing lookup 0 subtable" dx=5 dy=0 dh=10 dv=0
EndChar
StartChar: uni018B
Encoding: 395 395 64
Width: 588
GlyphClass: 2
Flags: MW
HStem: 0 99<206.5 372 294 372 294 504> 343 96<290 297 297 372> 588 103<107 372 107 508>
VStem: 20 139<172.5 261.5 172.5 289.5> 372 132<99 343 343 343 439 588 588 588>
LayerCount: 2
Back
Fore
SplineSet
508 691 m 1
 504 688 l 1
 504 0 l 1
 282 0 l 2
 131 0 20 63 20 218 c 0
 20 361 122 439 290 439 c 2
 372 439 l 1
 372 588 l 1
 107 588 l 1
 107 691 l 1
 508 691 l 1
294 99 m 2
 372 99 l 1
 372 343 l 1
 297 343 l 2
 207 343 159 305 159 218 c 0
 159 127 213 99 294 99 c 2
EndSplineSet
Substitution2: "'c2sc' Capitals to Small Capitals lookup 26 subtable" uni018C.sc
Substitution2: "'aalt' Access All Alternates lookup 0 subtable" uni018C.sc
Position2: "'cpsp' Capital Spacing lookup 0 subtable" dx=5 dy=0 dh=10 dv=0
EndChar
StartChar: uni018C
Encoding: 396 396 405
Width: 599
GlyphClass: 2
Flags: MW
HStem: -15 97<253.5 283.5> 0 21G<409 522 409 409> 441 96<260.5 290 196 315> 647 94<181 394 181 522>
VStem: 48 135<195 323 195 340.5> 394 128<150 386 386 386 480 647 647 647>
LayerCount: 2
Back
Fore
SplineSet
522 741 m 1xbc
 522 0 l 1
 409 0 l 1x7c
 400 67 l 1
 368 19 318 -15 249 -15 c 0
 117 -15 48 96 48 261 c 0
 48 420 129 537 263 537 c 0
 317 537 361 514 394 480 c 1
 394 647 l 1
 181 647 l 1
 181 741 l 1
 522 741 l 1xbc
285 82 m 0xbc
 332 82 364 105 394 150 c 1
 394 386 l 1
 366 420 336 441 294 441 c 0
 227 441 183 385 183 261 c 0
 183 129 222 82 285 82 c 0xbc
EndSplineSet
Substitution2: "'smcp' Lowercase to Small Capitals lookup 27 subtable" uni018C.sc
Substitution2: "'aalt' Access All Alternates lookup 0 subtable" uni018C.sc
EndChar
StartChar: uni018D
Encoding: 397 397 400
Width: 578
GlyphClass: 2
Flags: MW
HStem: -218 93<276 327.5 276 335.5> 447 97<250.5 324.5>
VStem: 43 134<240 338.5 240 369> 98 126<-85 -54 -85 -47> 400 135<233 338>
LayerCount: 2
Back
Fore
SplineSet
306 -125 m 0xd8
 349 -125 382 -113 419 -88 c 1
 480 -160 l 1
 434 -194 376 -218 295 -218 c 0
 161 -218 98 -148 98 -73 c 0xd8
 98 -21 117 22 195 63 c 1
 102 108 43 181 43 289 c 0xe8
 43 449 139 544 289 544 c 0
 442 544 535 432 535 284 c 0
 535 142 468 75 333 19 c 0
 241 -20 224 -37 224 -71 c 0
 224 -99 246 -125 306 -125 c 0xd8
288 447 m 0xe8
 213 447 177 392 177 285 c 0
 177 195 205 140 266 95 c 1
 373 142 400 183 400 283 c 0
 400 393 361 447 288 447 c 0xe8
EndSplineSet
EndChar
StartChar: uni018E
Encoding: 398 398 88
Width: 528
GlyphClass: 2
Flags: MW
HStem: 0 99<42 315 42 448 42 315> 302 98<93 315 93 315> 593 98<48 315 48 448>
VStem: 315 133<99 302 302 302 400 593 593 593>
LayerCount: 2
Back
Fore
SplineSet
48 691 m 1
 448 691 l 1
 448 0 l 1
 42 0 l 1
 42 99 l 1
 315 99 l 1
 315 302 l 1
 93 302 l 1
 93 400 l 1
 315 400 l 1
 315 593 l 1
 48 593 l 1
 48 691 l 1
EndSplineSet
Substitution2: "'c2sc' Capitals to Small Capitals lookup 26 subtable" uni0258.sc
Substitution2: "'aalt' Access All Alternates lookup 0 subtable" uni0258.sc
Position2: "'cpsp' Capital Spacing lookup 0 subtable" dx=5 dy=0 dh=10 dv=0
EndChar
StartChar: uni0191
Encoding: 401 401 97
Width: 489
GlyphClass: 2
Flags: MW
HStem: -218 100<7.5 41.5 7.5 89> 288 98<213 426 213 426> 593 98<213 458 213 213>
VStem: 81 132<-51 -43 -43 288 386 593>
AnchorPoint: "Anchor-14" 0 0 basechar 0
AnchorPoint: "Anchor-13" 0 0 basechar 0
AnchorPoint: "Anchor-12" 287 691 basechar 0
AnchorPoint: "Anchor-11" 0 0 basechar 0
AnchorPoint: "Anchor-10" 0 0 basechar 0
LayerCount: 2
Back
Fore
SplineSet
458 593 m 1
 213 593 l 1
 213 386 l 1
 426 386 l 1
 426 288 l 1
 213 288 l 1
 213 -43 l 2
 213 -160 143 -218 35 -218 c 0
 -24 -218 -65 -199 -94 -177 c 1
 -48 -96 l 1
 -25 -110 -8 -118 23 -118 c 0
 60 -118 81 -97 81 -51 c 2
 81 691 l 1
 472 691 l 1
 458 593 l 1
EndSplineSet
Substitution2: "'c2sc' Capitals to Small Capitals lookup 26 subtable" uni0191.sc
Substitution2: "'aalt' Access All Alternates lookup 0 subtable" uni0191.sc
Position2: "'cpsp' Capital Spacing lookup 0 subtable" dx=5 dy=0 dh=10 dv=0
EndChar

StartChar: florin
Encoding: 402 402 1064
Width: 330
Flags: MW
HStem: -217 21G<11 11> 437 92<-7 76 -7 76 204 316> 658 97<249 289.5 200 290.5>
VStem: 76 128<39 47 47 437 529 585>
LayerCount: 2
Fore
SplineSet
277 658 m 0
 221 658 204 635 204 585 c 2
 204 529 l 1
 330 529 l 1
 316 437 l 1
 204 437 l 1
 204 47 l 2
 204 -115 130 -169 11 -217 c 1
 -30 -124 l 1
 39 -92 76 -65 76 39 c 2
 76 437 l 1
 -7 437 l 1
 -7 529 l 1
 76 529 l 1
 76 587 l 2
 76 683 139 755 261 755 c 0
 318 755 361 743 403 724 c 1
 367 638 l 1
 333 653 304 658 277 658 c 0
EndSplineSet
EndChar
StartChar: uni0193
Encoding: 403 403 106
Width: 602
GlyphClass: 2
Flags: MW
HStem: -15 101<292 365.5 292 390> 293 98<352 456 352 352> 606 100<315 368 267 392.5> 745 98<619.5 652.5>
VStem: 43 139<251.5 439 251.5 463> 456 130<113 293 293 293> 463 117
LayerCount: 2
Back
Fore
SplineSet
624 843 m 0xfc
 681 843 721 824 750 805 c 1
 708 724 l 1
 685 737 667 745 638 745 c 0
 601 745 580 726 580 678 c 2
 580 625 l 1
 516 558 l 1xfa
 467 588 421 606 364 606 c 0
 266 606 182 532 182 346 c 0
 182 157 238 86 346 86 c 0
 385 86 423 94 456 113 c 1
 456 293 l 1
 352 293 l 1
 338 391 l 1
 586 391 l 1
 586 53 l 1xfc
 519 11 437 -15 343 -15 c 0
 151 -15 43 109 43 346 c 0
 43 580 190 706 344 706 c 0
 392 706 431 698 463 682 c 1xfa
 464 783 519 843 624 843 c 0xfc
EndSplineSet
Substitution2: "'c2sc' Capitals to Small Capitals lookup 26 subtable" uni0260.sc
Substitution2: "'aalt' Access All Alternates lookup 0 subtable" uni0260.sc
Position2: "'cpsp' Capital Spacing lookup 0 subtable" dx=5 dy=0 dh=10 dv=0
EndChar
StartChar: uni0195
Encoding: 405 405 477
Width: 877
GlyphClass: 2
Flags: MW
HStem: -15 97<559.5 608.5 559.5 635.5> 0 21G<77 205 77 77> 448 96<327.5 335.5> 509 20G<667 794 794 794> 733 20G<205 205>
VStem: 77 128<0 369 0 465 465 740 740 740> 381 128<173 177 177 363 363 383> 693 129<193 301.5>
LayerCount: 2
Back
Fore
SplineSet
794 529 m 1x9f
 810 445 822 358 822 251 c 0
 822 62 696 -15 575 -15 c 0x9f
 470 -15 381 45 381 173 c 2
 381 363 l 2
 381 429 355 448 316 448 c 0
 271 448 236 417 205 369 c 1
 205 0 l 1
 77 0 l 1
 77 740 l 1
 205 753 l 1
 205 465 l 1
 245 515 296 544 359 544 c 0x6f
 453 544 509 483 509 383 c 2
 509 177 l 2
 509 111 536 82 583 82 c 0
 634 82 693 124 693 262 c 0
 693 341 685 433 667 529 c 1
 794 529 l 1x9f
EndSplineSet
EndChar
StartChar: uni0196
Encoding: 406 406 134
Width: 380
GlyphClass: 2
Flags: MW
HStem: -15 100<242.5 276.5 242.5 278.5> 671 20G<71 203 203 203>
VStem: 71 132<160 691>
AnchorPoint: "Anchor-14" 0 0 basechar 0
AnchorPoint: "Anchor-13" 0 0 basechar 0
AnchorPoint: "Anchor-12" 137 691 basechar 0
AnchorPoint: "Anchor-11" 0 0 basechar 0
AnchorPoint: "Anchor-10" 206 0 basechar 0
LayerCount: 2
Back
Fore
SplineSet
333 107 m 1
 378 26 l 1
 349 4 308 -15 249 -15 c 0
 141 -15 71 43 71 160 c 2
 71 691 l 1
 203 691 l 1
 203 152 l 2
 203 106 224 85 261 85 c 0
 292 85 309 93 333 107 c 1
EndSplineSet
Substitution2: "'c2sc' Capitals to Small Capitals lookup 26 subtable" uni0196.sc
Substitution2: "'aalt' Access All Alternates lookup 0 subtable" uni0196.sc
Position2: "'cpsp' Capital Spacing lookup 0 subtable" dx=5 dy=0 dh=10 dv=0
EndChar
StartChar: uni0197
Encoding: 407 407 135
Width: 322
GlyphClass: 2
Flags: MW
HStem: 0 21G<95 227 95 95> 310 99<10 95 10 95 227 312> 671 20G<95 227 227 227>
VStem: 95 132<0 310 0 310 409 691>
AnchorPoint: "Anchor-14" 0 0 basechar 0
AnchorPoint: "Anchor-13" 0 0 basechar 0
AnchorPoint: "Anchor-12" 161 691 basechar 0
AnchorPoint: "Anchor-11" 222 0 basechar 0
AnchorPoint: "Anchor-10" 161 0 basechar 0
LayerCount: 2
Back
Fore
SplineSet
312 409 m 1
 312 310 l 1
 227 310 l 1
 227 0 l 1
 95 0 l 1
 95 310 l 1
 10 310 l 1
 10 409 l 1
 95 409 l 1
 95 691 l 1
 227 691 l 1
 227 409 l 1
 312 409 l 1
EndSplineSet
Substitution2: "'c2sc' Capitals to Small Capitals lookup 26 subtable" uni0268.sc
Substitution2: "'aalt' Access All Alternates lookup 0 subtable" uni0268.sc
Position2: "'cpsp' Capital Spacing lookup 0 subtable" dx=5 dy=0 dh=10 dv=0
EndChar
StartChar: uni0198
Encoding: 408 408 143
Width: 637
GlyphClass: 2
Flags: MW
HStem: 0 21G<81 213 81 81 463 620 463 463> 607 99<537.5 561.5 498.5 564.5> 671 20G<81 213 213 213>
VStem: 81 132<0 691 0 691>
LayerCount: 2
Back
Fore
SplineSet
475 552 m 2xd0
 361 378 l 1
 620 0 l 1
 463 0 l 1
 219 369 l 1
 371 600 l 2
 419 675 460 706 537 706 c 0xd0
 586 706 619 689 643 670 c 1xb0
 604 591 l 1
 591 599 577 607 552 607 c 0
 523 607 506 599 475 552 c 2xd0
213 691 m 1xb0
 213 0 l 1
 81 0 l 1
 81 691 l 1
 213 691 l 1xb0
EndSplineSet
Substitution2: "'c2sc' Capitals to Small Capitals lookup 26 subtable" uni0199.sc
Substitution2: "'aalt' Access All Alternates lookup 0 subtable" uni0199.sc
Position2: "'cpsp' Capital Spacing lookup 0 subtable" dx=5 dy=0 dh=10 dv=0
EndChar
StartChar: uni0199
Encoding: 409 409 510
Width: 534
GlyphClass: 2
Flags: MW
HStem: 0 21G<77 205 77 77 392 392 392 539> 509 20G<387 522 522 522> 658 97<249.5 287.5>
VStem: 77 128<0 585 0 587 0 635>
LayerCount: 2
Back
Fore
SplineSet
275 658 m 0
 224 658 205 635 205 585 c 2
 205 0 l 1
 77 0 l 1
 77 587 l 2
 77 683 140 755 263 755 c 0
 315 755 359 743 399 724 c 1
 362 638 l 1
 330 653 300 658 275 658 c 0
346 296 m 1
 539 0 l 1
 392 0 l 1
 210 289 l 1
 387 529 l 1
 522 529 l 1
 346 296 l 1
EndSplineSet
Substitution2: "'smcp' Lowercase to Small Capitals lookup 27 subtable" uni0199.sc
Substitution2: "'aalt' Access All Alternates lookup 0 subtable" uni0199.sc
EndChar
StartChar: uni019A
Encoding: 410 410 515
Width: 326
GlyphClass: 2
Flags: MW
HStem: -15 21G<187 244> -15 103<187 261.5> 326 92<10 98 10 98 226 312> 721 20G<98 98> 735 20G<226 226>
VStem: 98 128<121 125 125 326 418 741 741 741>
AnchorPoint: "Anchor-14" 354 378 basechar 0
AnchorPoint: "Anchor-13" 236 741 basechar 0
AnchorPoint: "Anchor-12" 162 741 basechar 0
AnchorPoint: "Anchor-11" 0 0 basechar 0
AnchorPoint: "Anchor-10" 206 0 basechar 0
LayerCount: 2
Back
Fore
SplineSet
285 93 m 1x6c
 313 3 l 1
 291 -7 261 -15 227 -15 c 0
 147 -15 98 34 98 121 c 2
 98 326 l 1
 10 326 l 1
 10 418 l 1
 98 418 l 1
 98 741 l 1xb4
 226 755 l 1
 226 418 l 1
 312 418 l 1
 312 326 l 1
 226 326 l 1
 226 125 l 2
 226 100 234 88 256 88 c 0
 267 88 277 90 285 93 c 1x6c
EndSplineSet
Substitution2: "'smcp' Lowercase to Small Capitals lookup 27 subtable" uni019A.sc
Substitution2: "'aalt' Access All Alternates lookup 0 subtable" uni019A.sc
EndChar
StartChar: uni019C
Encoding: 412 412 158
Width: 923
GlyphClass: 2
Flags: MW
HStem: -15 102<252.5 272 572 590> 0 21G<727 843 727 727> 671 20G<71 203 203 203 390 523 523 523 710 843 843 843>
VStem: 71 132<183 188 188 691> 390 133<183 188 188 691> 710 133<167 691 0 691>
LayerCount: 2
Back
Fore
SplineSet
710 691 m 1xbc
 843 691 l 1
 843 0 l 1
 727 0 l 1x7c
 717 71 l 1
 671 12 622 -15 558 -15 c 0
 486 -15 436 22 410 81 c 1
 357 15 306 -15 238 -15 c 0
 131 -15 71 67 71 183 c 2
 71 691 l 1
 203 691 l 1
 203 188 l 2
 203 125 229 87 276 87 c 0
 322 87 352 114 391 166 c 0
 390 171 390 177 390 183 c 2
 390 691 l 1
 523 691 l 1
 523 188 l 2
 523 125 549 87 595 87 c 0
 643 87 672 111 710 167 c 1
 710 691 l 1xbc
EndSplineSet
Substitution2: "'c2sc' Capitals to Small Capitals lookup 26 subtable" uni026F.sc
Substitution2: "'aalt' Access All Alternates lookup 0 subtable" uni026F.sc
Position2: "'cpsp' Capital Spacing lookup 0 subtable" dx=5 dy=0 dh=10 dv=0
EndChar
StartChar: uni019D
Encoding: 413 413 171
Width: 672
GlyphClass: 2
Flags: MW
HStem: -218 97<5 39.5 5 83> 0 21G<420 591 420 420> 0 131<489 489 489 591 420 489> 559 132<183 183> 671 20G<81 248 248 248 471 591 591 591>
VStem: 81 120<-54 -44 -44 282> 471 120<367 691 0 691>
AnchorPoint: "Anchor-14" 0 0 basechar 0
AnchorPoint: "Anchor-13" 0 0 basechar 0
AnchorPoint: "Anchor-12" 344 691 basechar 0
AnchorPoint: "Anchor-11" 0 0 basechar 0
AnchorPoint: "Anchor-10" 337 0 basechar 0
LayerCount: 2
Back
Fore
SplineSet
471 691 m 1xce
 591 691 l 1
 591 0 l 1
 420 0 l 1
 183 559 l 1xd6
 190 498 201 410 201 282 c 2
 201 -44 l 2
 201 -160 133 -218 33 -218 c 0
 -27 -218 -68 -199 -97 -177 c 1
 -51 -99 l 1
 -28 -113 -11 -121 21 -121 c 0
 58 -121 81 -101 81 -54 c 2
 81 691 l 1
 248 691 l 1
 489 131 l 1xae
 483 169 471 269 471 367 c 2
 471 691 l 1xce
EndSplineSet
Substitution2: "'ss01' Style Set 1 lookup 33 subtable" uni019D.ss01
Substitution2: "'salt' Stylistic Alternatives lookup 32 subtable" uni019D.ss01
Substitution2: "'c2sc' Capitals to Small Capitals lookup 26 subtable" uni0272.sc
AlternateSubs2: "'aalt' Access All Alternates lookup 1 subtable" uni0272.sc uni019D.ss01
Position2: "'cpsp' Capital Spacing lookup 0 subtable" dx=5 dy=0 dh=10 dv=0
EndChar
StartChar: uni019E
Encoding: 414 414 551
Width: 581
GlyphClass: 2
Flags: MW
HStem: -218 21G<509 509> -204 21G<381 381> 0 21G<77 205 77 77> 448 96<325.5 336> 509 20G<77 188 188 188>
VStem: 77 128<0 368 0 529> 381 128<-204 363 363 383 -218 396>
AnchorPoint: "Anchor-14" 0 0 basechar 0
AnchorPoint: "Anchor-13" 0 0 basechar 0
AnchorPoint: "Anchor-12" 296 529 basechar 0
AnchorPoint: "Anchor-11" 0 0 basechar 0
AnchorPoint: "Anchor-10" 291 0 basechar 0
LayerCount: 2
Back
Fore
SplineSet
359 544 m 0x76
 454 544 509 484 509 383 c 2
 509 -218 l 1xae
 381 -204 l 1
 381 363 l 2
 381 429 356 448 316 448 c 0
 270 448 236 417 205 368 c 1x76
 205 0 l 1
 77 0 l 1
 77 529 l 1
 188 529 l 1x6e
 198 459 l 1
 239 512 292 544 359 544 c 0x76
EndSplineSet
EndChar
StartChar: uni019F
Encoding: 415 415 182
Width: 691
GlyphClass: 2
Flags: MW
HStem: -15 101<299 394.5 299 438.5> 310 82<180 511 180 512 180 511> 605 101<299 393.5>
VStem: 43 137<310 310 310 392 310 458.5> 512 136<310 310>
AnchorPoint: "Anchor-14" 0 0 basechar 0
AnchorPoint: "Anchor-13" 0 0 basechar 0
AnchorPoint: "Anchor-12" 346 691 basechar 0
AnchorPoint: "Anchor-11" 0 0 basechar 0
AnchorPoint: "Anchor-10" 0 0 basechar 0
LayerCount: 2
Back
Fore
SplineSet
346 706 m 0
 531 706 648 577 648 346 c 0
 648 118 531 -15 346 -15 c 0
 161 -15 43 114 43 345 c 0
 43 572 161 706 346 706 c 0
346 605 m 0
 252 605 191 544 180 392 c 1
 511 392 l 1
 501 544 441 605 346 605 c 0
346 86 m 0
 443 86 504 150 512 310 c 1
 180 310 l 1
 188 150 252 86 346 86 c 0
EndSplineSet
Substitution2: "'c2sc' Capitals to Small Capitals lookup 26 subtable" uni0275.sc
Substitution2: "'aalt' Access All Alternates lookup 0 subtable" uni0275.sc
Position2: "'cpsp' Capital Spacing lookup 0 subtable" dx=5 dy=0 dh=10 dv=0
EndChar
StartChar: ohorn
Encoding: 417 417 573
Width: 611
GlyphClass: 2
Flags: MW
HStem: -15 97<254.5 329.5 254.5 370> 447 97<255.5 330>
VStem: 43 135<201.5 327.5 201.5 348> 406 135<202 292.5 181.5 328> 521 94<510 542>
AnchorPoint: "Anchor-14" 0 0 basechar 0
AnchorPoint: "Anchor-13" 539 529 basechar 0
AnchorPoint: "Anchor-12" 292 529 basechar 0
AnchorPoint: "Anchor-11" 392 0 basechar 0
AnchorPoint: "Anchor-10" 292 0 basechar 0
LayerCount: 2
Back
Fore
SplineSet
615 526 m 0xe8
 615 460 578 420 514 409 c 1
 531 368 541 320 541 265 c 0xf0
 541 98 448 -15 292 -15 c 0
 136 -15 43 91 43 265 c 0
 43 431 136 544 293 544 c 0
 369 544 430 519 472 473 c 1
 507 477 521 494 521 526 c 0
 521 558 515 576 507 596 c 1
 596 611 l 1
 606 592 615 565 615 526 c 0xe8
292 82 m 0xf0
 367 82 406 139 406 265 c 0
 406 391 367 447 293 447 c 0
 218 447 178 390 178 265 c 0
 178 138 217 82 292 82 c 0xf0
EndSplineSet
Substitution2: "'smcp' Lowercase to Small Capitals lookup 27 subtable" ohorn.sc
Substitution2: "'aalt' Access All Alternates lookup 0 subtable" ohorn.sc
EndChar
StartChar: uni01A2
Encoding: 418 418 204
Width: 945
GlyphClass: 2
Flags: MW
HStem: -206 21G<731 864 731 731> -15 101<295.5 397.5 295.5 438.5> 605 101<294.5 378.5 253.5 398> 611 96<648.5 685.5>
VStem: 43 139<252 438 252 458.5> 509 139<252.5 397 232 438.5> 731 133<-206 530 -206 535 -206 561.5>
LayerCount: 2
Back
Fore
SplineSet
679 707 m 0xde
 796 707 864 646 864 530 c 2
 864 -206 l 1
 731 -206 l 1
 731 535 l 2
 731 588 707 611 664 611 c 0
 633 611 610 604 581 590 c 1xde
 624 530 648 448 648 346 c 0
 648 118 531 -15 346 -15 c 0
 161 -15 43 114 43 345 c 0
 43 572 161 706 346 706 c 0xee
 411 706 470 688 518 654 c 1
 567 689 616 707 679 707 c 0xde
346 86 m 0xee
 449 86 509 159 509 346 c 0
 509 531 450 605 346 605 c 0
 243 605 182 531 182 345 c 0
 182 159 245 86 346 86 c 0xee
EndSplineSet
Substitution2: "'c2sc' Capitals to Small Capitals lookup 26 subtable" uni01A3.sc
Substitution2: "'aalt' Access All Alternates lookup 0 subtable" uni01A3.sc
Position2: "'cpsp' Capital Spacing lookup 0 subtable" dx=5 dy=0 dh=10 dv=0
EndChar
StartChar: uni01A3
Encoding: 419 419 580
Width: 812
GlyphClass: 2
Flags: MW
HStem: -218 21G<735 735> -204 21G<607 607> -15 97<254.5 329.5 254.5 370> 447 97<255.5 318 214.5 330>
VStem: 43 135<201.5 327.5 201.5 348> 406 135<202 300 181.5 328> 607 128<-204 367 -218 375 -218 400.5>
LayerCount: 2
Back
Fore
SplineSet
560 544 m 0x7e
 670 544 735 483 735 367 c 2
 735 -218 l 1xbe
 607 -204 l 1
 607 375 l 2
 607 426 584 448 544 448 c 0
 527 448 511 445 495 440 c 1
 524 394 541 335 541 265 c 0
 541 98 448 -15 292 -15 c 0
 136 -15 43 91 43 265 c 0
 43 431 136 544 293 544 c 0
 343 544 388 532 426 509 c 1
 467 532 508 544 560 544 c 0x7e
292 82 m 0
 367 82 406 139 406 265 c 0
 406 391 367 447 293 447 c 0
 218 447 178 390 178 265 c 0
 178 138 217 82 292 82 c 0
EndSplineSet
Substitution2: "'smcp' Lowercase to Small Capitals lookup 27 subtable" uni01A3.sc
Substitution2: "'aalt' Access All Alternates lookup 0 subtable" uni01A3.sc
EndChar
StartChar: uni01A4
Encoding: 420 420 221
Width: 706
GlyphClass: 2
Flags: MW
HStem: 0 21G<196 328 196 196> 241 99<328 399 399 409 328 399> 594 97<328 399 328 328>
VStem: 7 109<536 562.5 536 595.5> 196 132<0 241 0 340 340 593 593 593> 542 138<420.5 514.5>
AnchorPoint: "Anchor-14" 0 0 basechar 0
AnchorPoint: "Anchor-13" 0 0 basechar 0
AnchorPoint: "Anchor-12" 411 691 basechar 0
AnchorPoint: "Anchor-11" 0 0 basechar 0
AnchorPoint: "Anchor-10" 411 0 basechar 0
LayerCount: 2
Back
Fore
SplineSet
400 691 m 2
 573 691 680 620 680 471 c 0
 680 312 565 241 409 241 c 2
 328 241 l 1
 328 0 l 1
 196 0 l 1
 196 593 l 1
 166 593 l 2
 132 593 116 577 116 548 c 0
 116 524 123 504 133 479 c 1
 49 440 l 1
 28 472 7 508 7 554 c 0
 7 637 68 691 173 691 c 2
 197 691 l 1
 400 691 l 2
399 340 m 2
 486 340 542 370 542 471 c 0
 542 558 489 594 399 594 c 2
 328 594 l 1
 328 340 l 1
 399 340 l 2
EndSplineSet
Substitution2: "'c2sc' Capitals to Small Capitals lookup 26 subtable" uni01A5.sc
Substitution2: "'aalt' Access All Alternates lookup 0 subtable" uni01A5.sc
Position2: "'cpsp' Capital Spacing lookup 0 subtable" dx=5 dy=0 dh=10 dv=0
EndChar
StartChar: uni01A5
Encoding: 421 421 600
Width: 596
GlyphClass: 2
Flags: MW
HStem: -218 21G<77 77> -204 21G<205 205> -15 98<311 337 282 405> 448 96<323.5 344> 658 97<249.5 287.5>
VStem: 77 128<-204 43 -204 138 138 376 470 585> 413 134<201 332>
LayerCount: 2
Back
Fore
SplineSet
349 544 m 0x7e
 489 544 547 435 547 266 c 0
 547 104 472 -15 338 -15 c 0
 284 -15 238 4 205 43 c 1
 205 -204 l 1x7e
 77 -218 l 1xbe
 77 587 l 2
 77 683 140 755 263 755 c 0
 315 755 359 743 399 724 c 1
 362 638 l 1
 330 653 300 658 275 658 c 0
 224 658 205 635 205 585 c 2
 205 470 l 1
 246 522 298 544 349 544 c 0x7e
302 83 m 0
 372 83 413 137 413 265 c 0
 413 399 377 448 311 448 c 0
 267 448 230 417 205 376 c 1
 205 138 l 1
 230 101 262 83 302 83 c 0
EndSplineSet
Substitution2: "'ss01' Style Set 1 lookup 33 subtable" uni01A5.ss01
Substitution2: "'salt' Stylistic Alternatives lookup 32 subtable" uni01A5.ss01
Substitution2: "'smcp' Lowercase to Small Capitals lookup 27 subtable" uni01A5.sc
AlternateSubs2: "'aalt' Access All Alternates lookup 1 subtable" uni01A5.sc uni01A5.ss01
EndChar
StartChar: uni01A6
Encoding: 422 422 312
Width: 611
GlyphClass: 2
Flags: MW
HStem: 0 21G<81 213 81 81> 159 95<213 295 295 297 213 295> 477 96<213 287 213 284> 671 20G<81 213 213 213>
VStem: 81 132<0 159 0 254 254 477 573 691> 423 138<328.5 407.5>
LayerCount: 2
Back
Fore
SplineSet
450 -118 m 1
 297 159 l 1
 213 159 l 1
 213 0 l 1
 81 0 l 1
 81 691 l 1
 213 691 l 1
 213 573 l 1
 287 573 l 2
 468 573 561 507 561 370 c 0
 561 276 515 220 421 183 c 1
 602 -118 l 1
 450 -118 l 1
213 477 m 1
 213 254 l 1
 295 254 l 2
 377 254 423 287 423 370 c 0
 423 445 380 477 284 477 c 2
 213 477 l 1
EndSplineSet
Substitution2: "'c2sc' Capitals to Small Capitals lookup 26 subtable" uni0280.sc
Substitution2: "'aalt' Access All Alternates lookup 0 subtable" uni0280.sc
Position2: "'cpsp' Capital Spacing lookup 0 subtable" dx=5 dy=0 dh=10 dv=0
EndChar
StartChar: uni01A7
Encoding: 423 423 260
Width: 551
GlyphClass: 2
Flags: MW
HStem: -15 103<255.5 324 255.5 338.5> 605 101<247.5 308>
VStem: 32 138<155.5 216 155.5 255.5> 379 137<498 553>
LayerCount: 2
Back
Fore
SplineSet
288 706 m 0
 424 706 516 633 516 521 c 0
 516 413 449 357 306 313 c 0
 198 280 170 244 170 188 c 0
 170 123 221 88 290 88 c 0
 358 88 416 114 466 155 c 1
 534 80 l 1
 477 24 395 -15 282 -15 c 0
 130 -15 32 73 32 193 c 0
 32 318 115 370 237 408 c 0
 351 444 379 471 379 525 c 0
 379 581 338 605 278 605 c 0
 217 605 169 587 119 547 c 1
 54 621 l 1
 118 676 190 706 288 706 c 0
EndSplineSet
Substitution2: "'c2sc' Capitals to Small Capitals lookup 26 subtable" uni01A8.sc
Substitution2: "'aalt' Access All Alternates lookup 0 subtable" uni01A8.sc
Position2: "'cpsp' Capital Spacing lookup 0 subtable" dx=5 dy=0 dh=10 dv=0
EndChar
StartChar: uni01A8
Encoding: 424 424 654
Width: 466
GlyphClass: 2
Flags: MW
HStem: -15 95<220 271 220 285.5> 449 95<205 255>
VStem: 27 133<125 167 125 198.5> 306 130<378 412.5>
LayerCount: 2
Back
Fore
SplineSet
242 544 m 0
 364 544 436 478 436 391 c 0
 436 306 385 265 277 234 c 0
 180 207 160 188 160 146 c 0
 160 104 195 80 245 80 c 0
 297 80 346 101 388 131 c 1
 451 60 l 1
 402 16 331 -15 240 -15 c 0
 126 -15 27 43 27 151 c 0
 27 246 89 286 197 315 c 0
 287 340 306 359 306 397 c 0
 306 428 280 449 230 449 c 0
 180 449 137 434 93 407 c 1
 44 481 l 1
 99 520 163 544 242 544 c 0
EndSplineSet
Substitution2: "'smcp' Lowercase to Small Capitals lookup 27 subtable" uni01A8.sc
Substitution2: "'aalt' Access All Alternates lookup 0 subtable" uni01A8.sc
EndChar
StartChar: uni01A9
Encoding: 425 425 89
Width: 503
GlyphClass: 2
Flags: MW
HStem: 0 102<176 473 176 473> 591 100<30 473 177 473 177 177>
VStem: 30 443<0 100 100 100 591 691>
LayerCount: 2
Back
Fore
SplineSet
473 691 m 1
 473 591 l 1
 177 591 l 1
 360 373 l 1
 360 309 l 1
 176 102 l 1
 473 102 l 1
 473 0 l 1
 30 0 l 1
 30 100 l 1
 236 339 l 1
 30 591 l 1
 30 691 l 1
 473 691 l 1
EndSplineSet
Substitution2: "'c2sc' Capitals to Small Capitals lookup 26 subtable" uni0283.sc
Substitution2: "'aalt' Access All Alternates lookup 0 subtable" uni0283.sc
Position2: "'cpsp' Capital Spacing lookup 0 subtable" dx=5 dy=0 dh=10 dv=0
EndChar
